<?xml version="1.0" encoding="UTF-8"?>
<svg version="1.1" xmlns="http://www.w3.org/2000/svg" width="512" height="512">
<path d="M0 0 C1.45096456 -0.00389866 2.90192799 -0.00823569 4.35289001 -0.01298523 C7.38625797 -0.02041374 10.41950951 -0.02018271 13.45288086 -0.01489258 C17.29291164 -0.00913041 21.13245496 -0.02596599 24.97240543 -0.04923725 C27.96948416 -0.06415793 30.96645079 -0.06482132 33.9635601 -0.06172752 C35.37659093 -0.06223253 36.78962947 -0.0673111 38.20262337 -0.07753944 C62.79043445 -0.23359342 86.46107837 6.59687273 105.02734375 23.30078125 C105.50558594 23.72987793 105.98382813 24.15897461 106.4765625 24.60107422 C125.7155493 42.11522897 135.63615118 65.37370109 136.9446106 91.25634766 C137.09396922 94.94717509 137.15054391 98.63874704 137.203125 102.33203125 C137.21517471 103.10522705 137.22722443 103.87842285 137.23963928 104.67504883 C137.28791836 107.86216832 137.33569828 111.04886891 137.35327148 114.23632812 C137.368761 116.60217362 137.40888507 118.96657128 137.453125 121.33203125 C137.45026237 122.40088562 137.45026237 122.40088562 137.44734192 123.49133301 C137.57114139 128.55943762 138.99720954 131.31236208 142.02734375 135.30078125 C145.92178872 145.38564995 145.82569379 153.86552423 142.484375 164.04296875 C138.93728433 171.97399723 132.03569409 178.80119726 124.02734375 182.30078125 C122.36989009 182.67726001 120.70373454 183.02041934 119.02734375 183.30078125 C119.02347656 184.17863281 119.02347656 184.17863281 119.01953125 185.07421875 C118.17636426 203.79252586 108.99893074 221.34220886 97.02734375 235.30078125 C96.57101562 235.90148437 96.1146875 236.5021875 95.64453125 237.12109375 C92.81461859 240.76439448 89.79543604 243.18600243 85.96777344 245.7890625 C80.45910512 249.55296582 80.45910512 249.55296582 76.8359375 255.03515625 C76.42351601 259.6699882 77.24065754 262.28359152 80.09375 265.97265625 C82.64318913 268.54155675 85.31285398 270.9087647 88.02734375 273.30078125 C89.54873926 275.0695306 90.98210942 276.86598772 92.3828125 278.73046875 C96.87140775 283.01649082 102.37153816 284.91937208 108.27270508 286.41967773 C108.95992142 286.59754822 109.64713776 286.7754187 110.35517883 286.9586792 C111.83426464 287.34016731 113.31455415 287.71701368 114.79590797 288.0895977 C117.15000623 288.68210149 119.50038805 289.28772942 121.8502655 289.89674377 C127.68720465 291.40676676 133.52949939 292.89559592 139.37225342 294.38293457 C144.31554448 295.64192248 149.25629238 296.91011393 154.19403648 298.19069099 C156.4926158 298.78289569 158.79429174 299.36170084 161.09638977 299.94004822 C173.89262245 303.21724101 186.24728196 307.46194535 193.80807495 319.02386475 C199.5117374 329.75132806 201.66280604 340.7655252 203.91015625 352.62890625 C204.33481701 354.78898228 204.76127615 356.94870543 205.18942261 359.10809326 C206.30692054 364.76958562 207.39998682 370.43552174 208.48779297 376.1027832 C209.5837079 381.78889878 210.70300361 387.47040073 211.8203125 393.15234375 C213.71008215 402.77688181 215.57584344 412.40583386 217.42804337 422.03766632 C218.51293383 427.66895816 219.62077322 433.29484103 220.75683594 438.91601562 C220.99804169 440.12247742 221.23924744 441.32893921 221.48776245 442.57196045 C221.90180142 444.63701854 222.32253079 446.70075717 222.75271606 448.76251221 C225.11073682 460.6337015 224.93008678 472.81340454 218.08984375 483.23828125 C217.09665628 484.61285271 216.07450384 485.96686828 215.02734375 487.30078125 C214.40859375 488.13480469 213.78984375 488.96882813 213.15234375 489.828125 C210.92946632 492.41467171 208.82498461 494.08080084 205.96484375 495.92578125 C205.10761719 496.49554688 204.25039063 497.0653125 203.3671875 497.65234375 C191.90353519 503.31042711 180.31662727 502.65878478 167.83984375 502.48828125 C165.91472401 502.47320706 163.98959286 502.4595235 162.06445312 502.44726562 C157.38513091 502.41447691 152.70636549 502.36284568 148.02734375 502.30078125 C148.5979502 488.04502711 150.40923138 473.94979264 152.15767407 459.79958892 C152.57956458 456.37400368 152.99501417 452.94763826 153.41087341 449.52131653 C154.64414156 439.36957487 155.88636188 429.21893163 157.13220215 419.06872559 C158.10395767 411.15113346 159.0727893 403.23320868 160.03251976 395.31414872 C160.44449699 391.91703366 160.85907276 388.52028038 161.27997017 385.12425804 C161.74801871 381.34029308 162.20797086 377.55542127 162.66625977 373.77026367 C162.8049498 372.66610611 162.94363983 371.56194855 163.08653259 370.42433167 C164.56181368 358.08253183 164.80721013 349.38978589 158.40234375 338.55078125 C150.23162924 330.81010435 140.3402477 330.14770234 129.63505554 330.16706848 C128.70916384 330.16480292 127.78327214 330.16253737 126.82932311 330.16020316 C123.7373582 330.15389027 120.64543743 330.15469078 117.5534668 330.15551758 C115.33223413 330.1525244 113.11100198 330.14912151 110.88977051 330.14533997 C104.86284351 330.13651205 98.83593071 330.13416236 92.80899787 330.13352418 C89.04175465 330.13281301 85.27451504 330.13067742 81.50727272 330.12802696 C69.03766557 330.11925479 56.56806648 330.11460675 44.09845688 330.11535744 C43.09126247 330.11541737 43.09126247 330.11541737 42.0637207 330.11547852 C41.0552888 330.11553984 41.0552888 330.11553984 40.02648453 330.1156024 C29.13434 330.11600874 18.24223006 330.10644082 7.35009553 330.09234015 C-3.84859799 330.07795763 -15.04727886 330.07125391 -26.24598283 330.07193393 C-32.52728365 330.07218866 -38.80854532 330.06935086 -45.08983803 330.05875587 C-50.99875175 330.04906092 -56.90758898 330.04900536 -62.81650543 330.05627251 C-64.98120167 330.05731659 -67.14590271 330.05496593 -69.31059074 330.04891205 C-72.27362212 330.04116427 -75.23639116 330.04585537 -78.19941711 330.05354309 C-79.04875912 330.04839953 -79.89810114 330.04325596 -80.77318078 330.03795654 C-89.72846831 330.08903218 -99.13335277 330.9740594 -105.97265625 337.30078125 C-111.42381112 344.52148313 -113.30657718 350.2256503 -112.63404846 359.24577332 C-112.5607525 360.23315201 -112.5607525 360.23315201 -112.4859758 361.24047774 C-111.96839027 367.90828614 -111.20713505 374.54370307 -110.39038086 381.1809082 C-110.2341777 382.4771109 -110.07797455 383.7733136 -109.91703796 385.10879517 C-109.49500327 388.61042823 -109.06815222 392.11145831 -108.64039683 395.61239648 C-108.19159753 399.29324744 -107.74759852 402.97467738 -107.30311584 406.65605164 C-106.46334878 413.60570199 -105.61973686 420.55487936 -104.77451569 427.50386828 C-103.25687537 439.98240124 -101.74629958 452.46179094 -100.2365132 464.94127625 C-99.70695562 469.3172106 -99.17583182 473.69295127 -98.643381 478.06853449 C-98.39303131 480.12694881 -98.14319418 482.18542459 -97.89356995 484.243927 C-97.58895018 486.75546848 -97.28344924 489.26690329 -96.97692871 491.7782135 C-96.84374741 492.87836792 -96.7105661 493.97852234 -96.573349 495.11201477 C-96.39831297 496.55120758 -96.39831297 496.55120758 -96.21974087 498.01947498 C-95.97265625 500.30078125 -95.97265625 500.30078125 -95.97265625 502.30078125 C-101.64687854 502.35051821 -107.32097163 502.38665945 -112.99536133 502.41064453 C-114.92246717 502.42065212 -116.84955803 502.43426235 -118.77661133 502.45166016 C-121.55944538 502.47614046 -124.34207726 502.48731703 -127.125 502.49609375 C-127.97537338 502.50641632 -128.82574677 502.51673889 -129.70188904 502.52737427 C-142.74809287 502.52977716 -152.10996777 498.71195755 -161.63671875 489.80078125 C-170.35515895 480.47000913 -172.62868576 470.16298665 -172.34289551 457.72601318 C-171.78641424 446.80408048 -169.24399646 436.06184935 -167.08203125 425.37109375 C-166.57468231 422.80264839 -166.0686228 420.23394802 -165.56378174 417.66500854 C-164.50933472 412.31240627 -163.44195944 406.96251919 -162.36572266 401.61425781 C-161.12842793 395.46517931 -159.90859692 389.31284422 -158.69871306 383.15831769 C-157.52436924 377.1852257 -156.340736 371.21402374 -155.15235138 365.24370956 C-154.65144056 362.72526467 -154.15231917 360.20646312 -153.6550827 357.68729019 C-152.95735876 354.1624408 -152.24920614 350.6398438 -151.53808594 347.11767578 C-151.33740005 346.09506149 -151.13671417 345.0724472 -150.9299469 344.0188446 C-148.16514218 330.47518374 -144.43503571 317.22277577 -132.59765625 308.86328125 C-123.80165501 303.78148776 -114.35589276 301.17526725 -104.56655502 298.69716072 C-102.35208576 298.13569488 -100.14030472 297.56456937 -97.9289856 296.99082947 C-91.64937966 295.36295901 -85.36620831 293.74925451 -79.07958984 292.14868164 C-75.21354186 291.1636696 -71.3511564 290.16524849 -67.49066544 289.1586895 C-66.03049916 288.78083518 -64.56900896 288.40805575 -63.10616684 288.0406971 C-48.73466151 284.42976852 -41.00428484 278.88187307 -30.97265625 268.30078125 C-30.09287109 267.46160156 -30.09287109 267.46160156 -29.1953125 266.60546875 C-25.1212386 262.4723503 -25.09239701 257.8088562 -24.97265625 252.30078125 C-25.6790625 252.07390625 -26.38546875 251.84703125 -27.11328125 251.61328125 C-30.54235452 250.03928041 -33.01636942 247.86576716 -35.72265625 245.30078125 C-36.24633789 244.80876221 -36.77001953 244.31674316 -37.30957031 243.80981445 C-54.43771188 227.53598989 -66.01308086 207.20760101 -67.97265625 183.30078125 C-69.25140625 182.99140625 -70.53015625 182.68203125 -71.84765625 182.36328125 C-80.04954714 179.59481966 -86.15312419 173.56678384 -90.03515625 165.92578125 C-93.75404697 157.58805473 -94.42379427 148.06941409 -92.18359375 139.1640625 C-90.91814486 135.93282088 -89.72977402 133.15979019 -87.42271423 130.54225159 C-85.56010239 127.66306383 -85.60060704 125.83606612 -85.60375977 122.42163086 C-85.59687637 121.23617172 -85.58999298 120.05071259 -85.582901 118.82933044 C-85.59213844 116.91060875 -85.59213844 116.91060875 -85.6015625 114.953125 C-85.59486261 113.61754823 -85.58628193 112.28197971 -85.57591248 110.94642639 C-85.53595479 105.28859885 -85.53459258 99.63084564 -85.53686523 93.97290039 C-85.53691681 90.5056483 -85.51750798 87.03889426 -85.48753166 83.57177925 C-85.47684515 81.62949603 -85.48879442 79.68712978 -85.50135803 77.74485779 C-85.39717323 65.20885952 -81.85300927 54.50944987 -73.08984375 45.328125 C-67.67661085 40.32884521 -62.19739864 36.61424014 -54.78515625 35.86328125 C-52.71992216 35.54121241 -52.71992216 35.54121241 -50.97265625 34.30078125 C-49.38891006 31.17853875 -48.33891044 28.02239928 -47.2421875 24.69921875 C-43.90195021 15.75766047 -36.41454178 8.54684016 -28.09765625 4.05078125 C-18.9580167 -0.04974673 -9.8473707 -0.01112465 0 0 Z M-27.66015625 86.42578125 C-36.26362118 95.12657044 -37.55522933 109.65855524 -39.91821289 121.09448242 C-40.27580688 122.80921753 -40.27580688 122.80921753 -40.640625 124.55859375 C-40.95422974 126.10764404 -40.95422974 126.10764404 -41.27416992 127.68798828 C-41.97265625 130.30078125 -41.97265625 130.30078125 -43.97265625 133.30078125 C-47.81817493 134.13980351 -50.21184051 134.5543865 -53.97265625 133.30078125 C-60.22180428 132.52380015 -65.08829638 132.95852871 -70.27734375 136.6875 C-74.27123596 140.48813936 -76.14812902 144.94417152 -76.41015625 150.42578125 C-75.67211453 156.96272218 -73.13223029 160.88905902 -68.14453125 164.9921875 C-64.78491374 167.01641747 -61.24975999 167.72781992 -57.42578125 168.46484375 C-54.30160474 169.52945167 -53.48660826 170.37380735 -51.97265625 173.30078125 C-51.53989738 175.81995374 -51.24145116 178.20289882 -51.03515625 180.73828125 C-48.82053271 201.48098133 -39.2135341 219.94694278 -23.28515625 233.55078125 C-5.26178131 247.11068716 15.86058278 252.72132165 38.26074219 250.03271484 C58.22967336 246.70455965 75.66783717 235.25835592 87.96484375 219.3671875 C97.29045781 205.50240145 101.82075015 190.76298112 103.33984375 174.12890625 C104.02734375 171.30078125 104.02734375 171.30078125 105.8203125 169.46484375 C108.08497621 168.27038395 109.81855373 167.79300289 112.33984375 167.42578125 C118.401078 166.20754306 122.35272084 163.62364529 125.96484375 158.61328125 C127.60393026 153.503188 128.11711239 148.38845905 126.30078125 143.2421875 C123.69031572 138.30777095 120.30495393 135.05998464 115.02734375 133.30078125 C111.4086298 133.27545025 107.80434367 133.32810513 104.1875 133.42773438 C98.34683493 133.51377537 98.34683493 133.51377537 95.02734375 131.30078125 C94.10316348 128.52824045 93.89319902 126.78159073 93.8515625 123.9140625 C93.82771484 123.05748047 93.80386719 122.20089844 93.77929688 121.31835938 C93.73679903 119.53473773 93.70529616 117.75081543 93.68554688 115.96679688 C93.4531331 108.72953989 91.8407953 103.19027204 86.71484375 97.92578125 C81.23836732 94.61442341 75.58513762 94.01070688 69.3046875 93.9921875 C67.7966245 93.96949445 66.28856803 93.94636417 64.78051758 93.92285156 C63.60315536 93.90913513 63.60315536 93.90913513 62.40200806 93.8951416 C37.72320061 93.57252261 13.64110268 91.44331305 -10.55859375 86.38671875 C-19.51861763 83.84774599 -19.51861763 83.84774599 -27.66015625 86.42578125 Z M-7.97265625 261.30078125 C-8.56744004 273.54341428 -8.01488854 282.90657107 0.21484375 292.67578125 C8.03336322 300.68499632 15.82196144 303.75484301 27.02734375 304.30078125 C35.47304445 303.81885824 42.56460561 300.3787707 48.83984375 294.80078125 C49.56171875 293.97578125 50.28359375 293.15078125 51.02734375 292.30078125 C51.70796875 291.57890625 52.38859375 290.85703125 53.08984375 290.11328125 C58.23577798 282.64337673 60.07569982 274.56243371 60.04296875 265.5859375 C60.03958496 264.37949585 60.03958496 264.37949585 60.03613281 263.14868164 C60.03323242 262.53887451 60.03033203 261.92906738 60.02734375 261.30078125 C58.82464844 261.66171875 57.62195313 262.02265625 56.3828125 262.39453125 C34.83720578 268.42498255 13.26863698 268.38121233 -7.97265625 261.30078125 Z " fill="#000000" transform="translate(171.97265625,4.69921875)"/>
<path d="M0 0 C0.96446265 -0.00694553 1.9289253 -0.01389106 2.9226141 -0.02104706 C6.15705876 -0.03935557 9.39077317 -0.0290418 12.62524414 -0.01878357 C14.94296824 -0.02584002 17.26068773 -0.03458388 19.57839966 -0.04489136 C25.87583441 -0.06742435 32.1730183 -0.06443656 38.47047806 -0.05556989 C43.724259 -0.05046624 48.97799255 -0.05774742 54.23176861 -0.06504196 C67.33180005 -0.08302605 80.43169129 -0.07661753 93.53171766 -0.05887216 C104.90920786 -0.04417297 116.28643404 -0.05880666 127.66389024 -0.08764232 C139.34730334 -0.11703287 151.03058376 -0.12750142 162.71403217 -0.11846012 C169.27304464 -0.11352374 175.8318518 -0.11578533 182.39083862 -0.13624763 C188.55676136 -0.15456234 194.72219215 -0.14869707 200.88808823 -0.12404823 C203.15324532 -0.11902728 205.41843962 -0.12256316 207.68356705 -0.13519669 C210.77154878 -0.15105948 213.85789706 -0.13623937 216.94580078 -0.11352539 C218.29623427 -0.13127898 218.29623427 -0.13127898 219.67394924 -0.14939123 C224.13543453 -0.08253493 225.90314664 0.06113246 229.50584412 2.92892551 C237.17602405 13.01154358 229.79838353 37.33883244 228.37550163 49.04618835 C227.95812108 52.487168 227.54519323 55.92868225 227.13171387 59.37013245 C226.43831763 65.13623717 225.74205029 70.90198886 225.04370117 76.66749573 C224.06062713 84.78373117 223.08305346 92.90062243 222.10643864 101.01763725 C221.42635948 106.66833432 220.74499084 112.31887603 220.06336784 117.96938705 C219.89897838 119.33216838 219.73462211 120.69495372 219.57029915 122.05774307 C219.03060492 126.53311663 218.48941765 131.00830769 217.94750977 135.4834137 C217.74486763 137.16357826 217.74486763 137.16357826 217.53813171 138.87768555 C217.29344079 140.89453223 217.04453028 142.91087424 216.79020691 144.92652893 C216.59515743 146.51746486 216.41639228 148.11062322 216.26509094 149.70631409 C216.01169811 152.11701272 215.73389763 154.08715749 214.45888805 156.17558765 C211.26823293 158.32692521 207.81975141 157.91542686 204.10176086 157.87542725 C203.23756804 157.87799052 202.37337522 157.8805538 201.48299474 157.88319474 C198.57620349 157.88815115 195.66992729 157.87160916 192.76318359 157.85523987 C190.68394991 157.854394 188.60471534 157.85486795 186.52548218 157.85656738 C180.87080347 157.85743032 175.21631456 157.83975625 169.56168008 157.81884551 C163.6559725 157.80012841 157.75026086 157.79833219 151.8445282 157.79476929 C140.65668194 157.7854342 129.46892332 157.76080061 118.28111571 157.73072082 C105.54611333 157.69722233 92.81110683 157.68070225 80.07607138 157.66563451 C53.87496574 157.63425234 27.67393797 157.58146342 1.47290039 157.5146637 C-0.16129734 146.24020119 -1.78488584 134.96920045 -3.13696289 123.65675354 C-3.27234467 122.53994202 -3.40772644 121.42313049 -3.54721069 120.2724762 C-3.9828537 116.67378458 -4.41524634 113.0747119 -4.84741211 109.4756012 C-5.15445822 106.93119988 -5.46166141 104.38681751 -5.76901245 101.842453 C-6.40743543 96.55318752 -7.04434424 91.26374306 -7.67993164 85.97413635 C-8.4109454 79.89051951 -9.14476072 73.80724554 -9.88006794 67.72414625 C-10.5943922 61.81418581 -11.30685995 55.90400272 -12.01848984 49.99371719 C-12.31865903 47.50194184 -12.61926264 45.01021878 -12.92032242 42.51855087 C-13.34048012 39.03876588 -13.75853134 35.55873398 -14.17602539 32.07862854 C-14.29862732 31.06648285 -14.42122925 30.05433716 -14.54754639 29.01152039 C-14.8859161 26.18046708 -15.20688684 23.347819 -15.52709961 20.5146637 C-15.65119076 19.5292522 -15.77528191 18.54384071 -15.90313339 17.52856827 C-16.01315815 16.56359798 -16.12318291 15.5986277 -16.23654175 14.60441589 C-16.34036604 13.74583292 -16.44419033 12.88724995 -16.55116081 12.00264931 C-16.51029465 7.77699044 -15.28923928 5.37097533 -12.49754333 2.23433018 C-8.2959724 -0.1980676 -4.77668705 -0.04372326 0 0 Z M94.16040039 67.9521637 C90.92968126 72.85807053 89.87093084 76.59529642 90.47290039 82.5146637 C92.44322754 88.70880592 95.78609133 92.44035625 101.47290039 95.5146637 C106.5761424 97.21574436 110.79163473 97.07987617 115.66040039 94.8271637 C120.49366139 92.18149085 123.29773379 88.53143091 125.47290039 83.5146637 C126.25826658 77.90490521 125.73495183 73.24989966 122.47290039 68.5146637 C118.10623193 64.11702595 114.59611676 61.41386144 108.22290039 61.2021637 C102.09495483 61.28187681 98.40605966 63.47700933 94.16040039 67.9521637 Z " fill="#000000" transform="translate(89.527099609375,349.48533630371094)"/>
<path d="M0 0 C0.75792847 -0.00478363 1.51585693 -0.00956726 2.29675293 -0.01449585 C3.89365727 -0.01788696 5.49063178 -0.0087395 7.08740234 0.01220703 C9.52469402 0.03899046 11.95738192 0.01243943 14.39453125 -0.01953125 C15.95053095 -0.016227 17.50652779 -0.00982045 19.0625 0 C19.78659058 -0.01012115 20.51068115 -0.02024231 21.25671387 -0.03067017 C25.05708992 0.05687161 26.87357685 0.54246292 29.91137695 2.88525391 C31.98007938 5.59698615 32.99427563 7.53717736 33.91796875 10.7890625 C34.21767578 11.74296875 34.51738281 12.696875 34.82617188 13.6796875 C35.41964454 15.66398996 35.99530704 17.65370924 36.55273438 19.6484375 C38.30335198 25.1029934 39.72963322 28.07955208 44.92578125 30.7890625 C46.6105124 31.45876929 48.31167 32.08971864 50.03125 32.6640625 C51.01222656 33.0353125 51.99320313 33.4065625 53.00390625 33.7890625 C58.95186101 33.54346953 64.08681648 29.93800301 69.24414062 27.1796875 C74.55564151 24.46483565 78.03601911 22.74987639 84.03125 24.6640625 C85.9375 25.765625 85.9375 25.765625 87.53125 27.2890625 C88.18222656 27.90394531 88.83320313 28.51882812 89.50390625 29.15234375 C90.33792969 29.98121094 91.17195312 30.81007812 92.03125 31.6640625 C92.62663574 32.24720215 93.22202148 32.8303418 93.83544922 33.43115234 C97.22010327 36.74654672 100.58977203 40.07700286 103.93359375 43.43359375 C104.50585693 44.00698486 105.07812012 44.58037598 105.66772461 45.17114258 C108.26030379 48.00974986 108.39903615 50.60799895 108.35205078 54.39501953 C107.64901102 59.3676615 104.64343777 63.59646217 102.14257812 67.86523438 C98.5094177 74.49646734 98.86256648 78.98197823 100.65234375 86.15234375 C102.48512459 90.24760046 104.22467942 92.13499001 108.40625 93.8515625 C110.27229445 94.48284728 112.1486927 95.08387254 114.03125 95.6640625 C116.51514603 96.4831915 118.99422573 97.31704334 121.46875 98.1640625 C122.64308594 98.545625 123.81742188 98.9271875 125.02734375 99.3203125 C128.38182033 100.8208846 129.27430921 101.49261652 131.03125 104.6640625 C131.34771587 107.43700272 131.4992563 109.98049279 131.5 112.75390625 C131.50761353 113.53544571 131.51522705 114.31698517 131.52307129 115.12220764 C131.53385721 116.77211316 131.5367315 118.42208686 131.53222656 120.07202148 C131.53125439 122.59019346 131.5728829 125.10531487 131.6171875 127.62304688 C131.6223951 129.22916034 131.62508268 130.83528435 131.625 132.44140625 C131.64139526 133.19050766 131.65779053 133.93960907 131.67468262 134.71141052 C131.62371935 138.58596997 131.18949764 140.4581566 128.80517578 143.56054688 C126.1461676 145.57691851 124.23110249 146.62328652 121.0546875 147.54296875 C120.136875 147.82462891 119.2190625 148.10628906 118.2734375 148.39648438 C116.85417969 148.80737305 116.85417969 148.80737305 115.40625 149.2265625 C113.5144324 149.77749046 111.62617486 150.34083178 109.7421875 150.91796875 C108.90993652 151.15845947 108.07768555 151.3989502 107.22021484 151.64672852 C103.43334775 153.40669675 102.1905109 156.35143925 100.34375 159.9765625 C98.73253156 164.50331906 98.04024183 168.18696959 99.88012695 172.78588867 C101.44132037 175.8779842 103.12864427 178.88884155 104.83203125 181.90429688 C107.6486647 187.13965841 108.85028085 190.69951721 108.03125 196.6640625 C106.51953125 199.17578125 106.51953125 199.17578125 104.34375 201.3515625 C103.53035156 202.18042969 102.71695313 203.00929688 101.87890625 203.86328125 C100.93917969 204.78753906 99.99945313 205.71179688 99.03125 206.6640625 C97.92298043 207.81371281 96.81763987 208.96619202 95.71484375 210.12109375 C94.5715551 211.30328631 93.42703274 212.48428706 92.28125 213.6640625 C91.73895752 214.22826904 91.19666504 214.79247559 90.63793945 215.3737793 C87.68154236 218.3519513 85.24381492 220.71027422 81.03125 221.6640625 C74.58690431 221.46296235 69.23971936 217.80227469 63.75195312 214.7265625 C58.72960853 212.06043198 55.75017452 211.12701499 50.03125 212.6640625 C49.20238281 212.880625 48.37351562 213.0971875 47.51953125 213.3203125 C43.37673029 214.9268565 40.73547727 216.28379129 38.84375 220.4140625 C38.20453441 222.15156669 37.60678398 223.90443811 37.03125 225.6640625 C36.32476218 227.73635689 35.60504214 229.8026446 34.86791992 231.86425781 C34.35970131 233.29194982 33.86960254 234.7262483 33.3996582 236.16699219 C32.21993052 239.5325304 31.32081204 241.44105125 28.46484375 243.640625 C26.03125 244.6640625 26.03125 244.6640625 24.03125 244.6640625 C20.15798729 227.19149857 16.60272746 209.66274638 13.15625 192.1015625 C12.9516214 191.06376648 12.7469928 190.02597046 12.53616333 188.95672607 C11.95059452 185.98348568 11.36911355 183.00947745 10.7890625 180.03515625 C10.61121719 179.13318008 10.43337189 178.23120392 10.25013733 177.30189514 C10.08912033 176.47064621 9.92810333 175.63939728 9.76220703 174.78295898 C9.62042023 174.0568895 9.47863342 173.33082001 9.33255005 172.58274841 C9.03125 170.6640625 9.03125 170.6640625 9.03125 167.6640625 C9.97484375 167.51710938 10.9184375 167.37015625 11.890625 167.21875 C25.16697341 164.89938793 36.56634418 160.78844065 45.03125 149.6640625 C52.28615383 137.90611492 55.48209255 126.47955273 53.03125 112.6640625 C50.21610163 101.06565122 43.67377744 91.56423062 33.625 85.09765625 C22.58755092 78.99713846 11.16809404 76.79175839 -1.3046875 79.34765625 C-14.36342331 83.39284305 -22.93511628 91.13385356 -29.96875 102.6640625 C-30.64288134 103.9936373 -31.31071914 105.32644611 -31.96875 106.6640625 C-38.52400209 106.07928099 -44.61518314 104.89872599 -50.96484375 103.1953125 C-51.87959976 102.95494263 -52.79435577 102.71457275 -53.73683167 102.46691895 C-55.65273692 101.96221759 -57.56784653 101.4544869 -59.48217773 100.94384766 C-62.42061822 100.16023081 -65.36140806 99.38598805 -68.30273438 98.61328125 C-70.16941315 98.12033027 -72.03595473 97.62685939 -73.90234375 97.1328125 C-74.78248642 96.90049927 -75.66262909 96.66818604 -76.56944275 96.42883301 C-77.38111404 96.21190796 -78.19278534 95.99498291 -79.02905273 95.77148438 C-79.74359116 95.58130737 -80.45812958 95.39113037 -81.19432068 95.19519043 C-82.96875 94.6640625 -82.96875 94.6640625 -84.96875 93.6640625 C-83.84579686 90.81348915 -82.67427647 88.05246364 -81.34375 85.2890625 C-79.63677141 80.78884622 -78.9753365 77.14673935 -80.81787109 72.54199219 C-82.37888326 69.44992187 -84.06619612 66.43919167 -85.76953125 63.42382812 C-88.58876479 58.18363372 -89.68932728 54.63273798 -88.96875 48.6640625 C-87.96484375 46.66015625 -87.96484375 46.66015625 -86.40625 45.1015625 C-85.77976562 44.45832031 -85.15328125 43.81507813 -84.5078125 43.15234375 C-83.66992188 42.33121094 -82.83203125 41.51007813 -81.96875 40.6640625 C-80.74541806 39.40947755 -79.52425745 38.15277351 -78.3046875 36.89453125 C-76.964947 35.52466583 -75.62378336 34.1561909 -74.28125 32.7890625 C-73.62761475 32.12189209 -72.97397949 31.45472168 -72.30053711 30.76733398 C-71.67155518 30.13770752 -71.04257324 29.50808105 -70.39453125 28.859375 C-69.83161377 28.29234863 -69.26869629 27.72532227 -68.6887207 27.14111328 C-65.47047571 24.37739686 -63.58382726 23.64969764 -59.2890625 23.75 C-53.44113315 24.66822513 -48.59901781 27.74353665 -43.50390625 30.6015625 C-40.21172214 32.36262861 -37.80721014 33.63946767 -34.0390625 33.75 C-33.02585937 33.39164063 -32.01265625 33.03328125 -30.96875 32.6640625 C-30.16397217 32.39674316 -29.35919434 32.12942383 -28.5300293 31.85400391 C-24.59763295 30.28363744 -21.7597973 28.94948154 -19.49755859 25.2734375 C-18.37547224 22.43142773 -17.47853144 19.60655909 -16.65625 16.6640625 C-16.06933565 14.70168803 -15.46942086 12.74314664 -14.85546875 10.7890625 C-14.61014404 9.92539063 -14.36481934 9.06171875 -14.11206055 8.171875 C-11.05994399 1.47716195 -7.00297139 -0.09788576 0 0 Z " fill="#000000" transform="translate(380.96875,186.3359375)"/>
</svg>
