<?xml version="1.0" encoding="UTF-8"?>
<svg version="1.1" xmlns="http://www.w3.org/2000/svg" width="512" height="512">
<path d="M0 0 C3.32864485 2.76340327 4.88036818 4.76854886 6.86328125 8.734375 C6.86328125 15.664375 6.86328125 22.594375 6.86328125 29.734375 C54.38328125 29.734375 101.90328125 29.734375 150.86328125 29.734375 C150.86328125 22.804375 150.86328125 15.874375 150.86328125 8.734375 C157.0670856 -0.57133152 157.0670856 -0.57133152 162.16015625 -1.8359375 C167.84259238 -2.64525416 171.83155679 -2.32412418 176.86328125 0.734375 C179.8013005 3.60371328 182.75309803 6.64302639 182.97680664 10.88916016 C182.97156982 11.75847168 182.96633301 12.6277832 182.9609375 13.5234375 C182.95771484 14.46445312 182.95449219 15.40546875 182.95117188 16.375 C182.94279297 17.35984375 182.93441406 18.3446875 182.92578125 19.359375 C182.92126953 20.35195313 182.91675781 21.34453125 182.91210938 22.3671875 C182.9003027 24.8229766 182.88383525 27.27864604 182.86328125 29.734375 C183.71539185 29.71080933 183.71539185 29.71080933 184.5847168 29.68676758 C202.38128735 29.26042701 216.01778575 30.60511338 231.05078125 40.921875 C244.24808631 54.11918006 248.92883844 70.55580056 249.25246334 88.8400526 C248.78784578 107.94282378 235.67127192 119.17937306 222.69960022 131.73518372 C220.09120804 134.20879962 217.4723535 136.67089311 214.85101056 139.13077569 C210.33004274 143.41151893 205.91240291 147.79647259 201.48265076 152.17118835 C193.09282167 160.42714666 184.62015236 168.59199464 176.11094278 176.72467059 C163.63678732 188.65221598 151.30047619 200.72079025 138.95673275 212.78309155 C137.12633037 214.57130119 135.29585893 216.35944016 133.46531677 218.14750671 C132.57102791 219.02128674 131.67673905 219.89506677 130.75535053 220.79532498 C125.47315615 225.95070756 120.16857285 231.08157531 114.84159005 236.19065917 C111.52277591 239.37573666 108.21360307 242.57072773 104.90548134 245.76690483 C103.38049171 247.23506653 101.85090644 248.69847353 100.31619644 250.15647125 C83.29185009 266.33466172 74.11623709 282.84767996 68.60498047 305.68701172 C68.06892536 307.88946064 67.51936244 310.08863679 66.96142578 312.28564453 C60.79520309 336.63678795 55.65737015 360.20096364 69.18359375 383.1484375 C78.90548081 398.11562177 92.71657557 408.39675755 110.3293457 412.16870117 C125.01005391 414.5186287 138.74527805 411.75669827 153.01489258 408.30932617 C156.18409013 407.54487078 159.35941457 406.81222138 162.53710938 406.08398438 C192.28616615 399.15707296 210.9593159 386.06666883 232.11328125 364.546875 C234.08223873 362.55025687 236.05270653 360.55518367 238.02606201 358.56291199 C239.24080216 357.33593721 240.45285903 356.10629879 241.66192627 354.87373352 C243.04368043 353.47522354 244.45082506 352.10186988 245.86328125 350.734375 C246.19328125 350.734375 246.52328125 350.734375 246.86328125 350.734375 C246.95653493 358.10654353 247.02732368 365.47858199 247.07052994 372.85122395 C247.09128156 376.27578587 247.11936628 379.69994017 247.16503906 383.12426758 C247.21737722 387.07367843 247.23632919 391.02293229 247.25390625 394.97265625 C247.27455139 396.18456131 247.29519653 397.39646637 247.31646729 398.64509583 C247.31989492 411.80968294 242.68464262 423.64835613 233.73828125 433.421875 C223.03658423 443.3928394 210.24092649 447.21223158 195.90921021 447.12205505 C194.86359448 447.12744059 193.81797876 447.13282613 192.74067771 447.13837487 C189.26726263 447.15258333 185.79423249 447.1455682 182.32080078 447.13842773 C179.81813249 447.14413501 177.31546679 447.15110066 174.81280518 447.15922546 C168.73855642 447.17527585 162.66445663 447.17726547 156.59020127 447.17201256 C151.64920308 447.16795876 146.70823537 447.16942872 141.76723862 447.17476082 C141.06198993 447.17550924 140.35674124 447.17625766 139.63012137 447.17702876 C138.19706075 447.17856036 136.76400013 447.18009871 135.33093952 447.18164373 C121.91452309 447.19534805 108.49816509 447.18994573 95.08175002 447.17845852 C82.8306394 447.16852893 70.57967987 447.1814657 58.32859255 447.20539271 C45.72287752 447.2298252 33.11723274 447.23938137 20.51149452 447.23273998 C13.44485509 447.22925688 6.37833177 447.23141942 -0.68828964 447.24899101 C-7.3351959 447.26531517 -13.98186158 447.26046699 -20.62877655 447.24168587 C-23.06151145 447.23800928 -25.49426782 447.24108113 -27.92698288 447.25157166 C-46.26797886 447.32459569 -61.28631099 446.36791625 -75.609375 433.515625 C-83.68598052 425.20980029 -89.25051914 414.66644683 -89.27093983 402.96579742 C-89.27539767 401.78087912 -89.27985551 400.59596082 -89.28444844 399.3751359 C-89.28426408 398.07205028 -89.28407972 396.76896466 -89.28388977 395.4263916 C-89.28718956 394.02905853 -89.29091537 392.63172641 -89.29503125 391.2343955 C-89.30504651 387.39006372 -89.30876729 383.54574755 -89.31142056 379.70140457 C-89.31532509 375.55668729 -89.32490341 371.41198235 -89.33363342 367.26727295 C-89.35339494 357.25470754 -89.36346422 347.24214113 -89.37236121 337.22956109 C-89.37674514 332.51312205 -89.38211172 327.79668413 -89.38735008 323.08024597 C-89.40436301 307.39886966 -89.41885639 291.71749405 -89.42609882 276.03610992 C-89.42800869 271.96678161 -89.42992902 267.8974533 -89.43188477 263.828125 C-89.43236851 262.81672571 -89.43285225 261.80532642 -89.43335065 260.76327866 C-89.44164795 244.3854267 -89.46697953 228.00764785 -89.49946544 211.6298278 C-89.53255465 194.81053718 -89.55054932 177.99128369 -89.55374306 161.17196035 C-89.55590657 151.7304236 -89.56463177 142.28899341 -89.59020424 132.8474884 C-89.61193677 124.80516004 -89.61994915 116.76296413 -89.61023746 108.72060972 C-89.60569997 104.61985214 -89.60754657 100.5193677 -89.6269989 96.41864777 C-89.64468348 92.65796474 -89.64359049 88.89775304 -89.62810161 85.13706464 C-89.62461923 83.14587546 -89.6407123 81.15468104 -89.65770608 79.16356134 C-89.56234826 65.76395514 -85.72044253 54.99335251 -76.69921875 45.046875 C-75.85359375 44.28375 -75.00796875 43.520625 -74.13671875 42.734375 C-73.40388672 42.01314453 -73.40388672 42.01314453 -72.65625 41.27734375 C-62.16060081 31.42988192 -48.87624947 29.35623048 -35.01171875 29.609375 C-34.05523437 29.61839844 -33.09875 29.62742187 -32.11328125 29.63671875 C-29.7874835 29.65997673 -27.46224581 29.69265287 -25.13671875 29.734375 C-25.15766602 29.12964355 -25.17861328 28.52491211 -25.20019531 27.90185547 C-25.2838082 25.13786729 -25.33551929 22.37414587 -25.38671875 19.609375 C-25.42023438 18.65804687 -25.45375 17.70671875 -25.48828125 16.7265625 C-25.57000461 10.84248069 -25.15729909 7.36391185 -21.13671875 2.734375 C-15.23107767 -2.728343 -7.25386165 -4.29662006 0 0 Z M132.86328125 106.734375 C130.64563741 109.3907179 128.47461297 112.07955212 126.3125 114.78125 C123.60536757 118.04535226 120.76269583 121.14203099 117.86328125 124.234375 C114.21419709 128.12993389 110.70627833 132.06774096 107.36328125 136.234375 C103.54334114 140.99545978 99.47389306 145.44710525 95.3046875 149.8984375 C92.18759571 153.24554369 89.22747012 156.66451641 86.36328125 160.234375 C82.54334114 164.99545978 78.47389306 169.44710525 74.3046875 173.8984375 C71.18759571 177.24554369 68.22747012 180.66451641 65.36328125 184.234375 C61.55059428 188.98641963 57.49713842 193.43903134 53.32226562 197.86987305 C49.17977268 202.29752797 45.45064367 206.93941087 41.80078125 211.78515625 C41.16140625 212.42839844 40.52203125 213.07164062 39.86328125 213.734375 C35.86328125 213.734375 35.86328125 213.734375 33.40382385 211.73574829 C32.48624802 210.80024139 31.56867218 209.8647345 30.62329102 208.90087891 C30.11379913 208.38715225 29.60430725 207.8734256 29.07937622 207.34413147 C27.97434971 206.22723134 26.87399929 205.10568995 25.77780342 203.98012161 C24.04187665 202.19778415 22.29417721 200.42779322 20.54295349 198.66049194 C16.82590285 194.90452924 13.12556443 191.13233465 9.42578125 187.359375 C5.14136123 182.99457004 0.85027214 178.63655234 -3.45244026 174.28977585 C-5.17229501 172.5467649 -6.88240601 170.79458046 -8.59214783 169.04165649 C-9.6501263 167.96957946 -10.70850085 166.8978931 -11.76733398 165.82666016 C-12.68570541 164.88956207 -13.60407684 163.95246399 -14.55027771 162.98696899 C-17.63329531 160.30189447 -20.24512012 158.92794973 -24.3125 158.51171875 C-30.19631918 158.95273628 -33.32248907 160.95126399 -37.60546875 164.9453125 C-40.14019699 167.90680621 -40.33950951 170.78788993 -40.44921875 174.546875 C-40.48660156 175.37832031 -40.52398437 176.20976562 -40.5625 177.06640625 C-39.55523031 183.37801359 -34.16280497 188.00140815 -29.81103516 192.3347168 C-29.18610672 192.96475616 -28.56117828 193.59479553 -27.91731262 194.243927 C-25.86275365 196.31231672 -23.80092033 198.37326378 -21.73828125 200.43359375 C-20.30083623 201.87492845 -18.86361427 203.31648564 -17.42660522 204.758255 C-14.4189848 207.77332302 -11.40753655 210.78450456 -8.39355469 213.79321289 C-4.53606552 217.64490072 -0.69007753 221.50785 3.15289879 225.37401104 C6.11596321 228.35181936 9.08593854 231.32265906 12.05794144 234.29154396 C13.47881806 235.71293317 14.89733963 237.13668072 16.31342697 238.56284142 C18.29478388 240.55656154 20.28548393 242.54047167 22.27880859 244.5222168 C22.85875076 245.1098027 23.43869293 245.69738861 24.03620911 246.30278015 C28.48880928 250.69853167 32.40540386 253.46127751 38.80078125 254.171875 C46.08663166 253.78623452 50.00230085 249.78790321 54.73828125 244.671875 C58.77013919 240.08745822 62.61790247 235.36910274 66.44921875 230.6171875 C69.64037691 226.80638698 73.02458128 223.19753727 76.42138672 219.57080078 C79.53867461 216.22355715 82.49894607 212.80441594 85.36328125 209.234375 C89.18322136 204.47329022 93.25266944 200.02164475 97.421875 195.5703125 C100.53896679 192.22320631 103.49909238 188.80423359 106.36328125 185.234375 C110.18322136 180.47329022 114.25266944 176.02164475 118.421875 171.5703125 C121.53896679 168.22320631 124.49909238 164.80423359 127.36328125 161.234375 C130.70630084 157.0677129 134.21443262 153.13017688 137.86328125 149.234375 C142.31329051 144.48281217 146.48803763 139.59228003 150.55859375 134.5078125 C153.63976408 130.79996346 156.90875804 127.28167919 160.23461914 123.79272461 C165.16063505 118.55161555 166.28619041 115.22623051 166.109375 108.1328125 C165.62488232 103.41093144 163.40166047 101.28527467 160.17578125 97.984375 C149.51750242 89.64770146 140.07377911 98.68204237 132.86328125 106.734375 Z M-55.13671875 294.734375 C-56.99278832 300.30258372 -57.04824791 305.76547202 -54.57421875 311.109375 C-50.77363098 315.20231568 -47.08556525 317.45380098 -41.60864258 318.24230957 C-40.36622803 318.24549194 -39.12381348 318.24867432 -37.84375 318.25195312 C-37.15171478 318.2589624 -36.45967957 318.26597168 -35.74667358 318.27319336 C-33.48043568 318.29066391 -31.21546726 318.27919117 -28.94921875 318.265625 C-27.36173261 318.2683231 -25.77424809 318.27220816 -24.18676758 318.27722168 C-20.86816594 318.28310186 -17.5499965 318.27460209 -14.23144531 318.25585938 C-9.99123223 318.23307019 -5.75203206 318.24620131 -1.51185608 318.27014923 C1.76370792 318.28464764 5.0390343 318.27998285 8.31460571 318.26963806 C9.87741213 318.26698191 11.44024057 318.27020119 13.00302124 318.27955627 C15.19269426 318.28978949 17.38075842 318.27413002 19.5703125 318.25195312 C21.43393433 318.24717957 21.43393433 318.24717957 23.33520508 318.24230957 C28.81212775 317.45380098 32.50019348 315.20231568 36.30078125 311.109375 C38.41990205 306.53207408 38.66351287 302.69742768 37.86328125 297.734375 C35.65085686 293.30952622 32.91528509 290.53960843 28.86328125 287.734375 C25.44513712 286.59499362 22.79754717 286.5934408 19.19213867 286.57324219 C18.18181328 286.56579483 18.18181328 286.56579483 17.15107727 286.55819702 C14.92362443 286.54359711 12.69624283 286.53677666 10.46875 286.53125 C8.91799417 286.52549626 7.36723835 286.51973856 5.81648254 286.51397705 C2.56409372 286.5034729 -0.68827043 286.49762657 -3.94067383 286.49414062 C-8.10018184 286.48866051 -12.25936175 286.46464058 -16.41876698 286.43616867 C-19.62303101 286.41750711 -22.8272166 286.4123348 -26.03153038 286.41080475 C-27.56447834 286.40778506 -29.09742515 286.39977962 -30.6303196 286.38661957 C-32.7795947 286.36948662 -34.92807612 286.37145656 -37.07739258 286.37792969 C-38.90914787 286.37246124 -38.90914787 286.37246124 -40.77790833 286.36688232 C-47.08670535 287.05713762 -51.03122528 290.04238246 -55.13671875 294.734375 Z M-55.13671875 358.734375 C-56.99278832 364.30258372 -57.04824791 369.76547202 -54.57421875 375.109375 C-49.92508911 380.11613 -46.05677074 381.93944632 -39.3125 382.25195312 C-37.02488586 382.27822149 -34.73692863 382.28149981 -32.44921875 382.265625 C-30.6245105 382.27136536 -30.6245105 382.27136536 -28.76293945 382.27722168 C-26.19774546 382.27993678 -23.63252359 382.27260395 -21.06738281 382.25585938 C-17.14976037 382.23444628 -13.23397191 382.25567714 -9.31640625 382.28125 C-6.81900638 382.27860666 -4.32160766 382.27348155 -1.82421875 382.265625 C-0.65737549 382.27372192 0.50946777 382.28181885 1.71166992 382.29016113 C8.31909617 382.21428893 12.51355391 381.72109121 17.86328125 377.734375 C21.14686573 374.1982071 22.14366384 371.45260706 22.36328125 366.734375 C22.15852105 362.03195099 21.02763436 359.3263434 17.86328125 355.734375 C13.50727376 351.80334385 10.4676708 350.61566788 4.66088867 350.57324219 C3.06859688 350.55883087 3.06859688 350.55883087 1.44413757 350.54412842 C0.29725967 350.53987854 -0.84961823 350.53562866 -2.03125 350.53125 C-3.21136154 350.52554993 -4.39147308 350.51984985 -5.60734558 350.51397705 C-8.1064667 350.50452464 -10.6056003 350.49799212 -13.10473633 350.49414062 C-16.92356176 350.48444017 -20.7418479 350.45342024 -24.56054688 350.421875 C-26.98827805 350.4153444 -29.41601308 350.41009415 -31.84375 350.40625 C-32.98455521 350.3939032 -34.12536041 350.3815564 -35.30073547 350.36883545 C-44.08484335 350.39345016 -49.18402124 351.93129214 -55.13671875 358.734375 Z " fill="#000000" transform="translate(121.13671875,33.265625)"/>
<path d="M0 0 C2.23238125 1.05681454 3.60585438 2.21259593 5.34870243 3.96398735 C6.00209095 4.61325188 6.65547947 5.2625164 7.32866764 5.93145561 C8.0342934 6.6478672 8.73991917 7.36427879 9.46692753 8.10239983 C10.21853657 8.85357079 10.97014561 9.60474174 11.74453068 10.37867546 C14.22981004 12.86604667 16.70429178 15.36387936 19.17884159 17.86192131 C20.89882935 19.58750358 22.61948016 21.31242517 24.34076786 23.03671074 C28.87163391 27.5790368 33.39341925 32.13029972 37.9133997 36.68345451 C42.52639871 41.32712923 47.14789099 45.96233389 51.76868534 50.59824944 C60.83563156 59.69738024 69.89330279 68.80568629 78.94446659 77.92051506 C77.42867387 81.47650726 75.34988775 83.77097842 72.63318729 86.49921989 C71.72774677 87.41319038 70.82230625 88.32716087 69.88942814 89.26882744 C68.88314292 90.27441364 67.87674571 91.27988779 66.87024784 92.28526115 C65.81189918 93.34959557 64.75396157 94.41433884 63.69640446 95.47945976 C60.82273456 98.37079947 57.94260255 101.25561768 55.0607233 104.13877249 C53.25811076 105.94280749 51.45693029 107.74825953 49.65625858 109.55423164 C43.3669324 115.86206662 37.07245368 122.16470675 30.77307987 128.46250725 C24.91437028 134.32001763 19.06688116 140.18856361 13.22460938 146.06246507 C8.19978197 151.11351797 3.16719774 156.15675394 -1.87139702 161.19407332 C-4.87661371 164.1987819 -7.87869502 167.20646184 -10.87300777 170.22204018 C-13.69423635 173.06275495 -16.52507371 175.89354231 -19.36328602 178.71728516 C-20.39784342 179.74976567 -21.42906158 180.78560589 -22.45647526 181.82519531 C-30.68205376 190.14182629 -38.74565692 196.72627324 -50.30553341 199.35801506 C-51.08565792 199.54774895 -51.86578243 199.73748283 -52.66954708 199.93296623 C-54.4421349 200.36091356 -56.21660815 200.78110022 -57.99254513 201.19492912 C-61.49285443 202.02411127 -64.97825794 202.90596616 -68.46568966 203.78770256 C-70.44450986 204.27781202 -72.42410942 204.76456877 -74.40428829 205.24915886 C-76.31204905 205.71922082 -78.21657158 206.20236482 -80.1209631 206.68589592 C-91.76950946 209.47414475 -104.33972348 211.43094146 -115.05553341 204.92051506 C-122.55207296 199.61459427 -127.64211685 193.86186018 -130.05553341 184.92051506 C-131.29656434 172.92741092 -128.96444562 161.71914354 -126.16759396 150.11094475 C-125.49356497 147.29773365 -124.85794204 144.47769584 -124.22545528 141.65489006 C-119.20470028 119.89040543 -109.38437185 107.12933491 -93.73400021 91.40611076 C-92.73408243 90.39826557 -91.73433681 89.39024953 -90.73474789 88.38207817 C-87.49505023 85.11652981 -84.25022922 81.85609939 -81.00475216 78.59629631 C-79.88143993 77.4676147 -78.75813178 76.33892904 -77.63482761 75.21023941 C-72.96744263 70.52130678 -68.29865625 65.83377705 -63.62615395 61.14994335 C-56.9494675 54.45694738 -50.28148912 47.75553035 -43.62502831 41.04241687 C-38.92780865 36.3065882 -34.22112826 31.58029748 -29.5072158 26.86108464 C-26.69633971 24.04655135 -23.88982298 21.22796755 -21.09335041 18.39911652 C-18.47178187 15.74761606 -15.83875369 13.10807374 -13.19627094 10.47742081 C-12.22762569 9.50899733 -11.2632755 8.53625648 -10.30352306 7.55901909 C-8.99666766 6.22965235 -7.67292307 4.9169509 -6.34830379 3.60528374 C-5.61149726 2.86516706 -4.87469072 2.12505037 -4.11555672 1.36250591 C-2.05553341 -0.07948494 -2.05553341 -0.07948494 0 0 Z " fill="#000000" transform="translate(342.05553340911865,207.0794849395752)"/>
<path d="M0 0 C3.90513314 3.28960882 7.52853859 6.82476096 11.12915039 10.44165039 C11.8574707 11.15385742 12.58579102 11.86606445 13.33618164 12.59985352 C23.81819395 23.07235402 28.73800633 34.11206844 28.87915039 49.00415039 C28.66221234 68.16938245 19.31075734 79.58637042 6.16992188 92.43969727 C5.59959229 92.9972168 5.0292627 93.55473633 4.44165039 94.12915039 C3.26842211 95.28729361 2.09589081 96.44614332 0.92407227 97.60571289 C-1.91627956 100.41338753 -4.76584276 103.21138237 -7.62084961 106.00415039 C-10.58919226 104.66642566 -12.68628928 103.19363574 -14.99385071 100.90530396 C-15.64027023 100.26885956 -16.28668976 99.63241516 -16.95269775 98.97668457 C-17.65054382 98.27950317 -18.34838989 97.58232178 -19.06738281 96.86401367 C-19.81084457 96.12887543 -20.55430634 95.39373718 -21.32029724 94.63632202 C-23.77622533 92.20449246 -26.22442329 89.76506607 -28.67163086 87.32446289 C-30.37217023 85.63288657 -32.07278876 83.94138983 -33.77348328 82.24996948 C-37.33547198 78.70447058 -40.89304269 75.1546008 -44.44824219 71.60229492 C-49.01440425 67.04153106 -53.59651787 62.4971583 -58.18272114 57.95656013 C-61.69887451 54.47007262 -65.20379681 50.97246151 -68.70564842 47.47161484 C-70.39094956 45.79053314 -72.08039215 44.11359305 -73.77395058 42.44083023 C-76.13498762 40.10650137 -78.4798707 37.7570596 -80.82128906 35.40307617 C-81.52925629 34.70994324 -82.23722351 34.0168103 -82.96664429 33.30267334 C-83.91512489 32.33954727 -83.91512489 32.33954727 -84.88276672 31.35696411 C-85.7170317 30.52571612 -85.7170317 30.52571612 -86.56815052 29.67767525 C-87.62084961 28.00415039 -87.62084961 28.00415039 -87.42685223 25.95472527 C-86.17263692 22.9194487 -83.91721149 20.85314029 -81.62475586 18.57446289 C-81.11718246 18.06164764 -80.60960907 17.5488324 -80.08665466 17.02047729 C-79.00849627 15.93589976 -77.92644358 14.85518159 -76.84082031 13.77807617 C-75.20806573 12.15373909 -73.59468539 10.51183831 -71.98217773 8.86743164 C-52.04863727 -11.20421959 -23.7132062 -18.88369261 0 0 Z " fill="#000000" transform="translate(451.620849609375,157.995849609375)"/>
</svg>
