<?xml version="1.0" encoding="UTF-8"?>
<svg version="1.1" xmlns="http://www.w3.org/2000/svg" width="512" height="512">
<path d="M0 0 C4.5815323 2.17019951 6.89150061 4.43064252 9 9 C9.40390175 12.22992727 9.34933902 15.42513209 9.29296875 18.67578125 C9.28872391 19.6009404 9.28447906 20.52609955 9.28010559 21.47929382 C9.26335993 24.4239963 9.22571522 27.3680056 9.1875 30.3125 C9.17244785 32.31314113 9.15876037 34.31379303 9.14648438 36.31445312 C9.11602609 41.21011505 9.05729706 46.10428483 9 51 C18.9 51 28.8 51 39 51 C38.95359375 48.03773437 38.9071875 45.07546875 38.859375 42.0234375 C38.82815087 39.14406039 38.80387934 36.26470237 38.78027344 33.38525391 C38.76019831 31.38907382 38.73293211 29.39295225 38.69824219 27.39697266 C38.64954343 24.5223138 38.62699014 21.6484346 38.609375 18.7734375 C38.58872986 17.88570648 38.56808472 16.99797546 38.54681396 16.08334351 C38.54482316 10.54552669 39.28297961 7.38258961 43 3 C48.22259857 -1.05630398 53.65340142 -0.77397544 60 0 C64.5815323 2.17019951 66.89150061 4.43064252 69 9 C69.40390175 12.22992727 69.34933902 15.42513209 69.29296875 18.67578125 C69.28872391 19.6009404 69.28447906 20.52609955 69.28010559 21.47929382 C69.26335993 24.4239963 69.22571522 27.3680056 69.1875 30.3125 C69.17244785 32.31314113 69.15876037 34.31379303 69.14648438 36.31445312 C69.11602609 41.21011505 69.05729706 46.10428483 69 51 C78.9 51 88.8 51 99 51 C98.95359375 48.03773437 98.9071875 45.07546875 98.859375 42.0234375 C98.82815087 39.14406039 98.80387934 36.26470237 98.78027344 33.38525391 C98.76019831 31.38907382 98.73293211 29.39295225 98.69824219 27.39697266 C98.64954343 24.5223138 98.62699014 21.6484346 98.609375 18.7734375 C98.58872986 17.88570648 98.56808472 16.99797546 98.54681396 16.08334351 C98.54482316 10.54552669 99.28297961 7.38258961 103 3 C108.22259857 -1.05630398 113.65340142 -0.77397544 120 0 C124.5815323 2.17019951 126.89150061 4.43064252 129 9 C129.40390175 12.22992727 129.34933902 15.42513209 129.29296875 18.67578125 C129.28872391 19.6009404 129.28447906 20.52609955 129.28010559 21.47929382 C129.26335993 24.4239963 129.22571522 27.3680056 129.1875 30.3125 C129.17244785 32.31314113 129.15876037 34.31379303 129.14648438 36.31445312 C129.11602609 41.21011505 129.05729706 46.10428483 129 51 C138.9 51 148.8 51 159 51 C158.95359375 48.03773437 158.9071875 45.07546875 158.859375 42.0234375 C158.82815087 39.14406039 158.80387934 36.26470237 158.78027344 33.38525391 C158.76019831 31.38907382 158.73293211 29.39295225 158.69824219 27.39697266 C158.64954343 24.5223138 158.62699014 21.6484346 158.609375 18.7734375 C158.58872986 17.88570648 158.56808472 16.99797546 158.54681396 16.08334351 C158.54482316 10.54552669 159.28297961 7.38258961 163 3 C168.22259857 -1.05630398 173.65340142 -0.77397544 180 0 C184.5815323 2.17019951 186.89150061 4.43064252 189 9 C189.40390175 12.22992727 189.34933902 15.42513209 189.29296875 18.67578125 C189.28872391 19.6009404 189.28447906 20.52609955 189.28010559 21.47929382 C189.26335993 24.4239963 189.22571522 27.3680056 189.1875 30.3125 C189.17244785 32.31314113 189.15876037 34.31379303 189.14648438 36.31445312 C189.11602609 41.21011505 189.05729706 46.10428483 189 51 C198.9 51 208.8 51 219 51 C218.95359375 48.03773437 218.9071875 45.07546875 218.859375 42.0234375 C218.82815087 39.14406039 218.80387934 36.26470237 218.78027344 33.38525391 C218.76019831 31.38907382 218.73293211 29.39295225 218.69824219 27.39697266 C218.64954343 24.5223138 218.62699014 21.6484346 218.609375 18.7734375 C218.58872986 17.88570648 218.56808472 16.99797546 218.54681396 16.08334351 C218.54482316 10.54552669 219.28297961 7.38258961 223 3 C228.22259857 -1.05630398 233.65340142 -0.77397544 240 0 C244.5815323 2.17019951 246.89150061 4.43064252 249 9 C249.40390175 12.22992727 249.34933902 15.42513209 249.29296875 18.67578125 C249.28872391 19.6009404 249.28447906 20.52609955 249.28010559 21.47929382 C249.26335993 24.4239963 249.22571522 27.3680056 249.1875 30.3125 C249.17244785 32.31314113 249.15876037 34.31379303 249.14648438 36.31445312 C249.11602609 41.21011505 249.05729706 46.10428483 249 51 C258.9 51 268.8 51 279 51 C278.95359375 48.03773437 278.9071875 45.07546875 278.859375 42.0234375 C278.82815087 39.14406039 278.80387934 36.26470237 278.78027344 33.38525391 C278.76019831 31.38907382 278.73293211 29.39295225 278.69824219 27.39697266 C278.64954343 24.5223138 278.62699014 21.6484346 278.609375 18.7734375 C278.58872986 17.88570648 278.56808472 16.99797546 278.54681396 16.08334351 C278.54482316 10.54552669 279.28297961 7.38258961 283 3 C288.22259857 -1.05630398 293.65340142 -0.77397544 300 0 C304.5815323 2.17019951 306.89150061 4.43064252 309 9 C309.40390175 12.22992727 309.34933902 15.42513209 309.29296875 18.67578125 C309.28872391 19.6009404 309.28447906 20.52609955 309.28010559 21.47929382 C309.26335993 24.4239963 309.22571522 27.3680056 309.1875 30.3125 C309.17244785 32.31314113 309.15876037 34.31379303 309.14648438 36.31445312 C309.11346983 41.20990107 309.06171575 46.10483315 309 51 C310.3614917 50.9685791 310.3614917 50.9685791 311.75048828 50.93652344 C315.13877642 50.86809067 318.5263235 50.81807705 321.91503906 50.78027344 C323.37772252 50.76023668 324.84032666 50.73299896 326.30273438 50.69824219 C328.4129601 50.64936775 330.52212136 50.62695341 332.6328125 50.609375 C334.53377686 50.5779541 334.53377686 50.5779541 336.47314453 50.54589844 C341.64431403 51.21171425 344.60547635 53.27577831 347.85668945 57.2956543 C349.32679521 60.77298964 349.33952736 63.49828375 349.29296875 67.26953125 C349.28872391 67.95053391 349.28447906 68.63153656 349.28010559 69.33317566 C349.2634061 71.49336459 349.22577312 73.65259642 349.1875 75.8125 C349.17244174 77.28318958 349.15875534 78.75389389 349.14648438 80.22460938 C349.11353214 83.81671357 349.06181173 87.40826326 349 91 C350.24088379 90.97905273 351.48176758 90.95810547 352.76025391 90.93652344 C357.37829989 90.8639463 361.99629577 90.81813579 366.61474609 90.78027344 C368.61092618 90.76019831 370.60704775 90.73293211 372.60302734 90.69824219 C375.4776862 90.64954343 378.3515654 90.62699014 381.2265625 90.609375 C382.55815903 90.57840729 382.55815903 90.57840729 383.91665649 90.54681396 C389.45447331 90.54482316 392.61741039 91.28297961 397 95 C401.05630398 100.22259857 400.77397544 105.65340142 400 112 C397.82980049 116.5815323 395.56935748 118.89150061 391 121 C387.77007273 121.40390175 384.57486791 121.34933902 381.32421875 121.29296875 C380.3990596 121.28872391 379.47390045 121.28447906 378.52070618 121.28010559 C375.5760037 121.26335993 372.6319944 121.22571522 369.6875 121.1875 C367.68685887 121.17244785 365.68620697 121.15876037 363.68554688 121.14648438 C358.78988495 121.11602609 353.89571517 121.05729706 349 121 C349 130.9 349 140.8 349 151 C351.96226562 150.95359375 354.92453125 150.9071875 357.9765625 150.859375 C360.85593961 150.82815087 363.73529763 150.80387934 366.61474609 150.78027344 C368.61092618 150.76019831 370.60704775 150.73293211 372.60302734 150.69824219 C375.4776862 150.64954343 378.3515654 150.62699014 381.2265625 150.609375 C382.55815903 150.57840729 382.55815903 150.57840729 383.91665649 150.54681396 C389.45447331 150.54482316 392.61741039 151.28297961 397 155 C401.05630398 160.22259857 400.77397544 165.65340142 400 172 C397.82980049 176.5815323 395.56935748 178.89150061 391 181 C387.77007273 181.40390175 384.57486791 181.34933902 381.32421875 181.29296875 C380.3990596 181.28872391 379.47390045 181.28447906 378.52070618 181.28010559 C375.5760037 181.26335993 372.6319944 181.22571522 369.6875 181.1875 C367.68685887 181.17244785 365.68620697 181.15876037 363.68554688 181.14648438 C358.78988495 181.11602609 353.89571517 181.05729706 349 181 C349 190.9 349 200.8 349 211 C351.96226562 210.95359375 354.92453125 210.9071875 357.9765625 210.859375 C360.85593961 210.82815087 363.73529763 210.80387934 366.61474609 210.78027344 C368.61092618 210.76019831 370.60704775 210.73293211 372.60302734 210.69824219 C375.4776862 210.64954343 378.3515654 210.62699014 381.2265625 210.609375 C382.55815903 210.57840729 382.55815903 210.57840729 383.91665649 210.54681396 C389.45447331 210.54482316 392.61741039 211.28297961 397 215 C401.05630398 220.22259857 400.77397544 225.65340142 400 232 C397.82980049 236.5815323 395.56935748 238.89150061 391 241 C387.77007273 241.40390175 384.57486791 241.34933902 381.32421875 241.29296875 C380.3990596 241.28872391 379.47390045 241.28447906 378.52070618 241.28010559 C375.5760037 241.26335993 372.6319944 241.22571522 369.6875 241.1875 C367.68685887 241.17244785 365.68620697 241.15876037 363.68554688 241.14648438 C358.78988495 241.11602609 353.89571517 241.05729706 349 241 C349 250.9 349 260.8 349 271 C351.96226562 270.95359375 354.92453125 270.9071875 357.9765625 270.859375 C360.85593961 270.82815087 363.73529763 270.80387934 366.61474609 270.78027344 C368.61092618 270.76019831 370.60704775 270.73293211 372.60302734 270.69824219 C375.4776862 270.64954343 378.3515654 270.62699014 381.2265625 270.609375 C382.55815903 270.57840729 382.55815903 270.57840729 383.91665649 270.54681396 C389.45447331 270.54482316 392.61741039 271.28297961 397 275 C401.05630398 280.22259857 400.77397544 285.65340142 400 292 C397.82980049 296.5815323 395.56935748 298.89150061 391 301 C387.77007273 301.40390175 384.57486791 301.34933902 381.32421875 301.29296875 C380.3990596 301.28872391 379.47390045 301.28447906 378.52070618 301.28010559 C375.5760037 301.26335993 372.6319944 301.22571522 369.6875 301.1875 C367.68685887 301.17244785 365.68620697 301.15876037 363.68554688 301.14648438 C358.78988495 301.11602609 353.89571517 301.05729706 349 301 C349 310.9 349 320.8 349 331 C351.96226562 330.95359375 354.92453125 330.9071875 357.9765625 330.859375 C360.85593961 330.82815087 363.73529763 330.80387934 366.61474609 330.78027344 C368.61092618 330.76019831 370.60704775 330.73293211 372.60302734 330.69824219 C375.4776862 330.64954343 378.3515654 330.62699014 381.2265625 330.609375 C382.55815903 330.57840729 382.55815903 330.57840729 383.91665649 330.54681396 C389.45447331 330.54482316 392.61741039 331.28297961 397 335 C401.05630398 340.22259857 400.77397544 345.65340142 400 352 C397.82980049 356.5815323 395.56935748 358.89150061 391 361 C387.77007273 361.40390175 384.57486791 361.34933902 381.32421875 361.29296875 C380.3990596 361.28872391 379.47390045 361.28447906 378.52070618 361.28010559 C375.5760037 361.26335993 372.6319944 361.22571522 369.6875 361.1875 C367.68685887 361.17244785 365.68620697 361.15876037 363.68554688 361.14648438 C358.78988495 361.11602609 353.89571517 361.05729706 349 361 C349 370.9 349 380.8 349 391 C351.96226562 390.95359375 354.92453125 390.9071875 357.9765625 390.859375 C360.85593961 390.82815087 363.73529763 390.80387934 366.61474609 390.78027344 C368.61092618 390.76019831 370.60704775 390.73293211 372.60302734 390.69824219 C375.4776862 390.64954343 378.3515654 390.62699014 381.2265625 390.609375 C382.55815903 390.57840729 382.55815903 390.57840729 383.91665649 390.54681396 C389.45447331 390.54482316 392.61741039 391.28297961 397 395 C401.05630398 400.22259857 400.77397544 405.65340142 400 412 C397.82980049 416.5815323 395.56935748 418.89150061 391 421 C387.77007273 421.40390175 384.57486791 421.34933902 381.32421875 421.29296875 C380.3990596 421.28872391 379.47390045 421.28447906 378.52070618 421.28010559 C375.5760037 421.26335993 372.6319944 421.22571522 369.6875 421.1875 C367.68685887 421.17244785 365.68620697 421.15876037 363.68554688 421.14648438 C358.79009893 421.11346983 353.89516685 421.06171575 349 421 C349.02094727 421.90766113 349.04189453 422.81532227 349.06347656 423.75048828 C349.13190933 427.13877642 349.18192295 430.5263235 349.21972656 433.91503906 C349.23976332 435.37772252 349.26700104 436.84032666 349.30175781 438.30273438 C349.35063225 440.4129601 349.37304659 442.52212136 349.390625 444.6328125 C349.41157227 445.90012207 349.43251953 447.16743164 349.45410156 448.47314453 C348.78828575 453.64431403 346.72422169 456.60547635 342.7043457 459.85668945 C339.22701036 461.32679521 336.50171625 461.33952736 332.73046875 461.29296875 C332.04946609 461.28872391 331.36846344 461.28447906 330.66682434 461.28010559 C328.50663541 461.2634061 326.34740358 461.22577312 324.1875 461.1875 C322.71681042 461.17244174 321.24610611 461.15875534 319.77539062 461.14648438 C316.18328643 461.11353214 312.59173674 461.06181173 309 461 C309.02094727 462.24088379 309.04189453 463.48176758 309.06347656 464.76025391 C309.1360537 469.37829989 309.18186421 473.99629577 309.21972656 478.61474609 C309.23980169 480.61092618 309.26706789 482.60704775 309.30175781 484.60302734 C309.35045657 487.4776862 309.37300986 490.3515654 309.390625 493.2265625 C309.41127014 494.11429352 309.43191528 495.00202454 309.45318604 495.91665649 C309.45517684 501.45447331 308.71702039 504.61741039 305 509 C299.77740143 513.05630398 294.34659858 512.77397544 288 512 C283.4184677 509.82980049 281.10849939 507.56935748 279 503 C278.59609825 499.77007273 278.65066098 496.57486791 278.70703125 493.32421875 C278.71127609 492.3990596 278.71552094 491.47390045 278.71989441 490.52070618 C278.73664007 487.5760037 278.77428478 484.6319944 278.8125 481.6875 C278.82755215 479.68685887 278.84123963 477.68620697 278.85351562 475.68554688 C278.88397391 470.78988495 278.94270294 465.89571517 279 461 C269.1 461 259.2 461 249 461 C249.04640625 463.96226562 249.0928125 466.92453125 249.140625 469.9765625 C249.17184913 472.85593961 249.19612066 475.73529763 249.21972656 478.61474609 C249.23980169 480.61092618 249.26706789 482.60704775 249.30175781 484.60302734 C249.35045657 487.4776862 249.37300986 490.3515654 249.390625 493.2265625 C249.41127014 494.11429352 249.43191528 495.00202454 249.45318604 495.91665649 C249.45517684 501.45447331 248.71702039 504.61741039 245 509 C239.77740143 513.05630398 234.34659858 512.77397544 228 512 C223.4184677 509.82980049 221.10849939 507.56935748 219 503 C218.59609825 499.77007273 218.65066098 496.57486791 218.70703125 493.32421875 C218.71127609 492.3990596 218.71552094 491.47390045 218.71989441 490.52070618 C218.73664007 487.5760037 218.77428478 484.6319944 218.8125 481.6875 C218.82755215 479.68685887 218.84123963 477.68620697 218.85351562 475.68554688 C218.88397391 470.78988495 218.94270294 465.89571517 219 461 C209.1 461 199.2 461 189 461 C189.04640625 463.96226562 189.0928125 466.92453125 189.140625 469.9765625 C189.17184913 472.85593961 189.19612066 475.73529763 189.21972656 478.61474609 C189.23980169 480.61092618 189.26706789 482.60704775 189.30175781 484.60302734 C189.35045657 487.4776862 189.37300986 490.3515654 189.390625 493.2265625 C189.41127014 494.11429352 189.43191528 495.00202454 189.45318604 495.91665649 C189.45517684 501.45447331 188.71702039 504.61741039 185 509 C179.77740143 513.05630398 174.34659858 512.77397544 168 512 C163.4184677 509.82980049 161.10849939 507.56935748 159 503 C158.59609825 499.77007273 158.65066098 496.57486791 158.70703125 493.32421875 C158.71127609 492.3990596 158.71552094 491.47390045 158.71989441 490.52070618 C158.73664007 487.5760037 158.77428478 484.6319944 158.8125 481.6875 C158.82755215 479.68685887 158.84123963 477.68620697 158.85351562 475.68554688 C158.88397391 470.78988495 158.94270294 465.89571517 159 461 C149.1 461 139.2 461 129 461 C129.04640625 463.96226562 129.0928125 466.92453125 129.140625 469.9765625 C129.17184913 472.85593961 129.19612066 475.73529763 129.21972656 478.61474609 C129.23980169 480.61092618 129.26706789 482.60704775 129.30175781 484.60302734 C129.35045657 487.4776862 129.37300986 490.3515654 129.390625 493.2265625 C129.41127014 494.11429352 129.43191528 495.00202454 129.45318604 495.91665649 C129.45517684 501.45447331 128.71702039 504.61741039 125 509 C119.77740143 513.05630398 114.34659858 512.77397544 108 512 C103.4184677 509.82980049 101.10849939 507.56935748 99 503 C98.59609825 499.77007273 98.65066098 496.57486791 98.70703125 493.32421875 C98.71127609 492.3990596 98.71552094 491.47390045 98.71989441 490.52070618 C98.73664007 487.5760037 98.77428478 484.6319944 98.8125 481.6875 C98.82755215 479.68685887 98.84123963 477.68620697 98.85351562 475.68554688 C98.88397391 470.78988495 98.94270294 465.89571517 99 461 C89.1 461 79.2 461 69 461 C69.04640625 463.96226562 69.0928125 466.92453125 69.140625 469.9765625 C69.17184913 472.85593961 69.19612066 475.73529763 69.21972656 478.61474609 C69.23980169 480.61092618 69.26706789 482.60704775 69.30175781 484.60302734 C69.35045657 487.4776862 69.37300986 490.3515654 69.390625 493.2265625 C69.41127014 494.11429352 69.43191528 495.00202454 69.45318604 495.91665649 C69.45517684 501.45447331 68.71702039 504.61741039 65 509 C59.77740143 513.05630398 54.34659858 512.77397544 48 512 C43.4184677 509.82980049 41.10849939 507.56935748 39 503 C38.59609825 499.77007273 38.65066098 496.57486791 38.70703125 493.32421875 C38.71127609 492.3990596 38.71552094 491.47390045 38.71989441 490.52070618 C38.73664007 487.5760037 38.77428478 484.6319944 38.8125 481.6875 C38.82755215 479.68685887 38.84123963 477.68620697 38.85351562 475.68554688 C38.88397391 470.78988495 38.94270294 465.89571517 39 461 C29.1 461 19.2 461 9 461 C9.04640625 463.96226562 9.0928125 466.92453125 9.140625 469.9765625 C9.17184913 472.85593961 9.19612066 475.73529763 9.21972656 478.61474609 C9.23980169 480.61092618 9.26706789 482.60704775 9.30175781 484.60302734 C9.35045657 487.4776862 9.37300986 490.3515654 9.390625 493.2265625 C9.41127014 494.11429352 9.43191528 495.00202454 9.45318604 495.91665649 C9.45517684 501.45447331 8.71702039 504.61741039 5 509 C-0.22259857 513.05630398 -5.65340142 512.77397544 -12 512 C-16.5815323 509.82980049 -18.89150061 507.56935748 -21 503 C-21.40390175 499.77007273 -21.34933902 496.57486791 -21.29296875 493.32421875 C-21.28872391 492.3990596 -21.28447906 491.47390045 -21.28010559 490.52070618 C-21.26335993 487.5760037 -21.22571522 484.6319944 -21.1875 481.6875 C-21.17244785 479.68685887 -21.15876037 477.68620697 -21.14648438 475.68554688 C-21.11346983 470.79009893 -21.06171575 465.89516685 -21 461 C-21.90766113 461.02094727 -22.81532227 461.04189453 -23.75048828 461.06347656 C-27.13877642 461.13190933 -30.5263235 461.18192295 -33.91503906 461.21972656 C-35.37772252 461.23976332 -36.84032666 461.26700104 -38.30273438 461.30175781 C-40.4129601 461.35063225 -42.52212136 461.37304659 -44.6328125 461.390625 C-45.90012207 461.41157227 -47.16743164 461.43251953 -48.47314453 461.45410156 C-53.64431403 460.78828575 -56.60547635 458.72422169 -59.85668945 454.7043457 C-61.32679521 451.22701036 -61.33952736 448.50171625 -61.29296875 444.73046875 C-61.28872391 444.04946609 -61.28447906 443.36846344 -61.28010559 442.66682434 C-61.2634061 440.50663541 -61.22577312 438.34740358 -61.1875 436.1875 C-61.17244174 434.71681042 -61.15875534 433.24610611 -61.14648438 431.77539062 C-61.11353214 428.18328643 -61.06181173 424.59173674 -61 421 C-62.24088379 421.02094727 -63.48176758 421.04189453 -64.76025391 421.06347656 C-69.37829989 421.1360537 -73.99629577 421.18186421 -78.61474609 421.21972656 C-80.61092618 421.23980169 -82.60704775 421.26706789 -84.60302734 421.30175781 C-87.4776862 421.35045657 -90.3515654 421.37300986 -93.2265625 421.390625 C-94.55815903 421.42159271 -94.55815903 421.42159271 -95.91665649 421.45318604 C-101.45447331 421.45517684 -104.61741039 420.71702039 -109 417 C-113.05630398 411.77740143 -112.77397544 406.34659858 -112 400 C-109.82980049 395.4184677 -107.56935748 393.10849939 -103 391 C-99.77007273 390.59609825 -96.57486791 390.65066098 -93.32421875 390.70703125 C-92.3990596 390.71127609 -91.47390045 390.71552094 -90.52070618 390.71989441 C-87.5760037 390.73664007 -84.6319944 390.77428478 -81.6875 390.8125 C-79.68685887 390.82755215 -77.68620697 390.84123963 -75.68554688 390.85351562 C-70.78988495 390.88397391 -65.89571517 390.94270294 -61 391 C-61 381.1 -61 371.2 -61 361 C-63.96226563 361.04640625 -66.92453125 361.0928125 -69.9765625 361.140625 C-72.85593961 361.17184913 -75.73529763 361.19612066 -78.61474609 361.21972656 C-80.61092618 361.23980169 -82.60704775 361.26706789 -84.60302734 361.30175781 C-87.4776862 361.35045657 -90.3515654 361.37300986 -93.2265625 361.390625 C-94.55815903 361.42159271 -94.55815903 361.42159271 -95.91665649 361.45318604 C-101.45447331 361.45517684 -104.61741039 360.71702039 -109 357 C-113.05630398 351.77740143 -112.77397544 346.34659858 -112 340 C-109.82980049 335.4184677 -107.56935748 333.10849939 -103 331 C-99.77007273 330.59609825 -96.57486791 330.65066098 -93.32421875 330.70703125 C-92.3990596 330.71127609 -91.47390045 330.71552094 -90.52070618 330.71989441 C-87.5760037 330.73664007 -84.6319944 330.77428478 -81.6875 330.8125 C-79.68685887 330.82755215 -77.68620697 330.84123963 -75.68554688 330.85351562 C-70.78988495 330.88397391 -65.89571517 330.94270294 -61 331 C-61 321.1 -61 311.2 -61 301 C-63.96226563 301.04640625 -66.92453125 301.0928125 -69.9765625 301.140625 C-72.85593961 301.17184913 -75.73529763 301.19612066 -78.61474609 301.21972656 C-80.61092618 301.23980169 -82.60704775 301.26706789 -84.60302734 301.30175781 C-87.4776862 301.35045657 -90.3515654 301.37300986 -93.2265625 301.390625 C-94.55815903 301.42159271 -94.55815903 301.42159271 -95.91665649 301.45318604 C-101.45447331 301.45517684 -104.61741039 300.71702039 -109 297 C-113.05630398 291.77740143 -112.77397544 286.34659858 -112 280 C-109.82980049 275.4184677 -107.56935748 273.10849939 -103 271 C-99.77007273 270.59609825 -96.57486791 270.65066098 -93.32421875 270.70703125 C-92.3990596 270.71127609 -91.47390045 270.71552094 -90.52070618 270.71989441 C-87.5760037 270.73664007 -84.6319944 270.77428478 -81.6875 270.8125 C-79.68685887 270.82755215 -77.68620697 270.84123963 -75.68554688 270.85351562 C-70.78988495 270.88397391 -65.89571517 270.94270294 -61 271 C-61 261.1 -61 251.2 -61 241 C-63.96226563 241.04640625 -66.92453125 241.0928125 -69.9765625 241.140625 C-72.85593961 241.17184913 -75.73529763 241.19612066 -78.61474609 241.21972656 C-80.61092618 241.23980169 -82.60704775 241.26706789 -84.60302734 241.30175781 C-87.4776862 241.35045657 -90.3515654 241.37300986 -93.2265625 241.390625 C-94.55815903 241.42159271 -94.55815903 241.42159271 -95.91665649 241.45318604 C-101.45447331 241.45517684 -104.61741039 240.71702039 -109 237 C-113.05630398 231.77740143 -112.77397544 226.34659858 -112 220 C-109.82980049 215.4184677 -107.56935748 213.10849939 -103 211 C-99.77007273 210.59609825 -96.57486791 210.65066098 -93.32421875 210.70703125 C-92.3990596 210.71127609 -91.47390045 210.71552094 -90.52070618 210.71989441 C-87.5760037 210.73664007 -84.6319944 210.77428478 -81.6875 210.8125 C-79.68685887 210.82755215 -77.68620697 210.84123963 -75.68554688 210.85351562 C-70.78988495 210.88397391 -65.89571517 210.94270294 -61 211 C-61 201.1 -61 191.2 -61 181 C-63.96226563 181.04640625 -66.92453125 181.0928125 -69.9765625 181.140625 C-72.85593961 181.17184913 -75.73529763 181.19612066 -78.61474609 181.21972656 C-80.61092618 181.23980169 -82.60704775 181.26706789 -84.60302734 181.30175781 C-87.4776862 181.35045657 -90.3515654 181.37300986 -93.2265625 181.390625 C-94.55815903 181.42159271 -94.55815903 181.42159271 -95.91665649 181.45318604 C-101.45447331 181.45517684 -104.61741039 180.71702039 -109 177 C-113.05630398 171.77740143 -112.77397544 166.34659858 -112 160 C-109.82980049 155.4184677 -107.56935748 153.10849939 -103 151 C-99.77007273 150.59609825 -96.57486791 150.65066098 -93.32421875 150.70703125 C-92.3990596 150.71127609 -91.47390045 150.71552094 -90.52070618 150.71989441 C-87.5760037 150.73664007 -84.6319944 150.77428478 -81.6875 150.8125 C-79.68685887 150.82755215 -77.68620697 150.84123963 -75.68554688 150.85351562 C-70.78988495 150.88397391 -65.89571517 150.94270294 -61 151 C-61 141.1 -61 131.2 -61 121 C-63.96226563 121.04640625 -66.92453125 121.0928125 -69.9765625 121.140625 C-72.85593961 121.17184913 -75.73529763 121.19612066 -78.61474609 121.21972656 C-80.61092618 121.23980169 -82.60704775 121.26706789 -84.60302734 121.30175781 C-87.4776862 121.35045657 -90.3515654 121.37300986 -93.2265625 121.390625 C-94.55815903 121.42159271 -94.55815903 121.42159271 -95.91665649 121.45318604 C-101.45447331 121.45517684 -104.61741039 120.71702039 -109 117 C-113.05630398 111.77740143 -112.77397544 106.34659858 -112 100 C-109.82980049 95.4184677 -107.56935748 93.10849939 -103 91 C-99.77007273 90.59609825 -96.57486791 90.65066098 -93.32421875 90.70703125 C-92.3990596 90.71127609 -91.47390045 90.71552094 -90.52070618 90.71989441 C-87.5760037 90.73664007 -84.6319944 90.77428478 -81.6875 90.8125 C-79.68685887 90.82755215 -77.68620697 90.84123963 -75.68554688 90.85351562 C-70.79009893 90.88653017 -65.89516685 90.93828425 -61 91 C-61.02094727 90.09233887 -61.04189453 89.18467773 -61.06347656 88.24951172 C-61.13190933 84.86122358 -61.18192295 81.4736765 -61.21972656 78.08496094 C-61.23976332 76.62227748 -61.26700104 75.15967334 -61.30175781 73.69726562 C-61.35063225 71.5870399 -61.37304659 69.47787864 -61.390625 67.3671875 C-61.41157227 66.09987793 -61.43251953 64.83256836 -61.45410156 63.52685547 C-60.78828575 58.35568597 -58.72422169 55.39452365 -54.7043457 52.14331055 C-51.22701036 50.67320479 -48.50171625 50.66047264 -44.73046875 50.70703125 C-43.70896477 50.71339851 -43.70896477 50.71339851 -42.66682434 50.71989441 C-40.50663541 50.7365939 -38.34740358 50.77422688 -36.1875 50.8125 C-34.71681042 50.82755826 -33.24610611 50.84124466 -31.77539062 50.85351562 C-28.18328643 50.88646786 -24.59173674 50.93818827 -21 51 C-21.0314209 49.13867432 -21.0314209 49.13867432 -21.06347656 47.23974609 C-21.1360537 42.62170011 -21.18186421 38.00370423 -21.21972656 33.38525391 C-21.23980169 31.38907382 -21.26706789 29.39295225 -21.30175781 27.39697266 C-21.35045657 24.5223138 -21.37300986 21.6484346 -21.390625 18.7734375 C-21.41127014 17.88570648 -21.43191528 16.99797546 -21.45318604 16.08334351 C-21.45517684 10.54552669 -20.71702039 7.38258961 -17 3 C-11.77740143 -1.05630398 -6.34659858 -0.77397544 0 0 Z M-31 81 C-31 196.5 -31 312 -31 431 C84.5 431 200 431 319 431 C319 315.5 319 200 319 81 C203.5 81 88 81 -31 81 Z " fill="#000000" transform="translate(112,0)"/>
<path d="M0 0 C1.11076497 -0.00538554 2.22152994 -0.01077108 3.36595446 -0.01631981 C7.09544581 -0.03065032 10.82458478 -0.0234829 14.55409241 -0.01637268 C17.22487516 -0.02207357 19.89563243 -0.02893586 22.56640625 -0.03717041 C29.07224997 -0.05436947 35.57799715 -0.05519615 42.08385771 -0.04995751 C47.37164552 -0.04591665 52.65940479 -0.04735835 57.94719124 -0.05270576 C58.69967971 -0.05345419 59.45216818 -0.05420261 60.22745933 -0.05497371 C61.75612128 -0.05650518 63.28478322 -0.05804353 64.81344516 -0.05958868 C79.15002514 -0.07331771 93.48655056 -0.06787319 107.8231293 -0.05640347 C120.93939449 -0.04647049 134.05551862 -0.0594121 147.17176204 -0.08333766 C160.63945179 -0.10771921 174.10707582 -0.11733887 187.5747872 -0.11068493 C195.13592827 -0.10719062 202.69696085 -0.10943868 210.25808525 -0.12693596 C216.69467677 -0.14164617 223.13108339 -0.14230898 229.56767123 -0.12486505 C232.8515411 -0.11634274 236.13501191 -0.11639668 239.41887665 -0.1295166 C242.97919083 -0.14265673 246.5386021 -0.13123961 250.09887695 -0.11352539 C251.65505239 -0.1279329 251.65505239 -0.1279329 253.24266571 -0.14263147 C259.01027189 -0.08344271 262.66496012 0.32761487 267.1129303 4.38768005 C271.21875623 8.9788748 270.53429378 14.44783513 270.50061035 20.27474976 C270.50868866 21.94089721 270.50868866 21.94089721 270.51693016 23.64070421 C270.53126067 27.37019557 270.52409325 31.09933454 270.51698303 34.82884216 C270.52268393 37.49962492 270.52954621 40.17038219 270.53778076 42.84115601 C270.55497983 49.34699973 270.5558065 55.85274691 270.55056786 62.35860746 C270.546527 67.64639528 270.54796871 72.93415455 270.55331612 78.22194099 C270.55406454 78.97442946 270.55481296 79.72691793 270.55558406 80.50220909 C270.55711553 82.03087104 270.55865388 83.55953298 270.56019903 85.08819491 C270.57392806 99.4247749 270.56848354 113.76130032 270.55701382 128.09787906 C270.54708085 141.21414424 270.56002246 154.33026837 270.58394801 167.4465118 C270.60832957 180.91420155 270.61794922 194.38182557 270.61129528 207.84953696 C270.60780097 215.41067803 270.61004903 222.97171061 270.62754631 230.53283501 C270.64225652 236.96942652 270.64291933 243.40583314 270.6254754 249.84242099 C270.61695309 253.12629086 270.61700703 256.40976167 270.63012695 259.6936264 C270.64326708 263.25394059 270.63184997 266.81335185 270.61413574 270.37362671 C270.62374075 271.411077 270.63334576 272.44852729 270.64324182 273.51741546 C270.58405306 279.28502164 270.17299548 282.93970987 266.1129303 287.38768005 C261.52173555 291.49350598 256.05277522 290.80904354 250.2258606 290.77536011 C248.55971314 290.78343841 248.55971314 290.78343841 246.85990614 290.79167992 C243.13041478 290.80601042 239.40127582 290.79884301 235.67176819 290.79173279 C233.00098543 290.79743368 230.33022816 290.80429596 227.65945435 290.81253052 C221.15361063 290.82972958 214.64786344 290.83055626 208.14200289 290.82531761 C202.85421508 290.82127676 197.5664558 290.82271846 192.27866936 290.82806587 C191.52618089 290.82881429 190.77369242 290.82956272 189.99840127 290.83033382 C188.46973932 290.83186529 186.94107737 290.83340364 185.41241544 290.83494879 C171.07583545 290.84867782 156.73931003 290.8432333 142.40273129 290.83176357 C129.28646611 290.8218306 116.17034198 290.83477221 103.05409855 290.85869776 C89.5864088 290.88307932 76.11878478 290.89269898 62.6510734 290.88604504 C55.08993232 290.88255073 47.52889974 290.88479878 39.96777534 290.90229607 C33.53118383 290.91700628 27.09477721 290.91766908 20.65818936 290.90022516 C17.37431949 290.89170284 14.09084869 290.89175679 10.80698395 290.90487671 C7.24666976 290.91801684 3.6872585 290.90659972 0.12698364 290.8888855 C-0.91046665 290.8984905 -1.94791694 290.90809551 -3.01680511 290.91799158 C-8.78441129 290.85880281 -12.43909952 290.44774524 -16.8870697 286.38768005 C-20.99289563 281.7964853 -20.30843318 276.32752498 -20.27474976 270.50061035 C-20.28013529 269.38984538 -20.28552083 268.27908041 -20.29106957 267.13465589 C-20.30540007 263.40516454 -20.29823266 259.67602557 -20.29112244 255.94651794 C-20.29682333 253.27573519 -20.30368561 250.60497792 -20.31192017 247.9342041 C-20.32911923 241.42836038 -20.32994591 234.9226132 -20.32470726 228.41675264 C-20.32066641 223.12896483 -20.32210811 217.84120556 -20.32745552 212.55341911 C-20.32820394 211.80093064 -20.32895236 211.04844217 -20.32972347 210.27315102 C-20.33125494 208.74448907 -20.33279328 207.21582713 -20.33433843 205.68716519 C-20.34806746 191.35058521 -20.34262295 177.01405979 -20.33115322 162.67748105 C-20.32122025 149.56121586 -20.33416186 136.44509174 -20.35808741 123.32884831 C-20.38246897 109.86115856 -20.39208862 96.39353453 -20.38543469 82.92582315 C-20.38194038 75.36468208 -20.38418843 67.8036495 -20.40168571 60.2425251 C-20.41639592 53.80593358 -20.41705873 47.36952696 -20.3996148 40.93293912 C-20.39109249 37.64906925 -20.39114644 34.36559844 -20.40426636 31.0817337 C-20.41740649 27.52141952 -20.40598937 23.96200825 -20.38827515 20.4017334 C-20.39788015 19.36428311 -20.40748516 18.32683282 -20.41738123 17.25794464 C-20.35819246 11.49033847 -19.94713489 7.83565024 -15.8870697 3.38768005 C-11.29587495 -0.71814588 -5.82691463 -0.03368343 0 0 Z M10.1129303 30.38768005 C10.1129303 106.28768005 10.1129303 182.18768005 10.1129303 260.38768005 C86.0129303 260.38768005 161.9129303 260.38768005 240.1129303 260.38768005 C240.1129303 184.48768005 240.1129303 108.58768005 240.1129303 30.38768005 C164.2129303 30.38768005 88.3129303 30.38768005 10.1129303 30.38768005 Z " fill="#000000" transform="translate(130.88706970214844,110.61231994628906)"/>
<path d="M0 0 C7.61570051 6.21689837 10.29773751 15.72631133 13.60546875 24.6875 C14.13190582 26.09353158 14.65913664 27.49926618 15.18710327 28.90472412 C16.59438225 32.65747462 17.99099582 36.41410637 19.38518143 40.17173767 C20.83267003 44.06866275 22.28859809 47.96243155 23.74389648 51.85644531 C25.50223971 56.56271965 27.25967296 61.26932378 29.01264954 65.9776001 C32.54957544 75.47446152 36.12599683 84.95490353 39.7421875 94.421875 C40.98307381 97.68206339 42.22318526 100.9425454 43.46304321 104.203125 C44.23146805 106.21808326 45.00320496 108.23178186 45.77841187 110.24414062 C46.84232941 113.00817704 47.89326917 115.77682375 48.94140625 118.546875 C49.40043839 119.72355743 49.40043839 119.72355743 49.8687439 120.92401123 C52.0140598 126.64916386 53.88501656 132.88659965 52.49609375 138.98828125 C50.04094533 143.48457266 47.91797296 146.38124816 43.0625 148.5 C38.15288837 149.12814149 33.74591563 149.18052972 29.125 147.3125 C20.53944702 139.76762011 19.77462126 132.28030314 15.0625 120.5 C-1.7675 120.17 -18.5975 119.84 -35.9375 119.5 C-36.2675 121.15 -36.5975 122.8 -36.9375 124.5 C-37.87787803 127.54589381 -39.00378873 130.51656095 -40.125 133.5 C-40.54362305 134.69109375 -40.54362305 134.69109375 -40.97070312 135.90625 C-43.27022304 141.9976935 -45.97479539 145.5186477 -51.9375 148.5 C-57.24885952 149.02940021 -61.61022741 149.16363629 -66.4375 146.75 C-70.87900372 142.75264665 -72.79588127 139.87441685 -73.15893555 133.78735352 C-73.09578864 129.50925746 -71.96166992 125.85291336 -70.39453125 121.90234375 C-70.11878265 121.17556931 -69.84303406 120.44879486 -69.55892944 119.69999695 C-68.63505414 117.27420137 -67.69254128 114.85609759 -66.75 112.4375 C-66.0844567 110.70083149 -65.42018534 108.96367509 -64.75708008 107.22607422 C-63.29853597 103.41050595 -61.83207846 99.59809999 -60.36035156 95.78759766 C-57.75910498 89.04705842 -55.18705504 82.29552201 -52.6171875 75.54296875 C-44.34644978 53.82179958 -44.34644978 53.82179958 -40.72462463 44.39558411 C-38.53952991 38.70695928 -36.37812424 33.0109245 -34.25244141 27.29980469 C-33.81023758 26.12267914 -33.36803375 24.94555359 -32.91242981 23.73275757 C-32.07136302 21.49319905 -31.23806806 19.25069998 -30.41410828 17.00479126 C-27.8491499 10.21112138 -25.32934886 4.06456865 -19.375 -0.4375 C-13.20168642 -2.34561511 -5.95575622 -2.93869551 0 0 Z M-10.9375 53.5 C-12.65279526 57.99998892 -14.36160979 62.50236443 -16.06445312 67.00708008 C-16.64470588 68.53933028 -17.22672699 70.07091204 -17.81054688 71.60180664 C-18.64918864 73.80181502 -19.48145113 76.00414531 -20.3125 78.20703125 C-20.57498535 78.89150833 -20.8374707 79.57598541 -21.10791016 80.28120422 C-22.19269008 83.17292756 -22.9375 85.38315709 -22.9375 88.5 C-14.3575 88.5 -5.7775 88.5 3.0625 88.5 C2.25806303 83.67337817 1.28808682 80.06301865 -0.44140625 75.5703125 C-0.6841478 74.93511688 -0.92688934 74.29992126 -1.17698669 73.64547729 C-1.94606593 71.63658597 -2.72288685 69.63079531 -3.5 67.625 C-4.02590705 66.25540652 -4.55130284 64.88561661 -5.07617188 63.515625 C-6.35737778 60.17479163 -7.64553966 56.83669147 -8.9375 53.5 C-9.5975 53.5 -10.2575 53.5 -10.9375 53.5 Z " fill="#000000" transform="translate(240.9375,182.5)"/>
<path d="M0 0 C4.004793 2.0023965 6.6587028 4.17998877 9 8 C10.00468898 11.01406695 10.13039999 13.02892328 10.14044189 16.17976379 C10.14900711 17.78846092 10.14900711 17.78846092 10.15774536 19.42965698 C10.15886322 20.60633942 10.15998108 21.78302185 10.16113281 22.99536133 C10.16609772 24.23461868 10.17106262 25.47387604 10.17617798 26.75068665 C10.18828823 30.1516456 10.19574524 33.55254305 10.20018864 36.95351624 C10.20312097 39.07911268 10.2072261 41.20470374 10.21169281 43.33029747 C10.22536575 49.98314158 10.23503324 56.63597339 10.2388947 63.28883058 C10.24337429 70.96415682 10.26091829 78.63930486 10.2898953 86.31457692 C10.31152503 92.25014224 10.32159968 98.18565747 10.32293582 104.12126178 C10.32398298 107.66498999 10.32987164 111.20855066 10.34775543 114.75223732 C10.36732576 118.70703481 10.36294196 122.66161034 10.35644531 126.61645508 C10.3656601 127.78706482 10.37487488 128.95767456 10.3843689 130.16375732 C10.35521222 135.82281587 10.3311133 140.17876123 7 145 C1.82316998 149.67177343 -1.39353498 150.3478341 -8.234375 150.28515625 C-13.0473343 149.7889048 -15.71534029 147.46185415 -18.8125 143.9375 C-20.90361086 140.52568754 -21.12798979 137.72732467 -21.14044189 133.82023621 C-21.14900711 132.21153908 -21.14900711 132.21153908 -21.15774536 130.57034302 C-21.15886322 129.39366058 -21.15998108 128.21697815 -21.16113281 127.00463867 C-21.16609772 125.76538132 -21.17106262 124.52612396 -21.17617798 123.24931335 C-21.18828823 119.8483544 -21.19574524 116.44745695 -21.20018864 113.04648376 C-21.20312097 110.92088732 -21.2072261 108.79529626 -21.21169281 106.66970253 C-21.22536575 100.01685842 -21.23503324 93.36402661 -21.2388947 86.71116942 C-21.24337429 79.03584318 -21.26091829 71.36069514 -21.2898953 63.68542308 C-21.31152503 57.74985776 -21.32159968 51.81434253 -21.32293582 45.87873822 C-21.32398298 42.33501001 -21.32987164 38.79144934 -21.34775543 35.24776268 C-21.36732576 31.29296519 -21.36294196 27.33838966 -21.35644531 23.38354492 C-21.3656601 22.21293518 -21.37487488 21.04232544 -21.3843689 19.83624268 C-21.35521222 14.17718413 -21.3311133 9.82123877 -18 5 C-12.18140719 -0.25092522 -7.70061453 -0.79398992 0 0 Z " fill="#000000" transform="translate(334,181)"/>
</svg>
