<?xml version="1.0" encoding="UTF-8"?>
<svg version="1.1" xmlns="http://www.w3.org/2000/svg" width="512" height="512">
<path d="M0 0 C0.84744978 -0.00453111 1.69489956 -0.00906223 2.56802964 -0.01373065 C5.4005725 -0.02636539 8.23292285 -0.02475486 11.06549072 -0.02310181 C13.09938809 -0.02908768 15.13328318 -0.03589336 17.16717529 -0.04345703 C22.68798868 -0.06111938 28.20874006 -0.06581255 33.72957897 -0.0670886 C37.18073101 -0.06851076 40.63186731 -0.07278161 44.08301544 -0.07808304 C56.12861633 -0.09658491 68.17417297 -0.10475355 80.2197876 -0.10317993 C91.43852954 -0.10197887 102.65707899 -0.12307406 113.87577224 -0.15466726 C123.51504473 -0.18084283 133.15425442 -0.19154667 142.79356217 -0.19026911 C148.54731657 -0.18975981 154.30089992 -0.19542556 160.05461884 -0.21662521 C165.46867418 -0.23602873 170.88239571 -0.23611742 176.29646301 -0.22159195 C178.27894327 -0.21950531 180.26144453 -0.22419604 182.24388885 -0.23631287 C193.74747777 -0.30204642 202.8630983 -0.16558123 212.69927979 6.45492554 C219.42413928 13.33262274 223.68527396 20.59836861 223.71670532 30.39518738 C223.72950027 32.20550697 223.72950027 32.20550697 223.74255371 34.05239868 C223.74164734 35.36319397 223.74074097 36.67398926 223.73980713 38.02450562 C223.74579652 39.42949275 223.75260301 40.83447661 223.76016235 42.23945618 C223.77778845 46.04538662 223.78251631 49.85122706 223.78379393 53.65719438 C223.78521808 56.03828946 223.7894927 58.41936185 223.79478836 60.80045128 C223.81327789 69.11668723 223.82146038 77.43285917 223.81988525 85.74911499 C223.81868436 93.48584481 223.83977917 101.22229544 223.87137258 108.95895463 C223.89757485 115.61395154 223.90825089 122.26885749 223.90697443 128.92390555 C223.90646593 132.89304823 223.91208685 136.86194268 223.93333054 140.83103371 C223.95277968 144.5666473 223.95279241 148.30177759 223.93829727 152.03740883 C223.93522924 154.0502521 223.95183903 156.06309576 223.96917725 158.0758667 C223.91873614 165.38343916 223.16288609 170.91984495 219.44927979 177.26742554 C219.07100225 177.92055127 218.69272472 178.57367701 218.30298424 179.24659443 C214.11205877 186.12275437 207.05816546 190.16000993 199.44927979 192.26742554 C196.56345996 192.45483445 193.77576624 192.54621944 190.89183044 192.53485107 C190.0436751 192.53938219 189.19551975 192.5439133 188.32166272 192.54858172 C185.48678594 192.56121645 182.65210149 192.55960594 179.81719971 192.55795288 C177.78167983 192.56393871 175.74616221 192.57074438 173.71064758 192.57830811 C168.18576925 192.5959698 162.66095287 192.60066356 157.13604903 192.60193968 C153.68289468 192.60336174 150.22975605 192.60763239 146.77660561 192.61293411 C134.72567368 192.63143497 122.67478599 192.63960465 110.62384033 192.63803101 C99.39712607 192.6368296 88.17060405 192.65793165 76.94393843 192.68951833 C67.29958607 192.71568451 57.65529648 192.72639815 48.0109089 192.72512019 C42.25327407 192.72461066 36.4958101 192.73028918 30.73821068 192.75147629 C25.32169612 192.77086425 19.90551532 192.77097912 14.48898888 192.75644302 C12.50447603 192.75435454 10.51994226 192.75905817 8.53546524 192.77116394 C5.81914723 192.7866569 3.10397434 192.77728176 0.38768005 192.76190186 C-0.3913289 192.77218898 -1.17033785 192.78247611 -1.97295314 192.79307497 C-10.29993238 192.68940452 -18.49247236 189.00681824 -24.55072021 183.26742554 C-29.76838777 176.77539678 -32.79099983 170.5969682 -32.81814575 162.14639282 C-32.82667572 160.94095825 -32.83520569 159.73552368 -32.84399414 158.49356079 C-32.84308777 157.18433655 -32.8421814 155.8751123 -32.84124756 154.5262146 C-32.84723702 153.12284998 -32.85404353 151.71948864 -32.86160278 150.31613159 C-32.8792298 146.51426609 -32.88395683 142.71249069 -32.88523436 138.91058826 C-32.88665865 136.5314955 -32.89093355 134.15242543 -32.89622879 131.77333832 C-32.91471977 123.4624334 -32.92290077 115.15159253 -32.92132568 106.84066772 C-32.92012527 99.11191012 -32.94121014 91.38343221 -32.97281301 83.65474534 C-32.99902897 77.0048283 -33.00969072 70.35500229 -33.00841486 63.70503402 C-33.00790669 59.73977169 -33.01350892 55.77475796 -33.03477097 51.80954742 C-33.05424285 48.07639307 -33.05421749 44.34372209 -33.0397377 40.61054993 C-33.0366748 38.60147743 -33.05326413 36.59240442 -33.07061768 34.58340454 C-33.00186631 24.61189844 -31.21647837 16.25361609 -24.25384521 8.79867554 C-17.06053083 2.33129196 -9.61668071 -0.03794153 0 0 Z M11.51177979 56.32992554 C7.99502978 61.33863009 7.7893702 65.2259998 8.44927979 71.26742554 C10.66470924 75.86870209 13.63827739 79.38255496 18.44927979 81.26742554 C23.1228479 81.86326194 27.74391901 81.82527833 32.44927979 81.76742554 C33.70740479 81.78289429 34.96552979 81.79836304 36.26177979 81.81430054 C45.19162253 81.84165799 45.19162253 81.84165799 52.44927979 77.26742554 C56.3855491 72.91681208 57.08811897 69.34965548 56.83209229 63.66586304 C56.02043018 58.58055149 53.40055509 56.00070025 49.44927979 52.95492554 C43.96062769 49.86755873 38.86590828 50.05338255 32.69927979 50.01742554 C31.83045166 49.99680054 30.96162354 49.97617554 30.06646729 49.95492554 C22.99711274 49.91246695 16.3685707 50.64773002 11.51177979 56.32992554 Z M137.51177979 56.32992554 C133.99502978 61.33863009 133.7893702 65.2259998 134.44927979 71.26742554 C136.66470924 75.86870209 139.63827739 79.38255496 144.44927979 81.26742554 C149.1228479 81.86326194 153.74391901 81.82527833 158.44927979 81.76742554 C159.70740479 81.78289429 160.96552979 81.79836304 162.26177979 81.81430054 C171.19162253 81.84165799 171.19162253 81.84165799 178.44927979 77.26742554 C182.3855491 72.91681208 183.08811897 69.34965548 182.83209229 63.66586304 C182.02043018 58.58055149 179.40055509 56.00070025 175.44927979 52.95492554 C169.96062769 49.86755873 164.86590828 50.05338255 158.69927979 50.01742554 C157.83045166 49.99680054 156.96162354 49.97617554 156.06646729 49.95492554 C148.99711274 49.91246695 142.3685707 50.64773002 137.51177979 56.32992554 Z M55.01177979 117.89242554 C52.89265899 122.46972646 52.64904816 126.30437285 53.44927979 131.26742554 C55.65463448 135.67813492 58.37158714 138.514983 62.44927979 141.26742554 C65.68503324 142.33652095 68.72337235 142.40539847 72.11651611 142.42855835 C73.25482376 142.43816589 74.39313141 142.44777344 75.56593323 142.45767212 C76.7920079 142.461922 78.01808258 142.46617187 79.28131104 142.47055054 C80.54642014 142.47625061 81.81152924 142.48195068 83.11497498 142.48782349 C85.79228307 142.4972702 88.46947916 142.50416878 91.14678955 142.50765991 C94.56297678 142.51313701 97.97876392 142.53715642 101.39482594 142.56563187 C104.66945695 142.5888339 107.94410936 142.59071286 111.21881104 142.59555054 C113.04881401 142.61407074 113.04881401 142.61407074 114.91578674 142.63296509 C122.80448007 142.61233825 127.91333798 142.0176025 134.26177979 137.07992554 C137.00441639 133.55367847 138.25711064 130.74336529 138.44927979 126.26742554 C137.7240813 121.33113132 136.22417544 117.53911176 132.38677979 114.26742554 C128.31447909 111.49479527 126.44790638 111.1345105 121.55010986 111.09042358 C119.69226616 111.07117073 119.69226616 111.07117073 117.79689026 111.05152893 C116.43753459 111.04335945 115.07817439 111.03591612 113.71881104 111.02914429 C113.03433081 111.02506876 112.34985058 111.02099323 111.64462852 111.0167942 C108.01856157 110.99592763 104.39253248 110.98163107 100.76641846 110.97225952 C97.0317135 110.96122088 93.29760862 110.92685324 89.56311512 110.88708782 C86.68306928 110.8608569 83.80316465 110.8525618 80.92300987 110.84897804 C79.5471665 110.84412516 78.17132889 110.83254824 76.7956028 110.81394005 C67.51669547 110.69628023 61.56246754 110.83783873 55.01177979 117.89242554 Z " fill="#000000" transform="translate(160.55072021484375,303.7325744628906)"/>
<path d="M0 0 C26.1182262 20.54676734 42.56681659 49.35797752 46.7109375 82.4296875 C46.98787458 85.37120832 47.17948446 88.29871782 47.3125 91.25 C47.35375 92.02085937 47.395 92.79171875 47.4375 93.5859375 C48.27658368 124.31737717 36.62760428 155.52714557 15.82421875 178.125 C3.60809292 190.92460658 -9.594335 200.00283026 -25.6875 207.25 C-26.74324219 207.73339844 -27.79898438 208.21679688 -28.88671875 208.71484375 C-57.06929311 220.58688852 -90.7759171 219.53630559 -119 208.5625 C-133.33726446 202.63886942 -145.28413051 194.70340663 -156.6875 184.25 C-157.56019531 183.47140625 -158.43289062 182.6928125 -159.33203125 181.890625 C-174.76902397 167.40173104 -185.08201693 147.48494455 -190.6875 127.25 C-191.0071875 126.11433594 -191.326875 124.97867188 -191.65625 123.80859375 C-198.80788068 93.11617875 -193.33692497 59.38418457 -176.75 32.6875 C-158.04367414 3.74657998 -131.76262778 -14.03460601 -98.50390625 -22.171875 C-64.10968945 -29.23199162 -27.90594967 -21.09052332 0 0 Z M-87.0625 24.125 C-90.58469077 30.89844378 -90.48041469 39.09792656 -89 46.5 C-87.21237489 51.6075003 -84.53280462 53.80368016 -80.375 57.0625 C-76.72281054 58.67625813 -73.56364512 59.01240354 -69.6875 58.25 C-64.70499669 56.08794946 -60.81688002 53.38556359 -58.6875 48.25 C-56.75961058 40.53844231 -57.18939528 32.74431416 -59.6875 25.25 C-62.32523767 21.01077874 -65.00076641 18.96246035 -69.6875 17.25 C-77.34278017 16.39941331 -82.12480888 18.14779495 -87.0625 24.125 Z M-87.625 79.6875 C-89.72779332 84.7589427 -89.81584429 89.88946978 -89.83276367 95.32177734 C-89.83612228 96.00230667 -89.8394809 96.682836 -89.84294128 97.38398743 C-89.85238545 99.61798971 -89.85439104 101.85191653 -89.85546875 104.0859375 C-89.85868572 105.65003489 -89.86205012 107.21413199 -89.86555481 108.77822876 C-89.87152963 112.05137835 -89.87339639 115.3245016 -89.87280273 118.59765625 C-89.87270117 122.77586449 -89.88635474 126.95390258 -89.90357494 131.13207054 C-89.91473494 134.36128504 -89.91672072 137.5904589 -89.91619301 140.8196907 C-89.91736704 142.35934663 -89.92175619 143.89900382 -89.92952538 145.43864059 C-90.50985402 158.54091243 -90.50985402 158.54091243 -85.375 170.0625 C-80.88408214 173.71789826 -77.86870522 175.90884055 -71.8125 175.66796875 C-66.77861781 174.67784854 -62.89250483 171.76597382 -59.75 167.8125 C-57.64720668 162.7410573 -57.55915571 157.61053022 -57.54223633 152.17822266 C-57.53887772 151.49769333 -57.5355191 150.817164 -57.53205872 150.11601257 C-57.52261455 147.88201029 -57.52060896 145.64808347 -57.51953125 143.4140625 C-57.51631428 141.84996511 -57.51294988 140.28586801 -57.50944519 138.72177124 C-57.50347037 135.44862165 -57.50160361 132.1754984 -57.50219727 128.90234375 C-57.50229883 124.72413551 -57.48864526 120.54609742 -57.47142506 116.36792946 C-57.46026506 113.13871496 -57.45827928 109.9095411 -57.45880699 106.6803093 C-57.45763296 105.14065337 -57.45324381 103.60099618 -57.44547462 102.06135941 C-56.88485364 88.99043699 -56.88485364 88.99043699 -61.9375 77.4375 C-65.89226194 74.29166664 -69.02688052 72.4960177 -74.0625 71.75 C-79.81767319 72.54381699 -84.01465696 75.14545553 -87.625 79.6875 Z " fill="#000000" transform="translate(329.6875,39.75)"/>
<path d="M0 0 C0 42.24 0 84.48 0 128 C-30.5 128 -30.5 128 -40 119 C-45.74121516 111.85655256 -48.30227644 105.3474325 -48.29052734 96.13378906 C-48.29724457 95.36869019 -48.30396179 94.60359131 -48.31088257 93.81530762 C-48.32980032 91.29867971 -48.33378387 88.78231949 -48.3359375 86.265625 C-48.34237075 84.50453586 -48.3490995 82.74344778 -48.35610962 80.98236084 C-48.36806755 77.29387944 -48.37179207 73.60549159 -48.37060547 69.91699219 C-48.37040259 65.21192999 -48.39767863 60.50747392 -48.43214989 55.80255508 C-48.45449168 52.16490984 -48.45844076 48.52740865 -48.45738602 44.88970184 C-48.45973203 43.15630764 -48.46849868 41.42290885 -48.48405075 39.68958282 C-48.57966192 27.93078334 -48.14022854 17.56491642 -39.703125 8.53125 C-27.81177226 -2.16005796 -16.80872024 0 0 0 Z " fill="#000000" transform="translate(96,336)"/>
<path d="M0 0 C28.05714286 0 28.05714286 0 37.25 6.1875 C44.62876496 13.73396416 48.30405431 21.25078853 48.29052734 31.88208008 C48.29724457 32.64878525 48.30396179 33.41549042 48.31088257 34.20542908 C48.32979829 36.72686336 48.33378357 39.24803053 48.3359375 41.76953125 C48.34237021 43.53301602 48.34909892 45.29649973 48.35610962 47.0599823 C48.36806655 50.75265984 48.37179211 54.44524393 48.37060547 58.13793945 C48.37040244 62.85206737 48.39769449 67.56559133 48.43214989 72.2795763 C48.45447152 75.92147024 48.45844139 79.56322008 48.45738602 83.2051754 C48.45973444 84.94218716 48.46851491 86.67920336 48.48405075 88.41614723 C48.62426276 105.71212452 48.62426276 105.71212452 44 113 C43.62169037 113.64794022 43.24338074 114.29588043 42.85360718 114.9634552 C38.55267972 122.08567257 31.65617302 125.44794233 24 128 C16.08 128 8.16 128 0 128 C0 85.76 0 43.52 0 0 Z " fill="#000000" transform="translate(416,336)"/>
<path d="M0 0 C1.07618088 0.00091644 2.15236176 0.00183289 3.26115417 0.0027771 C5.53132553 0.00880109 7.80148938 0.0245107 10.0715332 0.04931641 C13.52129898 0.0857089 16.96998451 0.09033607 20.41992188 0.08984375 C22.63412374 0.09968086 24.84831841 0.11134044 27.0625 0.125 C28.59267509 0.12833847 28.59267509 0.12833847 30.15376282 0.13174438 C45.95887572 0.33801518 45.95887572 0.33801518 51.66796875 4.7109375 C55.23110886 9.46179098 57.3556874 13.25305695 57.07421875 19.375 C56.19120166 24.73330827 54.29231246 28.29873963 49.92822266 31.54614258 C44.60897732 34.48958673 38.93583469 34.01395124 33.0078125 33.95703125 C31.78896866 33.95848648 30.57012482 33.95994171 29.31434631 33.96144104 C26.74494021 33.95978534 24.17552385 33.94826122 21.60620117 33.92749023 C17.67779365 33.89850998 13.75073436 33.90689498 9.82226562 33.91992188 C7.32160804 33.91368482 4.8209547 33.90529415 2.3203125 33.89453125 C1.14830795 33.89746689 -0.02369659 33.90040253 -1.23121643 33.90342712 C-8.71618962 33.81696925 -13.33833084 33.06644897 -19.08203125 27.9609375 C-22.96539888 23.52280307 -22.611179 19.064786 -22.54296875 13.41015625 C-22.16816935 9.36767701 -21.09792241 7.36185151 -18.26953125 4.4609375 C-12.2161261 0.09245945 -7.3375618 -0.10275719 0 0 Z " fill="#000000" transform="translate(38.26953125,118.5390625)"/>
<path d="M0 0 C1.62282143 -0.01210762 1.62282143 -0.01210762 3.27842712 -0.02445984 C5.55514963 -0.03822779 7.83189215 -0.04898218 10.10864258 -0.05688477 C12.43129547 -0.06844998 14.75392086 -0.08897248 17.07641602 -0.1184082 C20.44695948 -0.16106728 23.8167202 -0.17724626 27.1875 -0.1875 C28.21996353 -0.20500809 29.25242706 -0.22251617 30.31617737 -0.24055481 C36.62878029 -0.22160725 40.37908818 0.51362061 45.52734375 4.23828125 C49.21367259 8.01913134 49.83095755 11.11956994 50.02734375 16.23828125 C49.84364554 21.35649354 49.09730962 24.37885869 45.52734375 28.23828125 C41.1110237 32.2237408 38.03862977 33.35541326 32.15722656 33.4152832 C30.50971405 33.43453606 30.50971405 33.43453606 28.82891846 33.45417786 C27.04768585 33.46525826 27.04768585 33.46525826 25.23046875 33.4765625 C24.00833679 33.48463425 22.78620483 33.49270599 21.52703857 33.50102234 C18.93796202 33.51486254 16.34886723 33.52558497 13.75976562 33.53344727 C9.80693841 33.55065244 5.8549491 33.59454037 1.90234375 33.63867188 C-0.6132751 33.6487995 -3.12890106 33.65731539 -5.64453125 33.6640625 C-7.41361847 33.69032463 -7.41361847 33.69032463 -9.21844482 33.71711731 C-15.86330892 33.69961878 -20.12400236 33.31482039 -25.47265625 29.23828125 C-28.992322 24.9971906 -30.13718695 21.01461431 -29.85546875 15.51171875 C-28.94740197 10.11891401 -26.79369256 6.4091998 -22.72265625 2.80078125 C-15.76027816 -0.54651591 -7.58640125 0.0543848 0 0 Z " fill="#000000" transform="translate(446.47265625,118.76171875)"/>
<path d="M0 0 C1.00804688 -0.02835938 2.01609375 -0.05671875 3.0546875 -0.0859375 C10.98998143 1.10536617 16.47807967 8.39504345 21.875 13.8125 C22.73738281 14.65876953 23.59976563 15.50503906 24.48828125 16.37695312 C25.31199219 17.20001953 26.13570312 18.02308594 26.984375 18.87109375 C27.73170898 19.61544678 28.47904297 20.3597998 29.24902344 21.12670898 C32.67783156 25.23601325 33.54186676 29.04643418 33.37109375 34.390625 C32.78464703 39.11943349 30.5808079 42.17672307 27.0625 45.1875 C23.31205833 47.98038209 21.54566462 48.56673431 16.9375 48.6875 C15.55498047 48.74357422 15.55498047 48.74357422 14.14453125 48.80078125 C5.79700766 47.62370483 0.43501657 41.11207477 -5.1875 35.375 C-5.99767578 34.56804687 -6.80785156 33.76109375 -7.64257812 32.9296875 C-12.88037446 27.643918 -16.13641315 24.29954353 -16.375 16.625 C-16.29413632 11.11279247 -15.08012492 8.09022529 -11.578125 3.8984375 C-7.91857027 0.62498258 -4.86609762 0.06190964 0 0 Z " fill="#000000" transform="translate(79.875,31.625)"/>
<path d="M0 0 C4.45146251 2.18526342 7.18885145 4.9394521 10 9 C11.63310208 13.89930624 11.81669212 18.12993776 9.76245117 22.83374023 C7.95939805 26.07294177 6.09133601 28.28174312 3.47265625 30.890625 C2.59802734 31.76460937 1.72339844 32.63859375 0.82226562 33.5390625 C-0.08845703 34.43367188 -0.99917969 35.32828125 -1.9375 36.25 C-2.84435547 37.16007812 -3.75121094 38.07015625 -4.68554688 39.0078125 C-14.02525904 48.27192728 -14.02525904 48.27192728 -21.3125 48.375 C-26.80025463 48.2506109 -29.69428289 47.42699933 -34 44 C-37.97187041 39.00970128 -38.45814464 35.04229275 -38.53125 28.74609375 C-37.16566354 21.68721666 -31.08306522 16.74796335 -26.1875 11.875 C-25.15786133 10.82119141 -25.15786133 10.82119141 -24.10742188 9.74609375 C-16.79572977 2.42748425 -10.69729007 -1.5997458 0 0 Z " fill="#000000" transform="translate(102,192)"/>
<path d="M0 0 C6.56271677 2.9794891 11.20445096 7.68790817 16.25 12.75 C17.05179687 13.5234375 17.85359375 14.296875 18.6796875 15.09375 C23.68697736 20.08429307 27.77316669 24.63395457 28.08666992 32.05029297 C27.66497497 37.91537268 25.29418204 41.98390063 20.9375 45.8125 C17.73592431 47.77475607 14.93158909 48.20388169 11.25 48.3125 C10.02023437 48.36857422 10.02023437 48.36857422 8.765625 48.42578125 C0.70728066 47.18516044 -4.75628069 40.76173151 -10.25 35.25 C-11.05179687 34.4765625 -11.85359375 33.703125 -12.6796875 32.90625 C-17.68697736 27.91570693 -21.77316669 23.36604543 -22.08666992 15.94970703 C-21.63246056 9.6324056 -18.95912989 5.81577892 -14.4375 1.625 C-9.65240237 -0.63704615 -5.20285169 -0.96009204 0 0 Z " fill="#000000" transform="translate(421,192)"/>
<path d="M0 0 C3.82938453 3.54918566 6.07005201 6.63501711 7.5 11.6875 C7.62424307 19.01784123 5.32032765 23.95628548 0.32421875 29.3046875 C-1.35175531 30.96881257 -3.04364046 32.61704611 -4.75 34.25 C-5.59240234 35.09046875 -6.43480469 35.9309375 -7.30273438 36.796875 C-17.54799999 46.82586058 -17.54799999 46.82586058 -25.4375 46.75 C-31.04320179 46.5564097 -34.57591625 45.13316243 -38.6875 41.25 C-41.36732862 36.84742441 -42.9488589 32.61293267 -42.12866211 27.41943359 C-40.22434984 20.04032481 -35.50350645 15.64712919 -30.125 10.5 C-29.28259766 9.65953125 -28.44019531 8.8190625 -27.57226562 7.953125 C-19.54239518 0.09276707 -11.19143213 -5.29049519 0 0 Z " fill="#000000" transform="translate(441.4375,33.625)"/>
</svg>
