<?xml version="1.0" encoding="UTF-8"?>
<svg version="1.1" xmlns="http://www.w3.org/2000/svg" width="512" height="512">
<path d="M0 0 C1.17413397 -0.00453111 2.34826794 -0.00906223 3.55798173 -0.01373065 C6.80881536 -0.02418942 10.05950963 -0.02570243 13.31035471 -0.02334189 C16.81969182 -0.02293324 20.32899611 -0.03397753 23.83831787 -0.04345703 C30.71097658 -0.06005797 37.58360097 -0.06556618 44.45627806 -0.06668179 C50.04434587 -0.06763276 55.63240238 -0.07174552 61.22046661 -0.07808304 C77.07157501 -0.09569354 92.92265634 -0.10492229 108.77377459 -0.10342209 C109.62800967 -0.10334218 110.48224474 -0.10326227 111.36236572 -0.10317993 C112.64528713 -0.10305729 112.64528713 -0.10305729 113.95412615 -0.10293217 C127.8112685 -0.10211949 141.6683021 -0.1212532 155.52541301 -0.14945666 C169.76155522 -0.17820238 183.99764442 -0.19199601 198.23381639 -0.19026911 C206.22320286 -0.18960576 214.21247534 -0.19507398 222.20183563 -0.21662521 C229.00498624 -0.23485932 235.8079712 -0.23916618 242.61113569 -0.22560637 C246.07978865 -0.21908766 249.54812401 -0.21891919 253.01674652 -0.23631287 C256.78358258 -0.25175774 260.54958796 -0.24246058 264.31640625 -0.22705078 C265.94746421 -0.24248147 265.94746421 -0.24248147 267.61147285 -0.25822389 C276.91771437 -0.17426015 284.96455396 2.10467526 291.88092041 8.56430054 C299.31059675 16.82792014 300.71013736 25.04473374 300.67959595 35.85525513 C300.68412706 37.0293891 300.68865817 38.20352307 300.69332659 39.41323686 C300.70378536 42.66407049 300.70529838 45.91476475 300.70293784 49.16560984 C300.70252919 52.67494695 300.71357348 56.18425124 300.72305298 59.693573 C300.73965392 66.56623171 300.74516213 73.4388561 300.74627773 80.31153318 C300.74722871 85.89960099 300.75134147 91.4876575 300.75767899 97.07572174 C300.77528949 112.92683014 300.78451824 128.77791147 300.78301804 144.62902972 C300.78293813 145.48326479 300.78285821 146.33749987 300.78277588 147.21762085 C300.78269412 148.07290179 300.78261236 148.92818273 300.78252812 149.80938128 C300.78171543 163.66652363 300.80084915 177.52355723 300.82905261 191.38066813 C300.85779832 205.61681034 300.87159196 219.85289955 300.86986506 234.08907151 C300.86920171 242.07845798 300.87466993 250.06773047 300.89622116 258.05709076 C300.91445526 264.86024137 300.91876213 271.66322632 300.90520231 278.46639082 C300.89868361 281.93504377 300.89851514 285.40337914 300.91590881 288.87200165 C300.93135369 292.63883771 300.92205653 296.40484309 300.90664673 300.17166138 C300.91693385 301.25903335 300.92722098 302.34640533 300.93781984 303.46672797 C300.8538561 312.7729695 298.57492068 320.81980908 292.11529541 327.73617554 C283.85167581 335.16585188 275.63486221 336.56539248 264.82434082 336.53485107 C263.65020685 336.53938219 262.47607288 336.5439133 261.26635909 336.54858172 C258.01552546 336.55904049 254.76483119 336.56055351 251.51398611 336.55819297 C248.004649 336.55778432 244.49534471 336.5688286 240.98602295 336.57830811 C234.11336424 336.59490904 227.24073985 336.60041725 220.36806276 336.60153286 C214.77999495 336.60248383 209.19193844 336.60659659 203.60387421 336.61293411 C187.75276581 336.63054461 171.90168448 336.63977337 156.05056623 336.63827316 C155.19633115 336.63819325 154.34209608 336.63811334 153.4619751 336.63803101 C152.17905369 336.63790836 152.17905369 336.63790836 150.87021467 336.63778324 C137.01307232 336.63697056 123.15603872 336.65610428 109.29892781 336.68430774 C95.0627856 336.71305345 80.8266964 336.72684708 66.59052444 336.72512019 C58.60113796 336.72445683 50.61186548 336.72992506 42.62250519 336.75147629 C35.81935458 336.76971039 29.01636962 336.77401725 22.21320513 336.76045744 C18.74455217 336.75393874 15.27621681 336.75377027 11.8075943 336.77116394 C8.04075824 336.78660882 4.27475286 336.77731166 0.50793457 336.76190186 C-0.57943741 336.77218898 -1.66680938 336.78247611 -2.78713202 336.79307497 C-12.09337355 336.70911122 -20.14021314 334.43017581 -27.05657959 327.97055054 C-34.48625593 319.70693094 -35.88579654 311.49011733 -35.85525513 300.67959595 C-35.85978624 299.50546198 -35.86431735 298.33132801 -35.86898577 297.12161422 C-35.87944454 293.87078058 -35.88095756 290.62008632 -35.87859702 287.36924124 C-35.87818837 283.85990412 -35.88923266 280.35059984 -35.89871216 276.84127808 C-35.91531309 269.96861937 -35.92082131 263.09599497 -35.92193691 256.22331789 C-35.92288789 250.63525008 -35.92700065 245.04719357 -35.93333817 239.45912933 C-35.95094867 223.60802094 -35.96017742 207.7569396 -35.95867722 191.90582135 C-35.9585973 191.05158628 -35.95851739 190.19735121 -35.95843506 189.31723022 C-35.9583533 188.46194928 -35.95827154 187.60666834 -35.9581873 186.7254698 C-35.95737461 172.86832744 -35.97650833 159.01129384 -36.00471179 145.15418294 C-36.0334575 130.91804073 -36.04725114 116.68195153 -36.04552424 102.44577956 C-36.04486089 94.45639309 -36.05032911 86.46712061 -36.07188034 78.47776031 C-36.09011444 71.67460971 -36.09442131 64.87162475 -36.08086149 58.06846026 C-36.07434279 54.5998073 -36.07417432 51.13147194 -36.09156799 47.66284943 C-36.10701287 43.89601336 -36.09771571 40.13000799 -36.08230591 36.3631897 C-36.09259303 35.27581772 -36.10288016 34.18844574 -36.11347902 33.0681231 C-36.02951528 23.76188158 -33.75057986 15.71504199 -27.29095459 8.79867554 C-19.02733499 1.3689992 -10.81052139 -0.03054141 0 0 Z M66.41217041 76.26742554 C65.7044751 76.76758179 64.99677979 77.26773804 64.26763916 77.78305054 C53.842642 85.92565187 46.85730485 99.3686279 45.13499832 112.3577795 C44.4218671 119.00975014 44.25801027 125.58888178 44.2510376 132.27548218 C44.24607269 133.43291428 44.24110779 134.59034637 44.23599243 135.78285217 C44.22148196 139.58110158 44.21458961 143.37930931 44.20904541 147.17758179 C44.20474442 149.16046527 44.20044286 151.14334876 44.19607091 153.12623209 C44.18430405 158.64244733 44.17673738 164.15865262 44.17327571 169.67487913 C44.16878979 176.78072595 44.15119891 183.88638093 44.12227511 190.99216944 C44.1006059 196.50924282 44.09056883 202.02626237 44.08923459 207.54337782 C44.08819135 210.82833669 44.08091597 214.11307392 44.06441498 217.3979969 C44.0473152 221.06173334 44.04924398 224.72500302 44.0557251 228.38876343 C44.04651031 229.46278412 44.03729553 230.53680481 44.02780151 231.64337158 C44.06427697 238.24282361 44.22840636 245.71179771 48.86414719 250.88899326 C53.60741001 254.94870906 56.80915269 255.62340848 62.87310791 255.54476929 C66.63677443 255.1336611 68.63007228 253.78456194 71.41217041 251.26742554 C76.56639528 244.72016692 76.55854294 239.00979208 76.50982666 231.02914429 C76.50881958 230.24785156 76.5078125 229.46655884 76.5067749 228.66159058 C76.50156594 225.75935384 76.48760474 222.85713812 76.47467041 219.95492554 C76.45404541 213.45805054 76.43342041 206.96117554 76.41217041 200.26742554 C92.25217041 200.26742554 108.09217041 200.26742554 124.41217041 200.26742554 C124.22467041 219.70492554 124.22467041 219.70492554 124.14190674 225.78475952 C124.1331322 227.40267335 124.12549056 229.02059389 124.11920166 230.63851929 C124.10385376 231.45614746 124.08850586 232.27377563 124.07269287 233.11618042 C124.06995728 239.23569368 124.62176729 246.13474923 128.86439514 250.89778137 C133.61918834 254.94204317 136.8064036 255.62344413 142.87310791 255.54476929 C146.63677443 255.1336611 148.63007228 253.78456194 151.41217041 251.26742554 C155.54115685 246.02249682 156.53315325 241.75353669 156.54588318 235.20469666 C156.55014816 234.20835709 156.55441315 233.21201752 156.55880737 232.18548584 C156.55835419 231.10336823 156.557901 230.02125061 156.55743408 228.90634155 C156.56079269 227.75767105 156.56415131 226.60900055 156.56761169 225.42552185 C156.57711711 221.62411417 156.57906502 217.82275061 156.58013916 214.02133179 C156.58254059 212.04169213 156.58494386 210.06205247 156.58759958 208.08241314 C156.59573766 201.85151884 156.59818466 195.62063899 156.59747314 189.38973999 C156.59687461 182.99434756 156.60738292 176.5990401 156.62321681 170.20366913 C156.63637178 164.69086458 156.64165363 159.1780875 156.64101774 153.66526741 C156.64076478 150.38292065 156.6444457 147.10066532 156.65419579 143.81833076 C156.7978656 110.0680911 156.7978656 110.0680911 140.41217041 81.26742554 C128.34312897 69.53473443 114.54295658 64.83281476 98.0647583 64.90390015 C85.75774663 65.1580139 76.2882151 69.01155597 66.41217041 76.26742554 Z M193.41217041 69.26742554 C188.85204694 75.0600148 188.29016513 79.67051588 188.27172852 86.88235474 C188.26875739 87.53364515 188.26578627 88.18493556 188.26272511 88.85596204 C188.2540783 91.0305646 188.25253329 93.20511186 188.2510376 95.37973022 C188.24640657 96.94220089 188.24138153 98.50467043 188.23599243 100.06713867 C188.2228937 104.30698067 188.21642839 108.54680685 188.21198177 112.78666592 C188.20904691 115.43794148 188.20494132 118.08921275 188.2004776 120.74048615 C188.18680921 129.04265788 188.17713938 137.34481978 188.17327571 145.64700198 C188.16879669 155.21774982 188.1512533 164.78835471 188.12227511 174.3590591 C188.10063104 181.76561166 188.09056997 189.17212409 188.08923459 196.57870793 C188.0881885 200.99830581 188.0823225 205.41776921 188.06441498 209.83733368 C188.04788712 213.99719113 188.04580155 218.15681368 188.05455399 222.31669235 C188.05532185 223.83840186 188.0510149 225.36012424 188.04109573 226.88180161 C187.5590376 239.70099173 187.5590376 239.70099173 192.86414719 250.87434006 C197.58759002 254.96006793 200.81402247 255.62334532 206.87310791 255.54476929 C210.63677443 255.1336611 212.63007228 253.78456194 215.41217041 251.26742554 C219.97229388 245.47483627 220.53417569 240.86433519 220.5526123 233.65249634 C220.55558343 233.00120593 220.55855455 232.34991552 220.56161571 231.67888904 C220.57026252 229.50428647 220.57180753 227.32973922 220.57330322 225.15512085 C220.57793425 223.59265018 220.58295929 222.03018064 220.58834839 220.4677124 C220.60144712 216.2278704 220.60791243 211.98804422 220.61235905 207.74818516 C220.61529391 205.0969096 220.6193995 202.44563832 220.62386322 199.79436493 C220.63753161 191.49219319 220.64720144 183.1900313 220.65106511 174.88784909 C220.65554413 165.31710126 220.67308752 155.74649636 220.70206571 146.17579198 C220.72370978 138.76923941 220.73377085 131.36272698 220.73510623 123.95614314 C220.73615232 119.53654526 220.74201832 115.11708187 220.75992584 110.6975174 C220.77645371 106.53765994 220.77853927 102.37803739 220.76978683 98.21815872 C220.76901897 96.69644922 220.77332592 95.17472684 220.78324509 93.65304947 C221.26530322 80.83385935 221.26530322 80.83385935 215.96019363 69.66051102 C211.2367508 65.57478314 208.01031835 64.91150575 201.95123291 64.99008179 C198.18756639 65.40118998 196.19426854 66.75028914 193.41217041 69.26742554 Z " fill="#000000" transform="translate(123.58782958984375,87.73257446289063)"/>
<path d="M0 0 C4.97271143 2.30875888 7.32531791 5.27771105 10 10 C10.45410156 13.43505859 10.45410156 13.43505859 10.390625 17.1484375 C10.38063477 18.35161621 10.37064453 19.55479492 10.36035156 20.79443359 C10.32393555 22.30602051 10.28751953 23.81760742 10.25 25.375 C10.1675 30.20125 10.085 35.0275 10 40 C20.56 40 31.12 40 42 40 C41.84221141 30.39675579 41.84221141 30.39675579 41.63964844 20.79443359 C41.6296582 19.59125488 41.61966797 18.38807617 41.609375 17.1484375 C41.58842773 15.92302246 41.56748047 14.69760742 41.54589844 13.43505859 C42.23638657 8.21184997 44.75340574 5.18426454 48.5 1.625 C53.66500009 -0.77303575 58.4002288 -0.75381535 64 0 C68.97271143 2.30875888 71.32531791 5.27771105 74 10 C74.45410156 13.43505859 74.45410156 13.43505859 74.390625 17.1484375 C74.38063477 18.35161621 74.37064453 19.55479492 74.36035156 20.79443359 C74.32393555 22.30602051 74.28751953 23.81760742 74.25 25.375 C74.1675 30.20125 74.085 35.0275 74 40 C84.56 40 95.12 40 106 40 C105.84221141 30.39675579 105.84221141 30.39675579 105.63964844 20.79443359 C105.6296582 19.59125488 105.61966797 18.38807617 105.609375 17.1484375 C105.58842773 15.92302246 105.56748047 14.69760742 105.54589844 13.43505859 C106.23638657 8.21184997 108.75340574 5.18426454 112.5 1.625 C117.66500009 -0.77303575 122.4002288 -0.75381535 128 0 C132.97271143 2.30875888 135.32531791 5.27771105 138 10 C138.45410156 13.43505859 138.45410156 13.43505859 138.390625 17.1484375 C138.38063477 18.35161621 138.37064453 19.55479492 138.36035156 20.79443359 C138.32393555 22.30602051 138.28751953 23.81760742 138.25 25.375 C138.1675 30.20125 138.085 35.0275 138 40 C148.56 40 159.12 40 170 40 C169.84221141 30.39675579 169.84221141 30.39675579 169.63964844 20.79443359 C169.6296582 19.59125488 169.61966797 18.38807617 169.609375 17.1484375 C169.58842773 15.92302246 169.56748047 14.69760742 169.54589844 13.43505859 C170.23638657 8.21184997 172.75340574 5.18426454 176.5 1.625 C181.66500009 -0.77303575 186.4002288 -0.75381535 192 0 C196.97271143 2.30875888 199.32531791 5.27771105 202 10 C202.45410156 13.43505859 202.45410156 13.43505859 202.390625 17.1484375 C202.38496521 17.80582916 202.37930542 18.46322083 202.37347412 19.14053345 C202.35126275 21.21946191 202.3011042 23.29660163 202.25 25.375 C202.22991489 26.79294368 202.21166765 28.21091465 202.1953125 29.62890625 C202.15145067 33.08650877 202.08253437 36.54307951 202 40 C203.0422876 39.97905273 204.0845752 39.95810547 205.15844727 39.93652344 C209.10019679 39.86301896 213.04188864 39.81780788 216.98413086 39.78027344 C218.67629244 39.76040524 220.36838771 39.73330093 222.06030273 39.69824219 C236.51640781 39.40663283 249.37661201 40.88605948 262.375 47.8125 C263.03927002 48.15506836 263.70354004 48.49763672 264.38793945 48.85058594 C269.73251821 51.68379368 274.42738034 55.04020565 279 59 C279.79277344 59.59683594 280.58554687 60.19367187 281.40234375 60.80859375 C295.09673266 72.3613038 304.62455505 91.5220891 306.20455933 109.3019104 C306.47771628 115.01515593 306.36844424 120.72144783 306.25 126.4375 C306.22987338 128.15167148 306.21163366 129.86586619 306.1953125 131.58007812 C306.15187528 135.72064137 306.08320215 139.86005283 306 144 C306.87736816 143.97905273 307.75473633 143.95810547 308.65869141 143.93652344 C311.93516683 143.868074 315.21087512 143.81806949 318.48779297 143.78027344 C319.90197795 143.76024157 321.31608097 143.73300752 322.72998047 143.69824219 C324.77071419 143.64934511 326.8103469 143.62694877 328.8515625 143.609375 C330.07697754 143.58842773 331.30239258 143.56748047 332.56494141 143.54589844 C337.78815003 144.23638657 340.81573546 146.75340574 344.375 150.5 C346.77303575 155.66500009 346.75381535 160.4002288 346 166 C343.69124112 170.97271143 340.72228895 173.32531791 336 176 C332.56494141 176.45410156 332.56494141 176.45410156 328.8515625 176.390625 C327.64838379 176.38063477 326.44520508 176.37064453 325.20556641 176.36035156 C323.69397949 176.32393555 322.18239258 176.28751953 320.625 176.25 C313.385625 176.12625 313.385625 176.12625 306 176 C306 186.56 306 197.12 306 208 C315.60324421 207.84221141 315.60324421 207.84221141 325.20556641 207.63964844 C326.40874512 207.6296582 327.61192383 207.61966797 328.8515625 207.609375 C330.07697754 207.58842773 331.30239258 207.56748047 332.56494141 207.54589844 C337.78815003 208.23638657 340.81573546 210.75340574 344.375 214.5 C346.77303575 219.66500009 346.75381535 224.4002288 346 230 C343.69124112 234.97271143 340.72228895 237.32531791 336 240 C332.56494141 240.45410156 332.56494141 240.45410156 328.8515625 240.390625 C327.64838379 240.38063477 326.44520508 240.37064453 325.20556641 240.36035156 C323.69397949 240.32393555 322.18239258 240.28751953 320.625 240.25 C313.385625 240.12625 313.385625 240.12625 306 240 C306 250.56 306 261.12 306 272 C315.60324421 271.84221141 315.60324421 271.84221141 325.20556641 271.63964844 C327.01033447 271.62466309 327.01033447 271.62466309 328.8515625 271.609375 C330.07697754 271.58842773 331.30239258 271.56748047 332.56494141 271.54589844 C337.78815003 272.23638657 340.81573546 274.75340574 344.375 278.5 C346.77303575 283.66500009 346.75381535 288.4002288 346 294 C343.69124112 298.97271143 340.72228895 301.32531791 336 304 C332.56494141 304.45410156 332.56494141 304.45410156 328.8515625 304.390625 C327.64838379 304.38063477 326.44520508 304.37064453 325.20556641 304.36035156 C323.69397949 304.32393555 322.18239258 304.28751953 320.625 304.25 C315.79875 304.1675 310.9725 304.085 306 304 C306 314.56 306 325.12 306 336 C315.60324421 335.84221141 315.60324421 335.84221141 325.20556641 335.63964844 C327.01033447 335.62466309 327.01033447 335.62466309 328.8515625 335.609375 C330.07697754 335.58842773 331.30239258 335.56748047 332.56494141 335.54589844 C337.78815003 336.23638657 340.81573546 338.75340574 344.375 342.5 C346.77303575 347.66500009 346.75381535 352.4002288 346 358 C343.69124112 362.97271143 340.72228895 365.32531791 336 368 C332.56494141 368.45410156 332.56494141 368.45410156 328.8515625 368.390625 C328.19417084 368.38496521 327.53677917 368.37930542 326.85946655 368.37347412 C324.78053809 368.35126275 322.70339837 368.3011042 320.625 368.25 C319.20705632 368.22991489 317.78908535 368.21166765 316.37109375 368.1953125 C312.91349123 368.15145067 309.45692049 368.08253437 306 368 C306.02094727 369.0422876 306.04189453 370.0845752 306.06347656 371.15844727 C306.13698104 375.10019679 306.18219212 379.04188864 306.21972656 382.98413086 C306.23959476 384.67629244 306.26669907 386.36838771 306.30175781 388.06030273 C306.59336717 402.51640781 305.11394052 415.37661201 298.1875 428.375 C297.84493164 429.03927002 297.50236328 429.70354004 297.14941406 430.38793945 C294.31620632 435.73251821 290.95979435 440.42738034 287 445 C286.40316406 445.79277344 285.80632812 446.58554687 285.19140625 447.40234375 C273.6386962 461.09673266 254.4779109 470.62455505 236.6980896 472.20455933 C230.98484407 472.47771628 225.27855217 472.36844424 219.5625 472.25 C217.84832852 472.22987338 216.13413381 472.21163366 214.41992188 472.1953125 C210.27935863 472.15187528 206.13994717 472.08320215 202 472 C202.02094727 472.87736816 202.04189453 473.75473633 202.06347656 474.65869141 C202.131926 477.93516683 202.18193051 481.21087512 202.21972656 484.48779297 C202.23975843 485.90197795 202.26699248 487.31608097 202.30175781 488.72998047 C202.35065489 490.77071419 202.37305123 492.8103469 202.390625 494.8515625 C202.41157227 496.07697754 202.43251953 497.30239258 202.45410156 498.56494141 C201.76361343 503.78815003 199.24659426 506.81573546 195.5 510.375 C190.33499991 512.77303575 185.5997712 512.75381535 180 512 C175.02728857 509.69124112 172.67468209 506.72228895 170 502 C169.54589844 498.56494141 169.54589844 498.56494141 169.609375 494.8515625 C169.61936523 493.64838379 169.62935547 492.44520508 169.63964844 491.20556641 C169.67606445 489.69397949 169.71248047 488.18239258 169.75 486.625 C169.8325 481.79875 169.915 476.9725 170 472 C159.44 472 148.88 472 138 472 C138.15778859 481.60324421 138.15778859 481.60324421 138.36035156 491.20556641 C138.3703418 492.40874512 138.38033203 493.61192383 138.390625 494.8515625 C138.41157227 496.07697754 138.43251953 497.30239258 138.45410156 498.56494141 C137.76361343 503.78815003 135.24659426 506.81573546 131.5 510.375 C126.33499991 512.77303575 121.5997712 512.75381535 116 512 C111.02728857 509.69124112 108.67468209 506.72228895 106 502 C105.54589844 498.56494141 105.54589844 498.56494141 105.609375 494.8515625 C105.61936523 493.64838379 105.62935547 492.44520508 105.63964844 491.20556641 C105.67606445 489.69397949 105.71248047 488.18239258 105.75 486.625 C105.8325 481.79875 105.915 476.9725 106 472 C95.44 472 84.88 472 74 472 C74.15778859 481.60324421 74.15778859 481.60324421 74.36035156 491.20556641 C74.3703418 492.40874512 74.38033203 493.61192383 74.390625 494.8515625 C74.41157227 496.07697754 74.43251953 497.30239258 74.45410156 498.56494141 C73.76361343 503.78815003 71.24659426 506.81573546 67.5 510.375 C62.33499991 512.77303575 57.5997712 512.75381535 52 512 C47.02728857 509.69124112 44.67468209 506.72228895 42 502 C41.54589844 498.56494141 41.54589844 498.56494141 41.609375 494.8515625 C41.61936523 493.64838379 41.62935547 492.44520508 41.63964844 491.20556641 C41.67606445 489.69397949 41.71248047 488.18239258 41.75 486.625 C41.8325 481.79875 41.915 476.9725 42 472 C31.44 472 20.88 472 10 472 C10.15778859 481.60324421 10.15778859 481.60324421 10.36035156 491.20556641 C10.3703418 492.40874512 10.38033203 493.61192383 10.390625 494.8515625 C10.41157227 496.07697754 10.43251953 497.30239258 10.45410156 498.56494141 C9.76361343 503.78815003 7.24659426 506.81573546 3.5 510.375 C-1.66500009 512.77303575 -6.4002288 512.75381535 -12 512 C-16.97271143 509.69124112 -19.32531791 506.72228895 -22 502 C-22.45410156 498.56494141 -22.45410156 498.56494141 -22.390625 494.8515625 C-22.38496521 494.19417084 -22.37930542 493.53677917 -22.37347412 492.85946655 C-22.35126275 490.78053809 -22.3011042 488.70339837 -22.25 486.625 C-22.22991489 485.20705632 -22.21166765 483.78908535 -22.1953125 482.37109375 C-22.15145067 478.91349123 -22.08253437 475.45692049 -22 472 C-23.0422876 472.02094727 -24.0845752 472.04189453 -25.15844727 472.06347656 C-29.10019679 472.13698104 -33.04188864 472.18219212 -36.98413086 472.21972656 C-38.67629244 472.23959476 -40.36838771 472.26669907 -42.06030273 472.30175781 C-56.51640781 472.59336717 -69.37661201 471.11394052 -82.375 464.1875 C-83.03927002 463.84493164 -83.70354004 463.50236328 -84.38793945 463.14941406 C-89.73251821 460.31620632 -94.42738034 456.95979435 -99 453 C-99.79277344 452.40316406 -100.58554688 451.80632812 -101.40234375 451.19140625 C-115.09673266 439.6386962 -124.62455505 420.4779109 -126.20455933 402.6980896 C-126.47771628 396.98484407 -126.36844424 391.27855217 -126.25 385.5625 C-126.22987338 383.84832852 -126.21163366 382.13413381 -126.1953125 380.41992188 C-126.15187528 376.27935863 -126.08320215 372.13994717 -126 368 C-127.31605225 368.0314209 -127.31605225 368.0314209 -128.65869141 368.06347656 C-131.93516683 368.131926 -135.21087512 368.18193051 -138.48779297 368.21972656 C-139.90197795 368.23975843 -141.31608097 368.26699248 -142.72998047 368.30175781 C-144.77071419 368.35065489 -146.8103469 368.37305123 -148.8515625 368.390625 C-150.07697754 368.41157227 -151.30239258 368.43251953 -152.56494141 368.45410156 C-157.78815003 367.76361343 -160.81573546 365.24659426 -164.375 361.5 C-166.77303575 356.33499991 -166.75381535 351.5997712 -166 346 C-163.69124112 341.02728857 -160.72228895 338.67468209 -156 336 C-152.56494141 335.54589844 -152.56494141 335.54589844 -148.8515625 335.609375 C-147.04679443 335.62436035 -147.04679443 335.62436035 -145.20556641 335.63964844 C-143.69397949 335.67606445 -142.18239258 335.71248047 -140.625 335.75 C-135.79875 335.8325 -130.9725 335.915 -126 336 C-126 325.44 -126 314.88 -126 304 C-135.60324421 304.15778859 -135.60324421 304.15778859 -145.20556641 304.36035156 C-146.40874512 304.3703418 -147.61192383 304.38033203 -148.8515625 304.390625 C-150.07697754 304.41157227 -151.30239258 304.43251953 -152.56494141 304.45410156 C-157.78815003 303.76361343 -160.81573546 301.24659426 -164.375 297.5 C-166.77303575 292.33499991 -166.75381535 287.5997712 -166 282 C-163.69124112 277.02728857 -160.72228895 274.67468209 -156 272 C-152.56494141 271.54589844 -152.56494141 271.54589844 -148.8515625 271.609375 C-147.04679443 271.62436035 -147.04679443 271.62436035 -145.20556641 271.63964844 C-143.69397949 271.67606445 -142.18239258 271.71248047 -140.625 271.75 C-135.79875 271.8325 -130.9725 271.915 -126 272 C-126 261.44 -126 250.88 -126 240 C-135.60324421 240.15778859 -135.60324421 240.15778859 -145.20556641 240.36035156 C-147.01033447 240.37533691 -147.01033447 240.37533691 -148.8515625 240.390625 C-150.07697754 240.41157227 -151.30239258 240.43251953 -152.56494141 240.45410156 C-157.78815003 239.76361343 -160.81573546 237.24659426 -164.375 233.5 C-166.77303575 228.33499991 -166.75381535 223.5997712 -166 218 C-163.69124112 213.02728857 -160.72228895 210.67468209 -156 208 C-152.56494141 207.54589844 -152.56494141 207.54589844 -148.8515625 207.609375 C-147.04679443 207.62436035 -147.04679443 207.62436035 -145.20556641 207.63964844 C-143.69397949 207.67606445 -142.18239258 207.71248047 -140.625 207.75 C-135.79875 207.8325 -130.9725 207.915 -126 208 C-126 197.44 -126 186.88 -126 176 C-135.60324421 176.15778859 -135.60324421 176.15778859 -145.20556641 176.36035156 C-147.01033447 176.37533691 -147.01033447 176.37533691 -148.8515625 176.390625 C-150.07697754 176.41157227 -151.30239258 176.43251953 -152.56494141 176.45410156 C-157.78815003 175.76361343 -160.81573546 173.24659426 -164.375 169.5 C-166.77303575 164.33499991 -166.75381535 159.5997712 -166 154 C-163.69124112 149.02728857 -160.72228895 146.67468209 -156 144 C-152.56494141 143.54589844 -152.56494141 143.54589844 -148.8515625 143.609375 C-148.19417084 143.61503479 -147.53677917 143.62069458 -146.85946655 143.62652588 C-144.78053809 143.64873725 -142.70339837 143.6988958 -140.625 143.75 C-139.20705632 143.77008511 -137.78908535 143.78833235 -136.37109375 143.8046875 C-132.91349123 143.84854933 -129.45692049 143.91746563 -126 144 C-126.02094727 142.9577124 -126.04189453 141.9154248 -126.06347656 140.84155273 C-126.13698104 136.89980321 -126.18219212 132.95811136 -126.21972656 129.01586914 C-126.23959476 127.32370756 -126.26669907 125.63161229 -126.30175781 123.93969727 C-126.59336717 109.48359219 -125.11394052 96.62338799 -118.1875 83.625 C-117.84493164 82.96072998 -117.50236328 82.29645996 -117.14941406 81.61206055 C-114.31620632 76.26748179 -110.95979435 71.57261966 -107 67 C-106.40316406 66.20722656 -105.80632812 65.41445312 -105.19140625 64.59765625 C-93.6386962 50.90326734 -74.4779109 41.37544495 -56.6980896 39.79544067 C-50.98484407 39.52228372 -45.27855217 39.63155576 -39.5625 39.75 C-37.84832852 39.77012662 -36.13413381 39.78836634 -34.41992188 39.8046875 C-30.27935863 39.84812472 -26.13994717 39.91679785 -22 40 C-22.02094727 39.12263184 -22.04189453 38.24526367 -22.06347656 37.34130859 C-22.131926 34.06483317 -22.18193051 30.78912488 -22.21972656 27.51220703 C-22.23975843 26.09802205 -22.26699248 24.68391903 -22.30175781 23.27001953 C-22.35065489 21.22928581 -22.37305123 19.1896531 -22.390625 17.1484375 C-22.41157227 15.92302246 -22.43251953 14.69760742 -22.45410156 13.43505859 C-21.76361343 8.21184997 -19.24659426 5.18426454 -15.5 1.625 C-10.33499991 -0.77303575 -5.5997712 -0.75381535 0 0 Z M-82.25 89.3125 C-92.78776583 101.63454889 -94.15726043 115.76162047 -94.13371277 131.32098389 C-94.13597833 132.4302276 -94.13824388 133.53947131 -94.14057809 134.68232846 C-94.14688601 138.38295626 -94.14609079 142.08354713 -94.14526367 145.78417969 C-94.14825716 148.44418473 -94.15163208 151.10418692 -94.15544128 153.76419067 C-94.16372518 160.23036732 -94.1664951 166.69653485 -94.16705366 173.16271636 C-94.1675299 178.4222123 -94.16958999 183.68170526 -94.17275429 188.94120026 C-94.18155467 203.87398255 -94.18617463 218.80675767 -94.18542381 233.73954257 C-94.18538386 234.54350134 -94.1853439 235.3474601 -94.18530273 236.17578125 C-94.18526185 236.98072892 -94.18522097 237.78567659 -94.18517885 238.61501661 C-94.18477255 251.65512489 -94.19433968 264.69520428 -94.2084411 277.73530421 C-94.22282758 291.14551112 -94.22971004 304.55570396 -94.22884732 317.96591878 C-94.22851614 325.48639348 -94.23122867 333.00683788 -94.24202538 340.5273056 C-94.25116032 346.93097853 -94.25328115 353.33460743 -94.24651595 359.73828408 C-94.2432658 363.00067177 -94.24424045 366.2629582 -94.2518692 369.52534103 C-94.52710765 400.44154377 -94.52710765 400.44154377 -78.8984375 426.1640625 C-66.11894682 438.2210378 -51.54207873 440.15923346 -34.67901611 440.13371277 C-33.01515055 440.1371111 -33.01515055 440.1371111 -31.31767154 440.14057809 C-27.61704374 440.14688601 -23.91645287 440.14609079 -20.21582031 440.14526367 C-17.55581527 440.14825716 -14.89581308 440.15163208 -12.23580933 440.15544128 C-5.76963268 440.16372518 0.69653485 440.1664951 7.16271636 440.16705366 C12.4222123 440.1675299 17.68170526 440.16958999 22.94120026 440.17275429 C37.87398255 440.18155467 52.80675767 440.18617463 67.73954257 440.18542381 C68.94548072 440.18536388 68.94548072 440.18536388 70.17578125 440.18530273 C70.98072892 440.18526185 71.78567659 440.18522097 72.61501661 440.18517885 C85.65512489 440.18477255 98.69520428 440.19433968 111.73530421 440.2084411 C125.14551112 440.22282758 138.55570396 440.22971004 151.96591878 440.22884732 C159.48639348 440.22851614 167.00683788 440.23122867 174.5273056 440.24202538 C180.93097853 440.25116032 187.33460743 440.25328115 193.73828408 440.24651595 C197.00067177 440.2432658 200.2629582 440.24424045 203.52534103 440.2518692 C234.44154377 440.52710765 234.44154377 440.52710765 260.1640625 424.8984375 C272.2210378 412.11894682 274.15923346 397.54207873 274.13371277 380.67901611 C274.13597833 379.5697724 274.13824388 378.46052869 274.14057809 377.31767154 C274.14688601 373.61704374 274.14609079 369.91645287 274.14526367 366.21582031 C274.14825716 363.55581527 274.15163208 360.89581308 274.15544128 358.23580933 C274.16372518 351.76963268 274.1664951 345.30346515 274.16705366 338.83728364 C274.1675299 333.5777877 274.16958999 328.31829474 274.17275429 323.05879974 C274.18155467 308.12601745 274.18617463 293.19324233 274.18542381 278.26045743 C274.18538386 277.45649866 274.1853439 276.6525399 274.18530273 275.82421875 C274.18526185 275.01927108 274.18522097 274.21432341 274.18517885 273.38498339 C274.18477255 260.34487511 274.19433968 247.30479572 274.2084411 234.26469579 C274.22282758 220.85448888 274.22971004 207.44429604 274.22884732 194.03408122 C274.22851614 186.51360652 274.23122867 178.99316212 274.24202538 171.4726944 C274.25116032 165.06902147 274.25328115 158.66539257 274.24651595 152.26171592 C274.2432658 148.99932823 274.24424045 145.7370418 274.2518692 142.47465897 C274.52710765 111.55845623 274.52710765 111.55845623 258.8984375 85.8359375 C246.11894682 73.7789622 231.54207873 71.84076654 214.67901611 71.86628723 C213.01515055 71.8628889 213.01515055 71.8628889 211.31767154 71.85942191 C207.61704374 71.85311399 203.91645287 71.85390921 200.21582031 71.85473633 C197.55581527 71.85174284 194.89581308 71.84836792 192.23580933 71.84455872 C185.76963268 71.83627482 179.30346515 71.8335049 172.83728364 71.83294634 C167.5777877 71.8324701 162.31829474 71.83041001 157.05879974 71.82724571 C142.12601745 71.81844533 127.19324233 71.81382537 112.26045743 71.81457619 C111.05451928 71.81463612 111.05451928 71.81463612 109.82421875 71.81469727 C109.01927108 71.81473815 108.21432341 71.81477903 107.38498339 71.81482115 C94.34487511 71.81522745 81.30479572 71.80566032 68.26469579 71.7915589 C54.85448888 71.77717242 41.44429604 71.77028996 28.03408122 71.77115268 C20.51360652 71.77148386 12.99316212 71.76877133 5.4726944 71.75797462 C-0.93097853 71.74883968 -7.33460743 71.74671885 -13.73828408 71.75348405 C-17.00067177 71.7567342 -20.2629582 71.75575955 -23.52534103 71.7481308 C-56.00552706 71.65903558 -56.00552706 71.65903558 -82.25 89.3125 Z " fill="#000000" transform="translate(166,0)"/>
<path d="M0 0 C5.92511698 3.58055456 10.34704999 8.97751115 12.5625 15.5 C12.80300903 18.18928528 12.80300903 18.18928528 12.78955078 21.11645508 C12.78939972 22.21721878 12.78924866 23.31798248 12.78909302 24.45210266 C12.77877045 25.6293541 12.76844788 26.80660553 12.7578125 28.01953125 C12.7549826 29.23323898 12.75215271 30.44694672 12.74923706 31.69743347 C12.73805308 35.56922311 12.7129513 39.44078041 12.6875 43.3125 C12.67746792 45.93944978 12.66834246 48.56640319 12.66015625 51.19335938 C12.63982226 57.62906752 12.60066905 64.06427404 12.5625 70.5 C-3.2775 70.5 -19.1175 70.5 -35.4375 70.5 C-35.52949824 62.81303606 -35.60909208 55.12799447 -35.65722656 47.44091797 C-35.67729933 44.82789627 -35.70456358 42.21491925 -35.73925781 39.60205078 C-35.78796435 35.83875478 -35.81051311 32.07605451 -35.828125 28.3125 C-35.84877014 27.15073242 -35.86941528 25.98896484 -35.89068604 24.79199219 C-35.89287144 16.83129617 -34.86621205 11.41268532 -29.47265625 5.2578125 C-28.82167969 4.71898437 -28.17070312 4.18015625 -27.5 3.625 C-26.85160156 3.07070312 -26.20320312 2.51640625 -25.53515625 1.9453125 C-18.47077988 -2.92213491 -7.84396301 -3.47595223 0 0 Z " fill="#000000" transform="translate(235.4375,185.5)"/>
</svg>
