<?xml version="1.0" encoding="UTF-8"?>
<svg version="1.1" xmlns="http://www.w3.org/2000/svg" width="512" height="512">
<path d="M0 0 C3.03088062 1.03325476 4.46174427 1.97980626 5.96659851 4.83206177 C8.35399128 10.37203877 10.55962424 15.95672457 12.64453125 21.6171875 C12.97740646 22.51382111 13.31028168 23.41045471 13.65324402 24.33425903 C14.70904039 27.18017659 15.76082678 30.02755658 16.8125 32.875 C17.50559801 34.74488857 18.1989556 36.61468094 18.89257812 38.484375 C23.27914142 50.31650605 27.63750905 62.15895315 32 74 C46.19 74 60.38 74 75 74 C73.68 72.35 72.36 70.7 71 69 C69.90493508 65.71480525 69.90039392 63.26336585 69.9375 59.8125 C69.94652344 58.72582031 69.95554687 57.63914063 69.96484375 56.51953125 C69.98224609 55.27236328 69.98224609 55.27236328 70 54 C69.05898438 54.05800781 68.11796875 54.11601563 67.1484375 54.17578125 C55.69420323 54.59078974 55.69420323 54.59078974 52.1875 52.0625 C49.33754014 48.0725562 48.610435 44.86956247 49 40 C50.55781273 36.22845338 52.50295779 34.06086127 56 32 C59.453125 31.70703125 59.453125 31.70703125 63.25 31.8125 C65.14492188 31.85310547 65.14492188 31.85310547 67.078125 31.89453125 C68.04234375 31.92933594 69.0065625 31.96414062 70 32 C69.96519531 31.20335938 69.93039062 30.40671875 69.89453125 29.5859375 C69.71361661 22.50442151 69.81730485 17.67234056 74.625 12.125 C78.39176554 10.34074264 81.92198594 10.23096275 86 11 C89.57052209 12.93341549 91.69451966 15.08355899 93 19 C93.06937062 21.22818441 93.08457084 23.45834524 93.0625 25.6875 C93.05347656 26.86699219 93.04445313 28.04648438 93.03515625 29.26171875 C93.01775391 30.61716797 93.01775391 30.61716797 93 32 C93.94101562 31.94199219 94.88203125 31.88398437 95.8515625 31.82421875 C107.29072948 31.40975618 107.29072948 31.40975618 110.8125 34.375 C113.80928994 37.97114793 114.39386529 40.16073864 114.359375 44.89453125 C113.72418186 48.61593453 111.66020984 50.40312849 109 53 C105.99686252 54.50156874 103.20932478 54.09281204 99.875 54.0625 C98.59367187 54.05347656 97.31234375 54.04445312 95.9921875 54.03515625 C94.51105469 54.01775391 94.51105469 54.01775391 93 54 C93.03480469 54.88042969 93.06960938 55.76085937 93.10546875 56.66796875 C93.13253906 57.82941406 93.15960938 58.99085937 93.1875 60.1875 C93.22230469 61.33605469 93.25710938 62.48460937 93.29296875 63.66796875 C92.88827165 68.27072382 91.21682591 70.78317409 88 74 C88.9034465 74.00364563 89.80689301 74.00729126 90.73771667 74.01104736 C99.25702647 74.04893342 107.77595368 74.10579312 116.2949934 74.18390274 C120.67462335 74.22339126 125.05405183 74.25557287 129.43383789 74.27099609 C133.66160117 74.28615382 137.88881061 74.32058307 142.11632729 74.36830902 C143.72818497 74.38313205 145.34012173 74.39104155 146.95204735 74.39188385 C149.21236401 74.39425262 151.47114897 74.4213215 153.73120117 74.45410156 C155.01693527 74.46298401 156.30266937 74.47186646 157.62736511 74.48101807 C161.55384406 75.08522567 163.20740157 76.23034258 166 79 C167.13700604 81.27401208 167.12809868 82.5174197 167.13422108 85.04276752 C167.13867892 85.89361465 167.14313676 86.74446177 167.14772969 87.62109214 C167.14745315 89.03132479 167.14745315 89.03132479 167.14717102 90.470047 C167.15084771 91.46461479 167.1545244 92.45918259 167.1583125 93.4838888 C167.16938222 96.83797852 167.17319872 100.1920373 167.17700195 103.54614258 C167.18326405 105.94223632 167.18991062 108.33832909 167.19691467 110.73442078 C167.2161658 117.94019577 167.226746 125.14596823 167.23564246 132.35176113 C167.24002402 135.74366554 167.24539116 139.13556838 167.25063133 142.52747154 C167.267644 153.8003612 167.28213884 165.07324987 167.28938007 176.3461504 C167.29129002 179.27218947 167.29321034 182.19822854 167.29516602 185.12426758 C167.29564976 185.85153503 167.2961335 186.57880248 167.2966319 187.32810833 C167.30493474 199.11312966 167.33027572 210.89804956 167.36274669 222.68302659 C167.39579961 234.77763883 167.41382721 246.87219949 167.41702431 258.96685714 C167.41919101 265.75952707 167.42796288 272.55204909 167.45348549 279.34467506 C167.47743281 285.73286732 167.48102927 292.12086538 167.47072411 298.50909615 C167.47022685 300.85650263 167.47660287 303.20392191 167.49028015 305.5512886 C167.5078829 308.75084966 167.50094976 311.94944162 167.48774719 315.14900208 C167.50420106 316.54919648 167.50420106 316.54919648 167.52098733 317.97767764 C167.47892081 322.18717897 167.36828253 324.40989509 165.0945158 328.05318737 C161.65781338 331.24753695 159.57221282 331.12689582 154.95820904 331.13422108 C153.66148728 331.13867892 152.36476552 331.14313676 151.02874917 331.14772969 C149.57602544 331.14764039 148.12330171 331.14745052 146.670578 331.14717102 C145.13798867 331.15046857 143.6054002 331.15419391 142.07281286 331.1583125 C137.84559785 331.1683529 133.61839705 331.17205256 129.39117181 331.17470181 C124.83823374 331.17859879 120.28530697 331.18817749 115.7323761 331.19691467 C104.72975626 331.21669553 93.72713548 331.22674702 82.7245023 331.23564246 C77.54741144 331.24002242 72.37032162 331.24538996 67.19323158 331.25063133 C49.99097881 331.26764469 32.78872668 331.28214011 15.58646679 331.28938007 C11.12038866 331.29129007 6.65431053 331.29321039 2.18823242 331.29516602 C0.52313321 331.29589163 0.52313321 331.29589163 -1.17560437 331.2966319 C-19.16847431 331.30493684 -37.16127787 331.33028111 -55.15411881 331.36274669 C-73.61296018 331.39578252 -92.07176778 331.41382565 -110.53063887 331.41702431 C-120.90033342 331.41919256 -131.26993114 331.4279872 -141.63959694 331.45348549 C-150.4686575 331.47514499 -159.29759773 331.48326638 -168.12668184 331.47351871 C-172.63362728 331.46896026 -177.14032419 331.47094945 -181.64723587 331.49028015 C-185.77091928 331.50781486 -189.89417109 331.50699366 -194.01785847 331.49138286 C-195.51182644 331.48899196 -197.00582354 331.49340656 -198.49974678 331.50521151 C-200.52667355 331.52023964 -202.55374698 331.5083172 -204.58068562 331.49498463 C-205.70775057 331.49596144 -206.83481553 331.49693824 -207.99603397 331.49794465 C-211.68066653 330.88717107 -213.34391429 329.57346524 -216 327 C-217.13700604 324.72598792 -217.12809868 323.4825803 -217.13422108 320.95723248 C-217.14090784 319.68096179 -217.14090784 319.68096179 -217.14772969 318.37890786 C-217.14754533 317.43875276 -217.14736097 316.49859765 -217.14717102 315.529953 C-217.15084771 314.53538521 -217.1545244 313.54081741 -217.1583125 312.5161112 C-217.16938222 309.16202148 -217.17319872 305.8079627 -217.17700195 302.45385742 C-217.18326405 300.05776368 -217.18991062 297.66167091 -217.19691467 295.26557922 C-217.2161658 288.05980423 -217.226746 280.85403177 -217.23564246 273.64823887 C-217.24002402 270.25633446 -217.24539116 266.86443162 -217.25063133 263.47252846 C-217.267644 252.1996388 -217.28213884 240.92675013 -217.28938007 229.6538496 C-217.29129002 226.72781053 -217.29321034 223.80177146 -217.29516602 220.87573242 C-217.29564976 220.14846497 -217.2961335 219.42119752 -217.2966319 218.67189167 C-217.30493474 206.88687034 -217.33027572 195.10195044 -217.36274669 183.31697341 C-217.39579961 171.22236117 -217.41382721 159.12780051 -217.41702431 147.03314286 C-217.41919101 140.24047293 -217.42796288 133.44795091 -217.45348549 126.65532494 C-217.47743281 120.26713268 -217.48102927 113.87913462 -217.47072411 107.49090385 C-217.47022685 105.14349737 -217.47660287 102.79607809 -217.49028015 100.4487114 C-217.5078829 97.24915034 -217.50094976 94.05055838 -217.48774719 90.85099792 C-217.49871644 89.91753499 -217.50968568 88.98407205 -217.52098733 88.02232236 C-217.47892081 83.81282103 -217.36828253 81.59010491 -215.0945158 77.94681263 C-211.47723895 74.58462254 -209.09885521 74.87620171 -204.22970581 74.87974548 C-203.52562595 74.87889106 -202.8215461 74.87803663 -202.09613049 74.87715632 C-199.72535708 74.87550279 -197.35465366 74.88102081 -194.98388672 74.88647461 C-193.289032 74.88675653 -191.59417716 74.88659864 -189.89932251 74.8860321 C-185.28800713 74.88574434 -180.67671759 74.89163772 -176.06540823 74.89860606 C-171.25007857 74.90484305 -166.43474836 74.90544367 -161.61941528 74.90663147 C-152.49632298 74.90974376 -143.37324261 74.91795579 -134.25015557 74.92798096 C-123.86578602 74.93914525 -113.4814159 74.94465334 -103.09704185 74.94967639 C-81.73135456 74.96013848 -60.36567803 74.97773596 -39 75 C-38.85074161 74.22354787 -38.70148321 73.44709574 -38.54770184 72.64711475 C-38.00755857 70.03653154 -37.2518782 67.68708565 -36.3293457 65.18823242 C-35.98841385 64.2592363 -35.64748199 63.33024017 -35.29621887 62.37309265 C-34.74160225 60.87936882 -34.74160225 60.87936882 -34.17578125 59.35546875 C-33.79189743 58.31288406 -33.40801361 57.27029938 -33.01249695 56.19612122 C-31.7826147 52.85862977 -30.54758374 49.52306958 -29.3125 46.1875 C-28.09999302 42.89958724 -26.88846196 39.61131597 -25.67697144 36.32302856 C-24.50511553 33.15103596 -23.32421126 29.98250793 -22.14306641 26.81396484 C-20.81273045 23.23476416 -19.5229176 19.64773609 -18.29052734 16.03369141 C-18.03337448 15.29750076 -17.77622162 14.56131012 -17.51127625 13.80281067 C-16.85174155 11.90720357 -16.2104855 10.00526265 -15.57104492 8.1027832 C-12.07235911 1.19294669 -7.48147106 -0.95002807 0 0 Z M-4 44 C-6.96139018 50.81855076 -9.65564714 57.68943168 -12.15625 64.6875 C-12.42856445 65.44417969 -12.70087891 66.20085937 -12.98144531 66.98046875 C-14.1107007 70.11861004 -15.23924278 73.25668338 -16.34326172 76.40380859 C-17.16247748 78.73293277 -18.00129758 81.05419653 -18.84375 83.375 C-19.20805115 84.43593872 -19.20805115 84.43593872 -19.57971191 85.51831055 C-21.25492601 90.06583437 -22.84977747 92.49256665 -27 95 C-30.21863312 96.44005952 -33.50303697 97.63929487 -36.82421875 98.8203125 C-37.7668306 99.16504608 -38.70944244 99.50977966 -39.68061829 99.86495972 C-42.67971355 100.96068233 -45.68315805 102.04375449 -48.6875 103.125 C-51.7020091 104.21476677 -54.7154246 105.30728926 -57.72651672 106.40646362 C-59.59744022 107.08898123 -61.47043272 107.76585874 -63.34562683 108.43655396 C-64.61253105 108.89745926 -64.61253105 108.89745926 -65.9050293 109.36767578 C-66.64939743 109.63540802 -67.39376556 109.90314026 -68.16069031 110.1789856 C-70.19308721 110.95476842 -70.19308721 110.95476842 -72 113 C-71.43259094 113.20409485 -70.86518188 113.4081897 -70.28057861 113.61846924 C-64.37090755 115.74664863 -58.46708784 117.89048188 -52.56640625 120.04345703 C-50.36409033 120.84468239 -48.16031831 121.64191723 -45.95507812 122.43505859 C-42.78383537 123.57642029 -39.61812211 124.73207445 -36.453125 125.890625 C-35.46757629 126.24183411 -34.48202759 126.59304321 -33.46661377 126.95489502 C-27.41331983 129.19072957 -23.52375159 130.8133315 -20.63134766 136.86230469 C-20.22964355 137.95446289 -19.82793945 139.04662109 -19.4140625 140.171875 C-18.96087646 141.38713867 -18.50769043 142.60240234 -18.04077148 143.85449219 C-17.56877219 145.15296736 -17.09684964 146.45147044 -16.625 147.75 C-16.13662027 149.06714842 -15.64711518 150.38388011 -15.15649414 151.70019531 C-13.08513341 157.26991459 -11.05299025 162.85384813 -9.01953125 168.4375 C-8.7447998 169.18547852 -8.47006836 169.93345703 -8.18701172 170.70410156 C-7.48990751 172.60694627 -6.80499882 174.51424661 -6.12109375 176.421875 C-5.27047304 179.13221939 -5.27047304 179.13221939 -3 180 C-2.79812576 179.44733963 -2.59625153 178.89467926 -2.38825989 178.32527161 C-0.27929771 172.56014826 1.84899829 166.80243227 3.98852539 161.04858398 C4.78384707 158.90197659 5.57426595 156.75354594 6.35961914 154.60327148 C7.49113043 151.50789747 8.64027059 148.41956802 9.79296875 145.33203125 C10.13901657 144.37351761 10.48506439 143.41500397 10.84159851 142.42744446 C13.11563118 136.40378564 15.1179855 131.86815784 21.21614075 128.93351746 C23.96837517 127.79837309 26.74344047 126.78387718 29.55078125 125.79296875 C30.56472458 125.42271072 31.57866791 125.0524527 32.62333679 124.67097473 C35.84846364 123.49666049 39.08019093 122.34187892 42.3125 121.1875 C44.50632379 120.39255654 46.69968907 119.59634648 48.89257812 118.79882812 C54.25649387 116.8511812 59.62595341 114.91950413 65 113 C62.89134738 110.89134738 61.66041664 110.35402154 58.9050293 109.35180664 C58.06042648 109.04130875 57.21582367 108.73081085 56.34562683 108.41090393 C55.43106216 108.0806572 54.5164975 107.75041046 53.57421875 107.41015625 C52.63447708 107.06496445 51.69473541 106.71977264 50.72651672 106.36412048 C47.7154114 105.25830695 44.70178005 104.15962782 41.6875 103.0625 C37.73089649 101.62174753 33.77688658 100.17416586 29.82421875 98.72265625 C28.91572678 98.39443375 28.0072348 98.06621124 27.07121277 97.7280426 C15.87797481 93.61736818 15.87797481 93.61736818 13.53369141 89.29882812 C12.9485376 87.68137695 12.9485376 87.68137695 12.3515625 86.03125 C11.90659424 84.82815186 11.46162598 83.62505371 11.00317383 82.38549805 C10.54342753 81.09045801 10.08404277 79.79528958 9.625 78.5 C9.14570253 77.18667883 8.66481851 75.87393561 8.18237305 74.56176758 C7.22263284 71.94363802 6.27222205 69.32244141 5.33056641 66.69775391 C3.82458178 62.51249828 2.28234143 58.34155021 0.73388672 54.171875 C-0.52208036 50.78535646 -1.76192203 47.39309424 -3 44 C-3.33 44 -3.66 44 -4 44 Z M-100 157 C-101.71317185 161.51909826 -103.42205713 166.03978476 -105.12695312 170.56201172 C-105.70780153 172.10087017 -106.2898283 173.63928436 -106.87304688 175.17724609 C-107.71012029 177.38524077 -108.54297244 179.59478731 -109.375 181.8046875 C-109.63748535 182.49432587 -109.8999707 183.18396423 -110.17041016 183.89450073 C-111.53787587 187.35170921 -111.53787587 187.35170921 -112 191 C-112.69311279 191.11786865 -113.38622559 191.2357373 -114.1003418 191.35717773 C-117.33378491 192.07399644 -120.29275536 193.12382783 -123.39453125 194.28515625 C-124.59658203 194.73310547 -125.79863281 195.18105469 -127.03710938 195.64257812 C-128.29560374 196.11580346 -129.5540669 196.58911179 -130.8125 197.0625 C-132.09036541 197.54005989 -133.36835898 198.017277 -134.64648438 198.49414062 C-137.76559995 199.65939512 -140.88336515 200.82813007 -144 202 C-144 202.66 -144 203.32 -144 204 C-139.92730877 205.5729434 -135.85217757 207.13933576 -131.7746582 208.69970703 C-130.38790087 209.23144063 -129.00182615 209.76495802 -127.61645508 210.30029297 C-125.62497922 211.06948357 -123.63113631 211.83222484 -121.63671875 212.59375 C-119.83787231 213.28500977 -119.83787231 213.28500977 -118.00268555 213.99023438 C-115.05406749 215.15937336 -115.05406749 215.15937336 -112 215 C-111.83781982 215.57540527 -111.67563965 216.15081055 -111.50854492 216.74365234 C-109.45010025 223.84110778 -106.94216259 230.72161144 -104.3125 237.625 C-103.89677734 238.72457031 -103.48105469 239.82414062 -103.05273438 240.95703125 C-102.03818089 243.63918415 -101.02055394 246.32012583 -100 249 C-97.90748154 245.86122231 -96.73616615 242.95787458 -95.3984375 239.43359375 C-95.0364476 238.48154808 -95.0364476 238.48154808 -94.66714478 237.51026917 C-94.15939671 236.17201136 -93.65352631 234.83303983 -93.14941406 233.4934082 C-92.37575789 231.43951203 -91.59456397 229.38859794 -90.8125 227.33789062 C-90.31985944 226.03662976 -89.82765679 224.73520302 -89.3359375 223.43359375 C-88.88782715 222.24822021 -88.4397168 221.06284668 -87.97802734 219.84155273 C-86.89151672 217.18567281 -86.89151672 217.18567281 -87 215 C-86.30688721 214.88213135 -85.61377441 214.7642627 -84.8996582 214.64282227 C-81.66621509 213.92600356 -78.70724464 212.87617217 -75.60546875 211.71484375 C-74.40341797 211.26689453 -73.20136719 210.81894531 -71.96289062 210.35742188 C-70.70439626 209.88419654 -69.4459331 209.41088821 -68.1875 208.9375 C-66.90963459 208.45994011 -65.63164102 207.982723 -64.35351562 207.50585938 C-61.23440005 206.34060488 -58.11663485 205.17186993 -55 204 C-55 203.34 -55 202.68 -55 202 C-59.07269123 200.4270566 -63.14782243 198.86066424 -67.2253418 197.30029297 C-68.61209913 196.76855937 -69.99817385 196.23504198 -71.38354492 195.69970703 C-73.37502078 194.93051643 -75.36886369 194.16777516 -77.36328125 193.40625 C-79.16212769 192.71499023 -79.16212769 192.71499023 -80.99731445 192.00976562 C-83.94593251 190.84062664 -83.94593251 190.84062664 -87 191 C-87.16218018 190.42459473 -87.32436035 189.84918945 -87.49145508 189.25634766 C-89.54989975 182.15889222 -92.05783741 175.27838856 -94.6875 168.375 C-95.10322266 167.27542969 -95.51894531 166.17585937 -95.94726562 165.04296875 C-96.96181911 162.36081585 -97.97944606 159.67987417 -99 157 C-99.33 157 -99.66 157 -100 157 Z " fill="#000000" transform="translate(281,37)"/>
<path d="M0 0 C1.08295961 -0.00551503 1.08295961 -0.00551503 2.18779719 -0.01114148 C4.60743395 -0.02215617 7.02702774 -0.02601834 9.44668579 -0.02983093 C11.18136226 -0.03609711 12.91603739 -0.04274404 14.65071106 -0.04974365 C20.3465278 -0.07076279 26.04234475 -0.08114193 31.7381897 -0.09111023 C33.69940836 -0.09515816 35.66062687 -0.09927509 37.62184525 -0.10346031 C46.83330475 -0.12250484 56.04475626 -0.13673915 65.25623167 -0.14507228 C75.89054068 -0.15485158 86.52464194 -0.18119228 97.15887773 -0.22157317 C105.37894347 -0.25171663 113.59894956 -0.26653935 121.8190695 -0.26985329 C126.72879166 -0.2722052 131.63829166 -0.28118443 136.54795456 -0.30631447 C141.16581959 -0.32957015 145.78331576 -0.33383855 150.40122414 -0.32355309 C152.09513004 -0.32305705 153.78905396 -0.32939734 155.48290443 -0.34310913 C157.79755781 -0.3607969 160.11088281 -0.35373853 162.42553711 -0.34057617 C163.72006994 -0.34296453 165.01460278 -0.34535288 166.34836388 -0.34781361 C170.45774338 0.23478549 172.63161045 1.56186315 175.8397522 4.14717102 C177.69701836 7.86170334 177.42476309 12.10296527 176.8397522 16.14717102 C174.64952302 18.9714139 173.00958013 20.56225705 169.8397522 22.14717102 C167.60270012 22.24732952 165.36257951 22.28064539 163.12329102 22.28520203 C162.42485569 22.28802331 161.72642036 22.29084459 161.00682032 22.29375136 C158.65473314 22.30211749 156.30269291 22.30343735 153.95059204 22.30488586 C152.26871609 22.30955274 150.58684141 22.3146961 148.90496826 22.32028198 C145.27635186 22.331576 141.64774373 22.34000401 138.01911545 22.34640121 C132.27868328 22.35707077 126.53831029 22.37731407 120.7979126 22.39952087 C104.47188027 22.46147619 88.14585081 22.51542479 71.81973267 22.54853821 C62.80802739 22.56689664 53.79642062 22.59585047 44.78478777 22.63654292 C40.01588708 22.65759723 35.24711048 22.67306791 30.47816086 22.67535019 C25.98835338 22.67750126 21.49880399 22.69341751 17.00907516 22.71973991 C15.36441472 22.72691763 13.71972294 22.7290413 12.07505035 22.72563744 C-1.33657664 22.47527314 -1.33657664 22.47527314 -12.9727478 28.52217102 C-17.43565156 33.87765553 -19.27722922 38.08580799 -19.298913 45.0122261 C-19.30438745 45.99554106 -19.30986189 46.97885602 -19.31550223 47.99196839 C-19.31648033 49.06978255 -19.31745844 50.14759671 -19.31846619 51.2580719 C-19.32340416 52.40488426 -19.32834214 53.55169662 -19.33342975 54.73326087 C-19.34614305 57.91666608 -19.35442732 61.10004765 -19.36085641 64.28347063 C-19.36886322 67.71630129 -19.38256004 71.14910975 -19.39556885 74.58192444 C-19.4173276 80.52959244 -19.43547429 86.47726269 -19.45117378 92.42494965 C-19.47387788 101.02432596 -19.50201996 109.6236777 -19.53149306 118.22303316 C-19.57916234 132.17462295 -19.62242833 146.12622279 -19.66293335 160.07783508 C-19.70229165 173.63122845 -19.74371868 187.1846129 -19.78793335 200.73799133 C-19.79065762 201.5732992 -19.79338189 202.40860707 -19.79618872 203.2692273 C-19.80986825 207.45968482 -19.82358852 211.65014221 -19.83732903 215.84059954 C-19.95128339 250.60943819 -20.05809505 285.37829576 -20.1602478 320.14717102 C-19.32056646 320.14256206 -18.48088512 320.13795309 -17.6157589 320.13320446 C2.81533715 320.02278378 23.24638177 319.94004289 43.67771339 319.88811016 C53.55816997 319.86232833 63.43842737 319.82717815 73.3187561 319.76997375 C81.93044428 319.7201382 90.54198821 319.68787986 99.15381658 319.67672855 C103.7138062 319.67021004 108.27338315 319.65489024 112.83324051 319.61852074 C117.12607036 319.58455877 121.41831794 319.57411838 125.71126938 319.58163261 C127.28586238 319.58025815 128.86047504 319.57032642 130.43495178 319.55114365 C132.58806311 319.52619989 134.73898712 319.53226746 136.89215088 319.54589844 C138.09601252 319.54128947 139.29987415 319.53668051 140.54021645 319.53193188 C145.73419289 320.50041286 148.46550484 323.41946498 151.7381897 327.53388977 C152.22545532 328.29314758 152.71272095 329.0524054 153.2147522 329.83467102 C153.71748657 330.60166321 154.22022095 331.3686554 154.7381897 332.15888977 C155.8397522 334.14717102 155.8397522 334.14717102 155.8397522 336.14717102 C180.2597522 336.14717102 204.6797522 336.14717102 229.8397522 336.14717102 C230.4997522 334.49717102 231.1597522 332.84717102 231.8397522 331.14717102 C233.46084595 328.76045227 233.46084595 328.76045227 235.2772522 326.45967102 C235.87408813 325.69267883 236.47092407 324.92568665 237.08584595 324.13545227 C239.49991445 321.39879109 241.09585268 320.20964404 244.77014446 319.90107536 C245.97677148 319.90291895 247.18339849 319.90476254 248.42658997 319.90666199 C249.43498876 319.90409871 249.43498876 319.90409871 250.46375924 319.90148365 C252.72095253 319.89818409 254.97784988 319.90919992 257.23501587 319.92012024 C258.8512013 319.92068425 260.46738725 319.92036799 262.08357239 319.91923523 C266.47586134 319.91866033 270.86804153 319.93043678 275.26030517 319.94438314 C279.8487377 319.9568677 284.43717261 319.9580592 289.02561951 319.96043396 C297.71662208 319.96665543 306.40757446 319.98307526 315.09855491 320.00313294 C324.9920205 320.02547121 334.88548846 320.03648015 344.77897298 320.04652381 C365.13259409 320.06744091 385.48616998 320.10262983 405.8397522 320.14717102 C405.78086494 284.61295114 405.70631228 249.07879863 405.61076592 213.54465798 C405.59949783 209.34901158 405.58835936 205.15336485 405.57730103 200.9577179 C405.5739955 199.70480742 405.5739955 199.70480742 405.5706232 198.42658561 C405.53525602 184.90402647 405.51038861 171.38146739 405.48940518 157.85887915 C405.46763851 143.98225123 405.43457985 130.10568331 405.39105064 116.22910643 C405.36454885 107.6673188 405.34684263 99.10560592 405.34040616 90.54377931 C405.33514777 84.6716849 405.31891565 78.79968451 405.29408654 72.9276405 C405.28008677 69.54031659 405.2725222 66.15330455 405.27474403 62.76593018 C405.27639391 59.09011965 405.25972058 55.41482921 405.23847961 51.73908997 C405.24332719 50.67292717 405.24817477 49.60676438 405.25316924 48.50829363 C405.18246369 41.09660535 404.40837375 35.1889597 399.4647522 29.33467102 C392.7424479 23.73275078 387.69671202 23.0173634 379.1288147 23.00654602 C377.39182239 22.98822074 375.65484285 22.96865069 373.9178772 22.94795227 C371.19011792 22.91898578 368.46318314 22.89717074 365.73526001 22.89668274 C363.09487443 22.89334048 360.45637206 22.85875462 357.8163147 22.81904602 C357.00675323 22.82611572 356.19719177 22.83318542 355.36309814 22.84046936 C349.5148326 22.71537688 346.92098733 21.36144662 342.8397522 17.14717102 C341.22545296 13.91857255 341.24404563 10.63723449 341.8397522 7.14717102 C343.57577325 4.12208957 345.67555357 1.72927033 348.8397522 0.14717102 C350.19521853 0.03817273 351.55571401 -0.01176746 352.91543579 -0.02983093 C354.17848038 -0.04908379 354.17848038 -0.04908379 355.46704102 -0.06872559 C356.38152008 -0.07611252 357.29599915 -0.08349945 358.2381897 -0.09111023 C359.1835257 -0.09918198 360.12886169 -0.10725372 361.10284424 -0.11557007 C363.11197064 -0.12942433 365.12112072 -0.14014046 367.13027954 -0.147995 C370.16802579 -0.16506639 373.20464289 -0.20892238 376.24209595 -0.2532196 C391.78091544 -0.37946089 403.9290534 1.26104847 415.8397522 12.14717102 C425.22848274 22.41954679 428.46953619 33.69740848 428.32077026 47.40992737 C428.32418796 48.58399289 428.32760566 49.75805841 428.33112693 50.96770167 C428.33653302 54.19028394 428.32419978 57.41220611 428.30401468 60.63471055 C428.28661198 64.12328319 428.29259537 67.61182947 428.29562378 71.10043335 C428.29771311 77.13261811 428.28524812 83.16462874 428.26267242 89.19676971 C428.23005394 97.91801807 428.21973538 106.63918291 428.21472046 115.36048564 C428.20598319 129.51289845 428.17941034 143.66521862 428.14151001 157.81758118 C428.10474922 171.55878743 428.07645741 185.29996844 428.05947876 199.04121399 C428.05842787 199.88935505 428.05737697 200.7374961 428.05629423 201.61133841 C428.05107378 205.86655094 428.04601902 210.12176366 428.04104662 214.37697649 C427.99963344 249.63377401 427.92922793 284.89046394 427.8397522 320.14717102 C428.80614624 320.12541809 429.77254028 320.10366516 430.76821899 320.08125305 C432.66567871 320.05587463 432.66567871 320.05587463 434.60147095 320.02998352 C435.85661499 320.00823059 437.11175903 319.98647766 438.40493774 319.96406555 C442.90780412 320.20410747 444.65580977 321.05419838 447.8397522 324.14717102 C448.99783116 326.46332895 448.98418322 327.84301611 449.01675415 330.4223175 C449.02958939 331.30761642 449.04242462 332.19291534 449.0556488 333.1050415 C449.0667292 334.54708702 449.0667292 334.54708702 449.07803345 336.01826477 C449.08610519 337.01036453 449.09417694 338.00246429 449.10249329 339.02462769 C449.11634694 341.13210804 449.12706334 343.23961095 449.13491821 345.34712219 C449.1520167 348.54068557 449.1958775 351.73318255 449.24014282 354.9264679 C449.25027997 356.9778926 449.25879287 359.02932609 449.26553345 361.08076477 C449.28304153 362.02391037 449.30054962 362.96705597 449.31858826 363.93878174 C449.28106537 375.65735402 444.70483731 385.69907546 436.87490845 394.30732727 C428.44355717 402.46424035 418.07143399 406.30613379 406.47820282 406.2813921 C405.73092143 406.28374433 404.98364004 406.28609656 404.21371377 406.28852007 C401.69561279 406.29520674 399.17756346 406.29475194 396.65945435 406.29434204 C394.84139188 406.29764088 393.02333014 406.30136649 391.20526934 406.30548352 C386.19797737 406.3155095 381.1906974 406.31922128 376.18339682 406.32187283 C370.78713566 406.32577415 365.390884 406.33535265 359.99462891 406.34408569 C346.95645185 406.36385569 333.91827401 406.37391731 320.88008571 406.38281348 C314.74107611 406.38719578 308.60206738 406.39256277 302.46305847 406.39780235 C282.05672128 406.41481569 261.65038464 406.42930979 241.24404144 406.43655109 C235.9474945 406.43846101 230.65094756 406.44038134 225.35440063 406.44233704 C223.37973764 406.44306265 223.37973764 406.44306265 221.36518246 406.44380292 C200.04044278 406.45210292 178.71577097 406.47743888 157.39105338 406.50991771 C135.50026745 406.542987 113.60951002 406.56099977 91.71869898 406.56419533 C79.42671385 406.56636062 67.13481052 406.57511202 54.84284973 406.60065651 C44.37409532 406.62236173 33.90544257 406.63041478 23.43666822 406.62068973 C18.09647164 406.61614447 12.75648481 406.61804461 7.41631699 406.63745117 C2.5232108 406.65507927 -2.36953254 406.65408781 -7.26264256 406.63855388 C-9.0285435 406.63617728 -10.79446954 406.64050403 -12.56033212 406.65238253 C-27.44495069 406.74626912 -39.99095544 404.65202191 -51.3164978 394.14717102 C-58.27561372 386.8764529 -63.18765671 377.75535516 -63.3531189 367.54975891 C-63.36918182 366.6452449 -63.38524475 365.7407309 -63.40179443 364.80880737 C-63.44643554 360.69479851 -63.4872723 356.58094542 -63.51034546 352.4667511 C-63.52693417 350.29704586 -63.55426217 348.1273959 -63.59237671 345.95796204 C-63.6471099 342.82412985 -63.66901015 339.69157283 -63.6836853 336.55732727 C-63.70635468 335.58948807 -63.72902405 334.62164886 -63.75238037 333.6244812 C-63.73766846 328.93910155 -63.71260473 326.85562395 -60.75253296 323.05903625 C-56.56677835 319.97195354 -54.23885721 320.03736548 -49.0352478 320.08467102 C-47.75391968 320.09369446 -46.47259155 320.1027179 -45.1524353 320.11201477 C-43.67130249 320.12941711 -43.67130249 320.12941711 -42.1602478 320.14717102 C-42.16176668 319.54867631 -42.16328557 318.9501816 -42.16485047 318.33355069 C-42.25442903 282.8350598 -42.32302748 247.33658841 -42.36450912 211.83800794 C-42.36951174 207.57240977 -42.37468905 203.30681182 -42.37997437 199.04121399 C-42.38102361 198.1920365 -42.38207285 197.34285902 -42.38315389 196.46794888 C-42.40054296 182.73141802 -42.43207237 168.99495434 -42.46885899 155.25846329 C-42.50631013 141.15585478 -42.52849247 127.05328138 -42.53660178 112.95062518 C-42.54208091 104.25365663 -42.55936489 95.55687803 -42.59191367 86.85996798 C-42.61311313 80.89022339 -42.6194356 74.92057652 -42.61425331 68.95079705 C-42.61169993 65.51027757 -42.61551937 62.07008922 -42.6370697 58.62962914 C-42.6570585 54.88946726 -42.65215352 51.150109 -42.64126587 47.40992737 C-42.65291723 46.3359612 -42.6645686 45.26199503 -42.67657304 44.15548444 C-42.58424576 32.36954851 -38.99095753 22.04094076 -31.1602478 13.14717102 C-25.21980824 7.3764583 -19.06411419 3.60152953 -11.1602478 1.14717102 C-10.60200506 0.97094617 -10.04376232 0.79472132 -9.46860313 0.61315632 C-6.28974227 -0.02855703 -3.24323999 0.01071275 0 0 Z " fill="#000000" transform="translate(63.160247802734375,68.85282897949219)"/>
</svg>
