<?xml version="1.0" encoding="UTF-8"?>
<svg version="1.1" xmlns="http://www.w3.org/2000/svg" width="512" height="512">
<path d="M0 0 C1.3560975 -0.00711475 2.71219204 -0.01481563 4.06828308 -0.02307129 C6.90343601 -0.0364725 9.73831072 -0.03810536 12.57348633 -0.03222656 C16.18134545 -0.02634247 19.78785326 -0.056886 23.39545155 -0.09734344 C26.19503286 -0.12337862 28.99429589 -0.1260836 31.79398155 -0.12245178 C33.76245412 -0.12493682 35.73085964 -0.14952203 37.69917297 -0.17468262 C46.34989722 -0.1085884 53.51576025 1.17330491 60.01252747 7.25354004 C65.4015732 13.07312271 67.5529245 19.35063729 68.7109375 27.04296875 C68.83986893 27.84861771 68.96880035 28.65426666 69.10163879 29.48432922 C69.50804559 32.04026936 69.90039779 34.59815254 70.29296875 37.15625 C70.56750039 38.88620424 70.84288261 40.61602373 71.11914062 42.34570312 C71.37966835 43.99467144 71.63945982 45.64375628 71.8984375 47.29296875 C72.02026901 48.0679924 72.14210052 48.84301605 72.2676239 49.64152527 C72.72321126 52.61647976 73.10546875 55.45411925 73.10546875 58.46875 C74.26046875 58.675 75.41546875 58.88125 76.60546875 59.09375 C88.64125889 61.81211382 99.91945564 67.07118239 110.81005859 72.74829102 C111.5727002 73.13041748 112.3353418 73.51254395 113.12109375 73.90625 C114.13091309 74.43025391 114.13091309 74.43025391 115.16113281 74.96484375 C117.1574214 75.68183473 117.1574214 75.68183473 119.22167969 74.66796875 C121.18592918 73.45540345 121.18592918 73.45540345 123.23046875 71.84375 C125.10546875 70.46875 125.10546875 70.46875 127.10546875 70.46875 C127.27712051 69.8708667 127.44877228 69.2729834 127.62562561 68.65698242 C129.49736793 62.26413031 131.65229815 56.02222368 133.9765625 49.78125 C134.34016373 48.79809814 134.70376495 47.81494629 135.0783844 46.80200195 C135.84255548 44.73758161 136.60819545 42.67370444 137.37524414 40.61035156 C138.53936004 37.47845873 139.69877512 34.34485723 140.85742188 31.2109375 C141.6051934 29.1926063 142.35323143 27.17437381 143.1015625 25.15625 C143.61425941 23.77143433 143.61425941 23.77143433 144.13731384 22.35864258 C145.80268677 17.88265299 147.49147397 13.41572167 149.22290039 8.96484375 C149.53336807 8.16361084 149.84383575 7.36237793 150.16371155 6.53686523 C151.62489717 3.32807614 152.91743269 1.9934629 156.10546875 0.46875 C160.92028179 -0.34960931 164.50267854 -0.65645373 168.609375 2.2265625 C172.54690919 6.5817604 174.09519505 12.48151332 176.04296875 17.90625 C176.5078736 19.16458202 176.97421973 20.42238234 177.44189453 21.6796875 C179.95167508 28.45301435 182.38865188 35.25245381 184.8228302 42.05323792 C186.06267974 45.51018732 187.31235631 48.96355171 188.56253052 52.41677856 C189.46864908 54.93589 190.3575644 57.46063906 191.24584961 59.98608398 C191.81029758 61.55348846 192.37545017 63.12063943 192.94140625 64.6875 C193.18692734 65.40092056 193.43244843 66.11434113 193.68540955 66.84938049 C195.63153465 72.15824261 197.91294669 75.89884021 203.10385132 78.45144653 C205.53925023 79.4434888 207.99340676 80.32155841 210.48046875 81.17578125 C211.40021484 81.50486984 212.31996094 81.83395844 213.26757812 82.17301941 C216.20898433 83.22249976 219.15675949 84.25248992 222.10546875 85.28125 C225.94034941 86.63757515 229.77277135 88.00080069 233.60546875 89.36328125 C234.55260742 89.69893097 235.49974609 90.03458069 236.47558594 90.38040161 C243.25136652 92.78790891 250.00204216 95.25606872 256.73046875 97.79296875 C257.60123047 98.11771683 258.47199219 98.4424649 259.36914062 98.77705383 C269.74845732 102.72402102 269.74845732 102.72402102 272.41796875 106.15625 C273.76533241 110.6882914 273.95242699 114.70237379 271.91958618 118.94197083 C269.74191605 121.97512151 268.18117816 122.68358443 264.71630859 123.99487305 C263.10595734 124.61487686 263.10595734 124.61487686 261.46307373 125.24740601 C260.35506409 125.65044952 259.24705444 126.05349304 258.10546875 126.46875 C257.07721985 126.8478653 256.04897095 127.22698059 254.98956299 127.61758423 C251.77751704 128.78303497 248.55583044 129.91828124 245.33203125 131.05078125 C242.93699805 131.90810425 240.54248117 132.76687077 238.1484375 133.62695312 C234.42673799 134.96281523 230.70314767 136.29079517 226.97021484 137.5949707 C223.33184812 138.86899473 219.70655841 140.17548327 216.08203125 141.48828125 C214.96945953 141.86878128 213.85688782 142.24928131 212.71060181 142.64131165 C206.52292282 144.91980403 202.71581079 147.10824217 198.95838928 152.59858704 C197.85027228 154.59141367 197.85027228 154.59141367 198.5 157.4921875 C199.02980469 158.47445312 199.55960937 159.45671875 200.10546875 160.46875 C200.94658203 162.25152344 200.94658203 162.25152344 201.8046875 164.0703125 C202.46740534 165.41147937 203.13016804 166.75262408 203.79296875 168.09375 C206.98719496 174.70804189 209.68350144 181.40997839 212.10546875 188.34375 C212.40799561 189.20564941 212.71052246 190.06754883 213.0222168 190.95556641 C215.10546875 197.06310202 215.10546875 197.06310202 215.10546875 200.46875 C216.11859131 200.60450439 217.13171387 200.74025879 218.17553711 200.88012695 C221.97315272 201.39135922 225.76911039 201.9141206 229.56469727 202.44018555 C231.20034197 202.66528609 232.83640708 202.88735534 234.47290039 203.10620117 C259.34260499 206.43784607 259.34260499 206.43784607 267.79296875 215.28125 C273.5304597 223.18968348 273.57272059 229.77791206 273.57421875 239.36328125 C273.5813335 240.71937875 273.58903438 242.07547329 273.59729004 243.43156433 C273.61069125 246.26671726 273.61232411 249.10159197 273.60644531 251.93676758 C273.60056122 255.5446267 273.63110475 259.15113451 273.67156219 262.7587328 C273.69759737 265.55831411 273.70030235 268.35757714 273.69667053 271.1572628 C273.69915557 273.12573537 273.72374078 275.09414089 273.74890137 277.06245422 C273.68280715 285.71317847 272.40091384 292.8790415 266.32067871 299.37580872 C260.41526252 304.84433795 254.0813195 306.93640704 246.27734375 308.07421875 C245.44712708 308.20315018 244.6169104 308.3320816 243.76153564 308.46492004 C241.127526 308.87147667 238.49162215 309.26386204 235.85546875 309.65625 C234.06887328 309.93074958 232.28241312 310.20613127 230.49609375 310.48242188 C217.54929598 312.46875 217.54929598 312.46875 215.10546875 312.46875 C214.89921875 313.62375 214.69296875 314.77875 214.48046875 315.96875 C211.76210493 328.00454014 206.50303636 339.28273689 200.82592773 350.17333984 C200.44380127 350.93598145 200.0616748 351.69862305 199.66796875 352.484375 C199.31863281 353.15758789 198.96929687 353.83080078 198.609375 354.52441406 C197.90201009 356.49760631 197.90201009 356.49760631 198.83325195 358.46923828 C200.13277132 360.51166078 201.46930408 362.49104252 202.8984375 364.4453125 C203.71562256 365.56800537 203.71562256 365.56800537 204.54931641 366.71337891 C205.12472168 367.49890137 205.70012695 368.28442383 206.29296875 369.09375 C207.47161382 370.71856168 208.65000131 372.34356024 209.828125 373.96875 C211.6810791 376.517419 213.54170109 379.05925063 215.4140625 381.59375 C220.90122519 389.14597392 223.38352945 394.97723076 223.6015625 404.3671875 C222.02257326 414.23897851 217.06565902 420.4056101 210.09765625 427.2734375 C209.21699493 428.15983917 208.33633362 429.04624084 207.4289856 429.95950317 C205.09961794 432.29396864 202.75635102 434.61330992 200.40765381 436.92828369 C198.9813756 438.3428506 197.56734761 439.76855573 196.15722656 441.19921875 C193.42413217 443.96956959 190.67085323 446.71811885 187.91015625 449.4609375 C187.07749237 450.30574677 186.24482849 451.15055603 185.38693237 452.02096558 C179.32310762 457.94271022 173.48684845 461.5256216 165.07421875 463 C164.25953125 462.9896875 163.44484375 462.979375 162.60546875 462.96875 C161.3834375 462.98421875 161.3834375 462.98421875 160.13671875 463 C151.00897752 461.40029277 144.14659005 456.72031819 136.98046875 451.09375 C136.13871094 450.44664062 135.29695313 449.79953125 134.4296875 449.1328125 C133.59824219 448.4934375 132.76679688 447.8540625 131.91015625 447.1953125 C131.10030273 446.57430664 130.29044922 445.95330078 129.45605469 445.31347656 C127.91612774 444.10495059 126.40197937 442.86266201 124.91894531 441.58496094 C123.02878597 440.00548812 121.28479276 438.61655486 119.10546875 437.46875 C115.97038129 437.69497257 115.97038129 437.69497257 113.10546875 439.46875 C111.91695313 440.02949219 110.7284375 440.59023438 109.50390625 441.16796875 C108.16273938 441.83068659 106.82159467 442.49344929 105.48046875 443.15625 C98.86617686 446.35047621 92.16424036 449.04678269 85.23046875 451.46875 C84.36856934 451.77127686 83.50666992 452.07380371 82.61865234 452.38549805 C76.51111673 454.46875 76.51111673 454.46875 73.10546875 454.46875 C73.03030029 455.04093262 72.95513184 455.61311523 72.87768555 456.20263672 C72.11593638 461.97074192 71.32854043 467.73484517 70.52001953 473.49658203 C70.25809761 475.3744604 70.00066576 477.25297542 69.74951172 479.13232422 C68.18011527 490.77601226 66.51913671 500.28285236 57.14453125 508.1796875 C49.5991076 512.94978291 43.00397246 512.93612567 34.2109375 512.9375 C32.85484 512.94461475 31.49874546 512.95231563 30.14265442 512.96057129 C27.30750149 512.9739725 24.47262678 512.97560536 21.63745117 512.96972656 C18.02959205 512.96384247 14.42308424 512.994386 10.81548595 513.03484344 C8.01590464 513.06087862 5.21664161 513.0635836 2.41695595 513.05995178 C0.44848338 513.06243682 -1.51992214 513.08702203 -3.48823547 513.11218262 C-12.13895972 513.0460884 -19.30482275 511.76419509 -25.80158997 505.68395996 C-31.1906357 499.86437729 -33.341987 493.58686271 -34.5 485.89453125 C-34.69339714 484.68605782 -34.69339714 484.68605782 -34.89070129 483.45317078 C-35.29710809 480.89723064 -35.68946029 478.33934746 -36.08203125 475.78125 C-36.35656289 474.05129576 -36.63194511 472.32147627 -36.90820312 470.59179688 C-37.16873085 468.94282856 -37.42852232 467.29374372 -37.6875 465.64453125 C-37.87024727 464.48199577 -37.87024727 464.48199577 -38.0566864 463.29597473 C-38.51227376 460.32102024 -38.89453125 457.48338075 -38.89453125 454.46875 C-40.62703125 454.159375 -40.62703125 454.159375 -42.39453125 453.84375 C-53.89664933 451.25577343 -64.76482658 446.25354022 -75.31054688 441.09716797 C-79.93627131 438.77945706 -79.93627131 438.77945706 -84.89453125 437.46875 C-87.68760536 439.15813686 -87.68760536 439.15813686 -90.58203125 441.65625 C-91.73332282 442.58106347 -92.88709909 443.50278983 -94.04296875 444.421875 C-94.66010742 444.91494141 -95.27724609 445.40800781 -95.91308594 445.91601562 C-99.43937213 448.67934488 -103.06408343 451.29967531 -106.70703125 453.90625 C-107.39949951 454.41373779 -108.09196777 454.92122559 -108.80541992 455.4440918 C-114.76858564 459.69394132 -120.78482419 462.89473507 -128.26953125 462.90625 C-129.51863281 462.93525391 -129.51863281 462.93525391 -130.79296875 462.96484375 C-140.66475976 461.38585451 -146.83139135 456.42894027 -153.69921875 449.4609375 C-155.02882126 448.13994553 -155.02882126 448.13994553 -156.38528442 446.79226685 C-158.71974989 444.46289919 -161.03909117 442.11963227 -163.35406494 439.77093506 C-164.76863185 438.34465685 -166.19433698 436.93062886 -167.625 435.52050781 C-170.39535084 432.78741342 -173.1439001 430.03413448 -175.88671875 427.2734375 C-177.15393265 426.02444168 -177.15393265 426.02444168 -178.44674683 424.75021362 C-184.36849147 418.68638887 -187.95140285 412.8501297 -189.42578125 404.4375 C-189.41546875 403.6228125 -189.40515625 402.808125 -189.39453125 401.96875 C-189.40484375 401.1540625 -189.41515625 400.339375 -189.42578125 399.5 C-187.82607402 390.37225877 -183.14609944 383.5098713 -177.51953125 376.34375 C-176.87242187 375.50199219 -176.2253125 374.66023438 -175.55859375 373.79296875 C-174.91921875 372.96152344 -174.27984375 372.13007813 -173.62109375 371.2734375 C-173.00008789 370.46358398 -172.37908203 369.65373047 -171.73925781 368.81933594 C-170.53073184 367.27940899 -169.28844326 365.76526062 -168.01074219 364.28222656 C-166.43126937 362.39206722 -165.04233611 360.64807401 -163.89453125 358.46875 C-164.12075382 355.33366254 -164.12075382 355.33366254 -165.89453125 352.46875 C-166.45527344 351.28023438 -167.01601562 350.09171875 -167.59375 348.8671875 C-168.25646784 347.52602063 -168.91923054 346.18487592 -169.58203125 344.84375 C-172.77625746 338.22945811 -175.47256394 331.52752161 -177.89453125 324.59375 C-178.19705811 323.73185059 -178.49958496 322.86995117 -178.8112793 321.98193359 C-180.89453125 315.87439798 -180.89453125 315.87439798 -180.89453125 312.46875 C-182.41421509 312.26511841 -182.41421509 312.26511841 -183.96459961 312.05737305 C-187.76221522 311.54614078 -191.55817289 311.0233794 -195.35375977 310.49731445 C-196.98940447 310.27221391 -198.62546958 310.05014466 -200.26196289 309.83129883 C-225.13166749 306.49965393 -225.13166749 306.49965393 -233.58203125 297.65625 C-239.3195222 289.74781652 -239.36178309 283.15958794 -239.36328125 273.57421875 C-239.370396 272.21812125 -239.37809688 270.86202671 -239.38635254 269.50593567 C-239.39975375 266.67078274 -239.40138661 263.83590803 -239.39550781 261.00073242 C-239.38962372 257.3928733 -239.42016725 253.78636549 -239.46062469 250.1787672 C-239.48665987 247.37918589 -239.48936485 244.57992286 -239.48573303 241.7802372 C-239.48821807 239.81176463 -239.51280328 237.84335911 -239.53796387 235.87504578 C-239.47186965 227.22432153 -238.18997634 220.0584585 -232.10974121 213.56169128 C-226.20432502 208.09316205 -219.870382 206.00109296 -212.06640625 204.86328125 C-211.23618958 204.73434982 -210.4059729 204.6054184 -209.55059814 204.47257996 C-206.9165885 204.06602333 -204.28068465 203.67363796 -201.64453125 203.28125 C-199.85793578 203.00675042 -198.07147562 202.73136873 -196.28515625 202.45507812 C-183.33835848 200.46875 -183.33835848 200.46875 -180.89453125 200.46875 C-180.68828125 199.31375 -180.48203125 198.15875 -180.26953125 196.96875 C-177.55116743 184.93295986 -172.29209886 173.65476311 -166.61499023 162.76416016 C-166.23286377 162.00151855 -165.8507373 161.23887695 -165.45703125 160.453125 C-164.93302734 159.44330566 -164.93302734 159.44330566 -164.3984375 158.41308594 C-163.684612 156.42641135 -163.684612 156.42641135 -164.66992188 154.40478516 C-166.47173196 151.55622974 -168.41474005 148.81960988 -170.39453125 146.09375 C-170.831604 145.48450684 -171.26867676 144.87526367 -171.71899414 144.24755859 C-174.01262528 141.0531068 -176.32881404 137.87711323 -178.671875 134.71875 C-179.11789063 134.1107959 -179.56390625 133.5028418 -180.0234375 132.87646484 C-180.86851699 131.72520171 -181.72090509 130.57925168 -182.58203125 129.43994141 C-186.62036615 123.91388659 -189.32138323 118.01495979 -189.33203125 111.09375 C-189.35136719 110.26101562 -189.37070313 109.42828125 -189.390625 108.5703125 C-187.81163576 98.69852149 -182.85472152 92.5318899 -175.88671875 85.6640625 C-175.00605743 84.77766083 -174.12539612 83.89125916 -173.2180481 82.97799683 C-170.88868044 80.64353136 -168.54541352 78.32419008 -166.19671631 76.00921631 C-164.7704381 74.5946494 -163.35641011 73.16894427 -161.94628906 71.73828125 C-159.21319467 68.96793041 -156.45991573 66.21938115 -153.69921875 63.4765625 C-152.86655487 62.63175323 -152.03389099 61.78694397 -151.17599487 60.91653442 C-145.11217012 54.99478978 -139.27591095 51.4118784 -130.86328125 49.9375 C-130.04859375 49.9478125 -129.23390625 49.958125 -128.39453125 49.96875 C-127.57984375 49.9584375 -126.76515625 49.948125 -125.92578125 49.9375 C-116.79804002 51.53720723 -109.93565255 56.21718181 -102.76953125 61.84375 C-101.92777344 62.49085937 -101.08601562 63.13796875 -100.21875 63.8046875 C-93.52873691 68.94925571 -93.52873691 68.94925571 -90.63769531 71.31738281 C-89.9412793 71.87522461 -89.24486328 72.43306641 -88.52734375 73.0078125 C-87.92035645 73.50748535 -87.31336914 74.0071582 -86.68798828 74.52197266 C-84.93541268 75.6636668 -84.93541268 75.6636668 -82.90771484 75.23632812 C-80.88858502 74.46648284 -78.97964137 73.6229437 -77.05078125 72.6484375 C-75.93703125 72.09724243 -75.93703125 72.09724243 -74.80078125 71.53491211 C-74.00671875 71.14182861 -73.21265625 70.74874512 -72.39453125 70.34375 C-65.36199286 66.93255682 -58.27663493 63.97646595 -50.89453125 61.40625 C-50.04052734 61.1076709 -49.18652344 60.8090918 -48.30664062 60.50146484 C-42.31164879 58.46875 -42.31164879 58.46875 -38.89453125 58.46875 C-38.78177856 57.61047607 -38.78177856 57.61047607 -38.66674805 56.73486328 C-37.90499888 50.96675808 -37.11760293 45.20265483 -36.30908203 39.44091797 C-36.04716011 37.5630396 -35.78972826 35.68452458 -35.53857422 33.80517578 C-33.96917777 22.16148774 -32.30819921 12.65464764 -22.93359375 4.7578125 C-15.3881701 -0.01228291 -8.79303496 0.00137433 0 0 Z M160.10546875 44.46875 C157.70204746 50.9646772 155.29937131 57.46087964 152.8972168 63.95727539 C152.07968082 66.16795112 151.26197331 68.37856342 150.4440918 70.58911133 C149.26956975 73.7636685 148.09566165 76.93845211 146.921875 80.11328125 C146.55518204 81.10399124 146.18848907 82.09470123 145.8106842 83.11543274 C145.47040695 84.03616074 145.1301297 84.95688873 144.77954102 85.90551758 C144.47975845 86.7160408 144.17997589 87.52656403 143.87110901 88.36164856 C143.25596053 90.05458492 142.67506871 91.75995011 142.10546875 93.46875 C140.17504883 94.42529297 140.17504883 94.42529297 137.10546875 95.46875 C135.56905422 96.03169874 134.03359459 96.59725641 132.4987793 97.16455078 C130.6635482 97.83187892 128.82799941 98.49833383 126.9921875 99.1640625 C126.02263626 99.51636932 125.05308502 99.86867615 124.05415344 100.23165894 C120.9673659 101.35311207 117.88017344 102.47344578 114.79296875 103.59375 C112.69593671 104.35539488 110.5989312 105.1171128 108.50195312 105.87890625 C103.37009875 107.74303397 98.23791175 109.60624358 93.10546875 111.46875 C93.10546875 112.12875 93.10546875 112.78875 93.10546875 113.46875 C99.60139595 115.87217129 106.09759839 118.27484744 112.59399414 120.67700195 C114.80466987 121.49453793 117.01528217 122.31224544 119.22583008 123.13012695 C122.40038725 124.304649 125.57517086 125.4785571 128.75 126.65234375 C129.74070999 127.01903671 130.73141998 127.38572968 131.75215149 127.76353455 C133.13324348 128.27395042 133.13324348 128.27395042 134.54223633 128.79467773 C135.35275955 129.0944603 136.16328278 129.39424286 136.99836731 129.70310974 C138.69130367 130.31825822 140.39666886 130.89915004 142.10546875 131.46875 C143.06201172 133.90673828 143.06201172 133.90673828 144.10546875 137.46875 C144.65926294 139.01571122 145.22567503 140.55818519 145.80126953 142.09716797 C146.28154099 143.38782669 146.28154099 143.38782669 146.77151489 144.70455933 C147.11117279 145.61416412 147.45083069 146.52376892 147.80078125 147.4609375 C148.15308807 148.40687775 148.5053949 149.35281799 148.86837769 150.3274231 C149.98811201 153.33322517 151.1092697 156.33849402 152.23046875 159.34375 C152.99228166 161.38798575 153.75400144 163.4322562 154.515625 165.4765625 C156.37782784 170.47436082 158.24119797 175.47172271 160.10546875 180.46875 C162.71477065 179.16409905 162.77208928 178.19399144 163.75366211 175.48730469 C164.21940895 174.22028717 164.21940895 174.22028717 164.69456482 172.92767334 C165.02481155 172.00794739 165.35505829 171.08822144 165.6953125 170.140625 C166.0405043 169.19946838 166.38569611 168.25831177 166.74134827 167.28863525 C167.84868424 164.26777256 168.94661716 161.243615 170.04296875 158.21875 C171.13642769 155.20843133 172.2320092 152.19896278 173.33387756 149.19171143 C174.02014672 147.31820051 174.7015316 145.44289143 175.37742615 143.56561279 C179.39358523 132.5884079 179.39358523 132.5884079 182.85351562 130.32543945 C183.50384766 130.08011475 184.15417969 129.83479004 184.82421875 129.58203125 C185.57928711 129.288125 186.33435547 128.99421875 187.11230469 128.69140625 C187.93504883 128.39105469 188.75779297 128.09070313 189.60546875 127.78125 C190.8898584 127.29011719 190.8898584 127.29011719 192.20019531 126.7890625 C195.16185571 125.6634014 198.13297827 124.56548082 201.10546875 123.46875 C203.54836457 122.55649149 205.99106495 121.6437095 208.43359375 120.73046875 C214.98324068 118.28893261 221.5414335 115.87131148 228.10546875 113.46875 C228.10546875 112.80875 228.10546875 112.14875 228.10546875 111.46875 C227.55058777 111.26465515 226.99570679 111.0605603 226.42401123 110.85028076 C220.64408103 108.72186002 214.87002483 106.57806422 209.09912109 104.42529297 C206.94531367 103.62414015 204.79004468 102.82690514 202.63330078 102.03369141 C199.53154214 100.89214136 196.43533128 99.73655513 193.33984375 98.578125 C192.37616882 98.22691589 191.4124939 97.87570679 190.4196167 97.51385498 C184.18558045 95.16007585 180.44499526 93.35106451 177.53515625 87.08984375 C177.00586974 85.69947162 176.48844286 84.30454939 175.98046875 82.90625 C175.69405518 82.14771729 175.4076416 81.38918457 175.11254883 80.60766602 C173.20228694 75.52379971 171.35763863 70.41576918 169.5 65.3125 C169.05221191 64.08861572 168.60442383 62.86473145 168.14306641 61.60375977 C167.24851421 59.15385144 166.36136842 56.7012251 165.48193359 54.24584961 C164.86825928 52.55987671 164.86825928 52.55987671 164.2421875 50.83984375 C163.69630981 49.3228186 163.69630981 49.3228186 163.1394043 47.77514648 C162.32980275 45.31707184 162.32980275 45.31707184 160.10546875 44.46875 Z M-46.89453125 185.46875 C-48.16876953 186.62310547 -48.16876953 186.62310547 -49.46875 187.80078125 C-64.6440412 202.18593478 -76.84000169 223.98732053 -78.05566406 245.29272461 C-78.58695021 264.62838538 -78.58695021 264.62838538 -74.89453125 283.46875 C-74.55421875 284.53351563 -74.21390625 285.59828125 -73.86328125 286.6953125 C-64.92118212 312.01112017 -46.78985086 331.56972835 -22.94140625 343.609375 C-0.05859134 354.52819144 26.41405078 354.83856481 50.10546875 346.46875 C75.31750907 336.19213274 95.12891862 317.44174725 106.01171875 292.3671875 C113.40607083 272.77215448 115.36266396 249.67779939 109.10546875 229.46875 C108.81929687 228.53417969 108.533125 227.59960938 108.23828125 226.63671875 C107.5704161 224.56633679 106.84607681 222.51423894 106.10546875 220.46875 C103.07011415 221.01410922 100.09759263 221.72412433 97.10546875 222.46875 C96.32816406 222.59765625 95.55085937 222.7265625 94.75 222.859375 C91.28878987 223.78871886 88.99414699 224.93614129 87.14453125 228.12597656 C85.07453227 232.59991667 83.51327064 237.25928639 81.95703125 241.93164062 C80.5565972 246.10403473 79.02908621 250.2245461 77.48046875 254.34375 C77.21540527 255.0980127 76.9503418 255.85227539 76.67724609 256.62939453 C74.98679436 261.16931721 73.4164335 263.88217115 69.10546875 266.46875 C67.04296875 267 67.04296875 267 65.10546875 266.96875 C64.14640625 266.98421875 64.14640625 266.98421875 63.16796875 267 C60.07787522 266.20406682 58.43195481 264.63689118 56.10546875 262.46875 C54.59155273 259.47949219 54.59155273 259.47949219 53.3515625 256.015625 C53.01016991 255.08704681 53.01016991 255.08704681 52.66188049 254.13970947 C51.94085007 252.1710365 51.24100678 250.19567876 50.54296875 248.21875 C49.83766986 246.25767503 49.12786945 244.29836967 48.41334534 242.34063721 C47.7637563 240.55534617 47.12649278 238.7655844 46.48999023 236.97558594 C45.8046521 235.23970215 45.8046521 235.23970215 45.10546875 233.46875 C44.84988693 232.77953964 44.59430511 232.09032928 44.33097839 231.38023376 C42.7052356 227.51401446 41.36131197 225.18661879 37.48608398 223.38305664 C36.05602729 222.85214769 34.61428093 222.35197385 33.1640625 221.87890625 C32.39997574 221.60404892 31.63588898 221.32919159 30.84864807 221.04600525 C28.42212334 220.18020714 25.98388087 219.35549479 23.54296875 218.53125 C21.89945196 217.95252865 20.25686027 217.37117295 18.61523438 216.78710938 C13.46230154 214.96294554 8.29129785 213.1973597 3.10546875 211.46875 C2.16187511 208.63796909 1.84726994 206.5497186 1.73046875 203.59375 C1.68148437 202.75070313 1.6325 201.90765625 1.58203125 201.0390625 C2.35184619 197.25892644 4.18634566 195.94853857 7.10546875 193.46875 C9.68187823 192.22763107 12.33956997 191.41619847 15.07421875 190.59375 C16.63091667 190.07895997 18.18688619 189.56196299 19.7421875 189.04296875 C22.17175254 188.2481504 24.60264093 187.46960597 27.04931641 186.72900391 C37.00008992 183.94765342 37.00008992 183.94765342 44.3125 177.203125 C45.82548818 173.3332848 47.10546875 169.65681949 47.10546875 165.46875 C13.75689352 156.04701061 -20.91938463 161.37526755 -46.89453125 185.46875 Z M64.10546875 183.46875 C63.81414062 184.28859375 63.5228125 185.1084375 63.22265625 185.953125 C59.11192365 196.75995661 59.11192365 196.75995661 53.10546875 199.46875 C50.45555228 200.55650956 47.81673899 201.53382923 45.10546875 202.46875 C45.95801756 204.74458317 45.95801756 204.74458317 48.65234375 205.40625 C50.23789062 205.9321875 50.23789062 205.9321875 51.85546875 206.46875 C56.70021418 208.3928225 58.9786889 209.8827827 61.29296875 214.59375 C62.34759223 217.19278464 63.2184082 219.80756834 64.10546875 222.46875 C64.76546875 222.46875 65.42546875 222.46875 66.10546875 222.46875 C66.40839844 221.63730469 66.71132813 220.80585938 67.0234375 219.94921875 C67.44238281 218.86253906 67.86132812 217.77585938 68.29296875 216.65625 C68.69902344 215.57730469 69.10507812 214.49835938 69.5234375 213.38671875 C72.07286728 208.68443716 76.17587065 207.33379992 80.91796875 205.28125 C81.70816406 204.93707031 82.49835938 204.59289062 83.3125 204.23828125 C83.90417969 203.98433594 84.49585938 203.73039062 85.10546875 203.46875 C82.32772452 200.69100577 79.16687989 199.89462415 75.515625 198.56640625 C71.86699278 196.90471151 70.53334756 195.45759368 68.9375 191.76953125 C68.60105469 190.78339844 68.26460938 189.79726562 67.91796875 188.78125 C67.57378906 187.78738281 67.22960937 186.79351562 66.875 185.76953125 C66.62105469 185.01027344 66.36710937 184.25101563 66.10546875 183.46875 C65.44546875 183.46875 64.78546875 183.46875 64.10546875 183.46875 Z " fill="#000000" transform="translate(238.89453125,-0.46875)"/>
<path d="M0 0 C3.95361693 2.12887066 6.46492778 3.75344508 8 8 C8.1953125 11.453125 8.1953125 11.453125 8.125 15.25 C8.10695313 16.51328125 8.08890625 17.7765625 8.0703125 19.078125 C8.04710937 20.04234375 8.02390625 21.0065625 8 22 C9.53720703 21.93039063 9.53720703 21.93039063 11.10546875 21.859375 C12.46611656 21.82183989 13.82679605 21.78544159 15.1875 21.75 C15.86103516 21.71648438 16.53457031 21.68296875 17.22851562 21.6484375 C20.89041975 21.57698571 22.82150622 21.88465822 25.92578125 23.890625 C29.3193705 27.34173272 29.39321892 29.99085404 29.35546875 34.671875 C28.75147582 38.62769681 26.89542195 40.30658423 24 43 C20.57767028 44.14077657 17.91326783 44.09815117 14.3125 44.0625 C12.54326172 44.04896484 12.54326172 44.04896484 10.73828125 44.03515625 C9.83464844 44.02355469 8.93101562 44.01195312 8 44 C8.05220703 45.32064453 8.05220703 45.32064453 8.10546875 46.66796875 C8.13253906 47.82941406 8.15960938 48.99085937 8.1875 50.1875 C8.23970703 51.91033203 8.23970703 51.91033203 8.29296875 53.66796875 C7.90296014 58.10366671 6.29914207 60.60462518 3.3125 63.8125 C-0.079644 65.55441178 -3.30768804 65.55054353 -7 65 C-10.58552881 63.36312815 -11.79315055 62.31027417 -14 59 C-14.14221065 56.39754502 -14.18802932 53.90882316 -14.125 51.3125 C-14.11597656 50.61060547 -14.10695313 49.90871094 -14.09765625 49.18554688 C-14.07413704 47.45688475 -14.03826713 45.72839855 -14 44 C-14.86882812 44.03480469 -15.73765625 44.06960937 -16.6328125 44.10546875 C-28.70714751 44.38909407 -28.70714751 44.38909407 -33 41 C-35.41259871 37.65349212 -36.26189069 35.00200255 -36.0625 30.9375 C-35.39393844 27.48878148 -34.21771453 24.9937417 -31.296875 22.83203125 C-25.91715736 20.88325598 -19.64041533 21.67707546 -14 22 C-14.05800781 20.98679687 -14.11601562 19.97359375 -14.17578125 18.9296875 C-14.66656689 6.72842223 -14.66656689 6.72842223 -11.6875 3.125 C-7.81004387 0.05910446 -4.85869508 -0.47634265 0 0 Z " fill="#000000" transform="translate(483,10)"/>
</svg>
